<svg class="main-svg" xmlns="http://www.w3.org/2000/svg" xmlns:xlink="http://www.w3.org/1999/xlink" width="750" height="350" style="" viewBox="0 0 750 350"><rect x="0" y="0" width="750" height="350" style="fill: rgb(255, 255, 255); fill-opacity: 1;"/><defs id="defs-5ab2e3"><g class="clips"><clipPath id="clip5ab2e3xyplot" class="plotclip"><rect width="634.5" height="292"/></clipPath><clipPath class="axesclip" id="clip5ab2e3x"><rect x="59" y="0" width="634.5" height="350"/></clipPath><clipPath class="axesclip" id="clip5ab2e3y"><rect x="0" y="5" width="750" height="292"/></clipPath><clipPath class="axesclip" id="clip5ab2e3xy"><rect x="59" y="5" width="634.5" height="292"/></clipPath></g><g class="gradients"/><g class="patterns"><pattern id="p5ab2e3-f2ca95" width="14.142135623730951px" height="14.142135623730951px" patternUnits="userSpaceOnUse" patternTransform=""><rect width="14.142135623730951px" height="14.142135623730951px" fill="rgb(255, 0, 0)" fill-opacity="0.1"/><path d="M-3.5355339059327378,3.5355339059327378l7.0710678118654755,-7.0710678118654755M0,14.142135623730951L14.142135623730951,0M10.606601717798213,17.67766952966369l7.0710678118654755,-7.0710678118654755" opacity="0.15" stroke="rgb(255, 0, 0)" stroke-width="2px"/></pattern></g></defs><g class="bglayer"/><g class="layer-below"><g class="imagelayer"/><g class="shapelayer"/></g><g class="cartesianlayer"><g class="subplot xy"><g class="layer-subplot"><g class="shapelayer"/><g class="imagelayer"/></g><g class="minor-gridlayer"><g class="x"/><g class="y"/></g><g class="gridlayer"><g class="x"><path class="xgrid crisp" transform="translate(138.31,0)" d="M0,5v292" style="stroke: rgb(211, 211, 211); stroke-opacity: 1; stroke-width: 1px;"/><path class="xgrid crisp" transform="translate(217.63,0)" d="M0,5v292" style="stroke: rgb(211, 211, 211); stroke-opacity: 1; stroke-width: 1px;"/><path class="xgrid crisp" transform="translate(296.94,0)" d="M0,5v292" style="stroke: rgb(211, 211, 211); stroke-opacity: 1; stroke-width: 1px;"/><path class="xgrid crisp" transform="translate(376.25,0)" d="M0,5v292" style="stroke: rgb(211, 211, 211); stroke-opacity: 1; stroke-width: 1px;"/><path class="xgrid crisp" transform="translate(455.56,0)" d="M0,5v292" style="stroke: rgb(211, 211, 211); stroke-opacity: 1; stroke-width: 1px;"/><path class="xgrid crisp" transform="translate(534.88,0)" d="M0,5v292" style="stroke: rgb(211, 211, 211); stroke-opacity: 1; stroke-width: 1px;"/><path class="xgrid crisp" transform="translate(614.19,0)" d="M0,5v292" style="stroke: rgb(211, 211, 211); stroke-opacity: 1; stroke-width: 1px;"/></g><g class="y"><path class="ygrid crisp" transform="translate(0,229.14)" d="M59,0h634.5" style="stroke: rgb(211, 211, 211); stroke-opacity: 1; stroke-width: 1px;"/><path class="ygrid crisp" transform="translate(0,161.28)" d="M59,0h634.5" style="stroke: rgb(211, 211, 211); stroke-opacity: 1; stroke-width: 1px;"/><path class="ygrid crisp" transform="translate(0,93.42)" d="M59,0h634.5" style="stroke: rgb(211, 211, 211); stroke-opacity: 1; stroke-width: 1px;"/><path class="ygrid crisp" transform="translate(0,25.56)" d="M59,0h634.5" style="stroke: rgb(211, 211, 211); stroke-opacity: 1; stroke-width: 1px;"/></g></g><g class="zerolinelayer"/><g class="layer-between"><g class="shapelayer"/><g class="imagelayer"/></g><path class="xlines-below"/><path class="ylines-below"/><g class="overlines-below"/><g class="xaxislayer-below"/><g class="yaxislayer-below"/><g class="overaxes-below"/><g class="overplot"><g class="xy" transform="translate(59,5)" clip-path="url(#clip5ab2e3xyplot)"><g class="scatterlayer mlayer"><g class="trace scatter trace013b31" style="stroke-miterlimit: 2; opacity: 1;"><g class="fills"/><g class="errorbars"/><g class="lines"><path class="js-line" d="M0,20.36L6.35,46L6.66,47.11L13.64,68.43L13.96,69.28L21.89,87.87L22.21,88.53L29.19,101.53L29.5,102.07L38.7,115.88L39.02,116.31L49.17,128.46L49.49,128.8L60.28,139.2L60.59,139.47L71.7,148.22L72.02,148.45L82.8,155.54L83.12,155.73L98.98,164.29L99.3,164.44L118.65,172.72L118.97,172.84L139.91,179.9L140.22,180L171.32,188.03L171.63,188.1L203.04,194.21L203.36,194.27L246.82,200.55L247.14,200.59L288.7,205.04L289.01,205.07L342,209.29L342.31,209.31L428.29,213.98L428.6,213.99L461.6,215.31L461.92,215.32L599.6,219.08L599.92,219.08L704.3,220.77L704.61,220.77L866.09,222.33L866.41,222.33L1186.83,223.65" style="vector-effect: none; fill: none; stroke: rgb(255, 0, 0); stroke-opacity: 1; stroke-width: 2px; opacity: 1;"/></g><g class="points"/><g class="text"/></g><g class="trace scatter tracefbc3e9" style="stroke-miterlimit: 2;"><g class="fills"><g><path class="js-fill pattern_filled" d="M0,20.36L6.66,43.45L6.98,44.41L14.28,63.76L14.59,64.5L22.84,81.46L23.16,82.04L32.04,96.4L32.36,96.86L42.51,109.87L42.83,110.23L53.62,121.28L53.93,121.58L65.99,131.54L66.31,131.78L79.31,140.5L79.63,140.69L92,147.56L92.32,147.72L110.09,155.78L110.4,155.91L129.44,162.85L129.76,162.95L153.87,169.95L154.18,170.03L171.95,174.26L172.27,174.33L198.6,179.51L198.92,179.57L249.04,186.99L249.36,187.03L294.09,191.87L294.41,191.9L352.15,196.57L352.46,196.59L449.86,201.99L450.18,202L485.39,203.45L485.71,203.46L514.26,204.5L514.58,204.51L789.95,210.57L790.27,210.57L1186.83,213.87L1186.83,226.59L629.42,225.02L629.11,225.01L562.8,224.26L562.48,224.26L517.12,223.54L516.8,223.54L415.6,221.02L415.28,221.01L388,220L387.68,219.99L338.82,217.68L338.51,217.66L315.98,216.3L315.66,216.28L272.2,212.95L271.88,212.92L238.57,209.51L238.25,209.48L215.1,206.49L214.78,206.45L180.83,200.82L180.52,200.76L153.23,194.7L152.91,194.62L128.49,187.49L128.17,187.38L111.04,181L110.72,180.87L96.13,174.17L95.81,174.01L80.9,165.55L80.58,165.35L67.89,156.36L67.57,156.11L55.52,145.46L55.2,145.14L46.64,135.83L46.32,135.46L37.12,123.23L36.8,122.76L27.92,107.92L27.6,107.32L19.67,90.4L19.35,89.63L12.37,70.5L12.06,69.51L6.35,49.44L6.03,48.18L0,20.36Z" style="fill: url('#p5ab2e3-f2ca95'); stroke-width: 0;"/></g></g><g class="errorbars"/><g class="lines"><path class="js-line" d="M0,20.36L6.03,48.18L6.35,49.44L12.06,69.51L12.37,70.5L19.35,89.63L19.67,90.4L27.6,107.32L27.92,107.92L36.8,122.76L37.12,123.23L46.32,135.46L46.64,135.83L55.2,145.14L55.52,145.46L67.57,156.11L67.89,156.36L80.58,165.35L80.9,165.55L95.81,174.01L96.13,174.17L110.72,180.87L111.04,181L128.17,187.38L128.49,187.49L152.91,194.62L153.23,194.7L180.52,200.76L180.83,200.82L214.78,206.45L215.1,206.49L238.25,209.48L238.57,209.51L271.88,212.92L272.2,212.95L315.66,216.28L315.98,216.3L338.51,217.66L338.82,217.68L387.68,219.99L388,220L415.28,221.01L415.6,221.02L516.8,223.54L517.12,223.54L562.48,224.26L562.8,224.26L629.11,225.01L629.42,225.02L1186.83,226.59" style="vector-effect: none; fill: none; stroke: rgb(255, 0, 0); stroke-opacity: 0.1; stroke-width: 2px; opacity: 1;"/></g><g class="points"/><g class="text"/></g><g class="trace scatter tracef2ca95" style="stroke-miterlimit: 2;"><g class="fills"/><g class="errorbars"/><g class="lines"><path class="js-line" d="M0,20.36L6.66,43.45L6.98,44.41L14.28,63.76L14.59,64.5L22.84,81.46L23.16,82.04L32.04,96.4L32.36,96.86L42.51,109.87L42.83,110.23L53.62,121.28L53.93,121.58L65.99,131.54L66.31,131.78L79.31,140.5L79.63,140.69L92,147.56L92.32,147.72L110.09,155.78L110.4,155.91L129.44,162.85L129.76,162.95L153.87,169.95L154.18,170.03L171.95,174.26L172.27,174.33L198.6,179.51L198.92,179.57L249.04,186.99L249.36,187.03L294.09,191.87L294.41,191.9L352.15,196.57L352.46,196.59L449.86,201.99L450.18,202L485.39,203.45L485.71,203.46L514.26,204.5L514.58,204.51L789.95,210.57L790.27,210.57L1186.83,213.87" style="vector-effect: none; fill: none; stroke: rgb(255, 0, 0); stroke-opacity: 0.1; stroke-width: 2px; opacity: 1;"/></g><g class="points"/><g class="text"/></g><g class="trace scatter trace066108" style="stroke-miterlimit: 2; opacity: 1;"><g class="fills"/><g class="errorbars"/><g class="lines"><path class="js-line" d="M0,20.68L1.9,29.82L2.22,30.56L2.86,32.06L3.17,33.81L4.44,37.47L4.76,38.35L6.03,41.8L6.35,42.91L7.61,47.46L7.93,47.2L8.25,47.66L8.88,49.78L9.2,50.83L9.83,51.63L10.15,52.74L25.38,91.6L25.7,92.35L28.24,97.62L28.55,98.18L33.63,108.1L33.95,108.58L37.12,113.92L37.44,114.49L39.97,118.28L40.29,118.69L48.22,130.92L48.54,131.22L52.03,135.5L52.35,135.96L54.57,138.36L54.88,138.98L58.69,143.32L59.01,143.29L61.86,146.52L62.18,146.75L64.4,149.13L64.72,149.31L67.89,151.73L68.21,151.76L70.11,153.46L70.43,153.84L76.77,158.51L77.09,158.86L90.42,168.41L90.73,168.45L95.81,171.46L96.13,171.94L98.66,173.82L98.98,173.76L99.93,173.86L100.25,174.48L102.15,176.04L102.47,176.08L103.42,176.21L103.74,176.21L105.96,176L106.28,176.18L108.18,176.6L108.5,176.62L112.31,177.03L112.62,177.25L113.89,177.26L114.21,177.27L115.8,177.53L116.11,177.24L117.07,176.97L117.38,177.46L121.19,178.1L121.51,177.97L123.09,177.84L123.41,177.75L127.53,178.39L127.85,178.65L134.2,179.35L134.51,179.25L136.73,179.27L137.05,179.31L139.91,179.67L140.22,179.71L142.13,179.76L142.45,180.07L143.71,179.8L144.03,179.77L145.94,180.21L146.25,180.13L147.84,180.34L148.16,180.18L150.38,180.25L150.69,180.37L152.6,180.5L152.91,180.52L155.14,180.86L155.45,180.92L159.89,181.69L160.21,181.57L161.48,181.87L161.8,181.94L164.34,181.98L164.65,182.16L167.51,182.51L167.83,182.73L172.27,183.33L172.58,183.29L173.85,183.49L174.17,183.49L193.52,187.3L193.84,187.16L197.01,187.68L197.33,187.74L200.5,188.35L200.82,188.31L202.41,188.49L202.72,188.8L204.94,188.98L205.26,188.97L224.61,190.87L224.93,190.76L231.91,192.1L232.23,192.22L234.77,192.55L235.08,192.81L238.25,193.36L238.57,193.51L254.43,196.2L254.75,196.06L256.66,196.2L256.97,196.36L259.19,196.76L259.51,196.63L261.41,197.09L261.73,197.06L266.81,197.79L267.12,197.96L269.66,198.41L269.98,198.45L271.88,198.67L272.2,198.89L273.79,198.82L274.1,198.81L278.23,199.55L278.55,199.6L287.43,200.25L287.75,200.38L289.65,200.54L289.97,200.53L290.92,200.52L291.24,200.67L296.31,201.11L296.63,201.43L299.8,201.57L300.12,201.72L308.05,202.58L308.37,202.78L309.64,202.79L309.95,202.84L311.54,202.81L311.86,202.91L314.08,203.1L314.39,202.87L319.79,203.17L320.11,203.03L328.67,203.05L328.99,203.24L329.94,203.46L330.26,203.64L333.43,203.59L333.75,203.75L336.6,203.77L336.92,204.06L337.87,203.96L338.19,204.12L348.98,204.86L349.29,205.18L350.88,205.09L351.2,205.39L354.05,205.41L354.37,205.5L355.64,205.17L355.95,205.46L365.79,206.32L366.11,206.27L369.28,207.19L369.6,207.15L384.82,208.21L385.14,208.47L389.27,208.71L389.58,208.63L391.49,208.94L391.8,208.68L397.2,209.02L397.51,209.08L399.42,209.32L399.73,209.59L400.69,209.43L401,209.54L427.34,210.71L427.65,210.99L430.19,210.68L430.51,210.8L433.36,210.75L433.68,210.91L434.95,210.87L435.27,210.87L438.44,210.98L438.76,211.1L444.78,211.43L445.1,211.39L446.69,211.72L447.01,211.52L448.59,211.75L448.91,211.91L451.45,211.82L451.76,212.09L454.94,211.91L455.25,212.04L457.16,211.94L457.47,212.24L458.43,211.87L458.74,212.06L460.01,211.85L460.33,211.96L463.19,212.48L463.5,212.37L470.16,212.53L470.48,212.47L479.68,212.59L480,212.64L482.85,212.49L483.17,212.62L485.71,212.56L486.03,212.79L486.98,212.5L487.3,212.59L488.88,212.78L489.2,212.51L490.79,212.79L491.1,212.64L494.28,212.79L494.59,212.73L496.18,212.85L496.5,212.77L498.4,213.26L498.72,213.27L500.3,213.07L500.62,213.27L502.21,213.14L502.52,213.32L505.06,213.49L505.38,213.5L506.33,213.54L506.65,213.45L510.14,213.58L510.46,213.9L512.36,213.92L512.68,213.92L514.9,214.16L515.21,214.11L522.83,214.09L523.15,214.24L525.37,214.43L525.68,214.57L526.64,214.69L526.95,214.6L530.12,214.57L530.44,214.72L532.03,214.66L532.35,214.65L533.3,214.54L533.61,214.86L534.88,214.76L535.2,214.87L564.07,215.98L564.39,216.14L564.7,215.71L565.02,215.99L565.34,216.27L566.93,216.07L567.24,216L575.49,216.26L575.81,215.98L578.66,216.11L578.98,216.17L580.57,215.94L580.88,215.88L582.79,215.95L583.11,216.01L591.99,215.9L592.31,215.81L594.21,216.21L594.53,216.2L595.8,216.13L596.11,216.13L597.7,216.11L598.02,216.23L609.44,216.08L609.75,215.97L611.34,216.04L611.66,216.25L612.93,216.09L613.24,216.12L631.64,216.78L631.96,216.57L635.77,216.5L636.09,216.6L641.16,216.83L641.48,216.79L643.7,216.68L644.02,216.74L672.57,217.67L672.89,217.47L675.74,217.62L676.06,217.44L678.6,217.56L678.92,217.39L687.8,217.89L688.12,217.95L690.02,217.98L690.34,217.96L693.51,217.78L693.83,217.81L697.63,217.8L697.95,217.81L726.19,217.99L726.5,217.86L1067.55,222.29" style="vector-effect: none; fill: none; stroke: rgb(214, 39, 40); stroke-opacity: 1; stroke-dasharray: 3px, 3px; stroke-width: 2px; opacity: 1;"/></g><g class="points"/><g class="text"/></g><g class="trace scatter tracec62cc1" style="stroke-miterlimit: 2; opacity: 1;"><g class="fills"/><g class="errorbars"/><g class="lines"><path class="js-line" d="M0,20.09L2.22,31.04L2.54,31.99L3.17,33.01L3.49,33.38L6.66,44.09L6.98,45.68L7.61,45.65L7.93,46.13L8.57,47.21L8.88,48.24L9.2,48.79L9.52,51.89L10.47,53.87L10.79,56.35L11.1,55.42L11.42,56.78L11.74,57.06L13.32,62.4L13.64,63.93L18.08,74.8L18.4,75.81L26.01,94.96L26.33,95.39L27.6,97.34L27.92,99.33L31.73,106.5L32.04,107.04L33.63,109.46L33.95,109.83L36.17,113.53L36.48,114L39.97,119.87L40.29,120.27L54.25,138.32L54.57,138.52L61.55,145.51L61.86,145.62L64.4,148.15L64.72,148.2L66.62,149.76L66.94,150.04L70.75,153.6L71.06,153.81L85.02,164.01L85.34,164.07L86.93,165.06L87.24,165.05L90.1,166.9L90.42,166.93L96.44,170.39L96.76,170.42L103.11,174.28L103.42,173.95L105.64,174.18L105.96,174.11L111.67,175.03L111.99,174.9L113.58,174.9L113.89,174.84L126.27,175.86L126.58,175.7L129.44,176.32L129.76,176.28L131.66,176.82L131.98,176.98L134.2,177.14L134.51,176.88L136.1,177.3L136.42,177.32L145.62,177.84L145.94,177.99L166.56,180.88L166.87,180.58L169.09,181.22L169.41,181.2L175.44,182.42L175.76,182.56L177.66,182.54L177.98,182.75L179.25,182.98L179.56,182.92L181.15,183.06L181.47,183.1L195.43,185.54L195.74,185.53L197.33,185.91L197.65,185.88L198.92,186.21L199.23,186.15L201.77,186.57L202.09,186.53L210.65,187.98L210.97,187.83L213.51,187.99L213.83,187.9L215.1,187.98L215.41,187.88L217.32,188.36L217.63,188.1L221.12,188.67L221.44,188.62L222.71,189.53L223.03,189.25L226.2,189.99L226.52,189.77L229.69,190.84L230.01,190.56L231.28,191L231.59,190.95L232.54,191.14L232.86,191.09L238.57,192.36L238.89,192.19L242.7,193.06L243.01,192.99L244.92,193.28L245.23,193.22L246.19,193.55L246.5,193.59L248.09,193.61L248.41,193.87L250.94,194.21L251.26,194.38L252.85,194.43L253.17,194.48L254.43,194.65L254.75,194.78L256.34,194.97L256.66,194.96L259.83,195.46L260.15,195.64L262.37,196.01L262.68,196.22L266.81,196.67L267.12,196.66L269.03,196.91L269.35,196.9L272.2,197.43L272.52,197.49L275.06,197.83L275.37,197.72L279.18,198.15L279.5,198.27L287.43,199.22L287.75,199.35L289.97,199.3L290.28,199.49L304.88,201.32L305.19,201.21L306.78,201.44L307.1,201.56L309.32,201.76L309.64,201.75L317.25,202.15L317.57,202.18L324.23,202.33L324.55,202.42L327.4,202.7L327.72,202.89L329.31,203.11L329.62,203.27L331.21,203.28L331.53,203.48L334.06,203.82L334.38,203.93L339.14,204.45L339.46,204.37L345.8,205.01L346.12,205.14L353.42,205.67L353.73,205.94L355.64,206.36L355.95,206.18L357.22,206.38L357.54,206.39L359.13,206.38L359.44,206.71L360.71,206.67L361.03,206.58L362.62,206.87L362.93,206.84L365.47,206.95L365.79,207.02L367.69,207.01L368.01,207.04L373.4,207.51L373.72,207.25L378.8,207.48L379.11,207.49L382.29,207.66L382.6,207.71L385.14,207.93L385.46,207.9L388.95,208.35L389.27,208.43L393.71,208.97L394.02,209.05L395.93,209.21L396.25,209.4L398.15,209.33L398.47,209.41L401,209.53L401.32,209.7L406.71,209.97L407.03,210.28L408.94,210.06L409.25,210.22L411.79,210.17L412.11,210.22L431.46,211.34L431.78,211.5L433.36,211.38L433.68,211.48L435.58,211.75L435.9,211.51L437.49,211.53L437.81,211.63L442.56,212.29L442.88,212.29L444.47,212.11L444.78,212.03L447.01,212.34L447.32,212.66L448.91,212.37L449.23,212.59L474.29,213.84L474.61,213.6L489.83,214.07L490.15,214.35L491.42,214.29L491.74,214.33L504.11,214.52L504.43,214.5L506.01,214.77L506.33,214.62L509.82,214.97L510.14,214.91L512.68,215.02L512.99,215.22L524.73,215.61L525.05,215.55L528.86,215.71L529.17,215.73L532.66,215.83L532.98,215.75L540.91,216.26L541.23,216.05L547.89,216.29L548.21,216.38L549.48,216.38L549.79,216.62L551.06,216.52L551.38,216.6L557.09,216.99L557.41,216.86L558.68,217.04L558.99,216.97L560.9,217.19L561.22,217.24L562.8,217.23L563.12,217.24L567.56,217.04L567.88,217.19L588.18,217.85L588.5,217.73L593.89,217.91L594.21,217.76L651.95,219.18L652.27,219.06L753.15,220.87L753.47,221.25L959.68,225.08" style="vector-effect: none; fill: none; stroke: rgb(148, 103, 189); stroke-opacity: 1; stroke-dasharray: 3px, 3px; stroke-width: 2px; opacity: 1;"/></g><g class="points"/><g class="text"/></g><g class="trace scatter trace4c03bd" style="stroke-miterlimit: 2; opacity: 1;"><g class="fills"/><g class="errorbars"/><g class="lines"><path class="js-line" d="M0,18.78L2.22,30.94L2.54,31.8L11.1,56.21L11.42,56.5L12.37,59.71L12.69,60.5L18.08,76.51L18.4,77.37L24.43,92.69L24.75,93.34L35.21,112.2L35.53,112.6L39.66,118.94L39.97,119.41L43.15,124.11L43.46,124.64L45.68,127.4L46,127.97L47.9,130.44L48.22,130.76L50.13,133.43L50.44,133.72L53.3,136.74L53.62,137.1L61.23,145.13L61.55,145.37L64.08,147.88L64.4,148.17L67.57,151.03L67.89,151.16L82.17,161.23L82.49,161.43L84.71,163.21L85.02,163.17L86.93,164.31L87.24,164.63L92.32,167.56L92.64,167.54L93.59,168.27L93.91,168.76L97.4,170.87L97.71,170.85L98.98,172.25L99.3,172L101.52,174.38L101.84,174.04L102.15,173.7L104.06,174.47L104.38,174.18L106.28,174.3L106.6,174.47L107.23,174.24L107.55,174.83L108.5,175.22L108.82,175L109.77,175.16L110.09,175.05L111.67,176.07L111.99,175.84L113.58,176.07L113.89,176.27L115.8,176.09L116.11,176.07L118.02,176.34L118.33,176.15L123.09,177.06L123.41,176.89L127.53,176.99L127.85,177.13L130.39,177.15L130.71,177.12L131.66,177.3L131.98,177.29L135.15,177.53L135.47,177.5L137.37,177.65L137.69,177.75L140.54,177.57L140.86,177.9L141.81,177.9L142.13,178.2L143.4,177.96L143.71,178.04L148.16,178.2L148.47,178.32L164.97,180.29L165.29,180.54L166.87,180.63L167.19,180.6L168.78,180.77L169.09,181.14L171,180.95L171.32,181.08L173.22,181.62L173.54,181.54L179.25,182.54L179.56,182.48L183.05,183.11L183.37,183.12L203.99,186.64L204.31,186.55L206.21,187.26L206.53,187.3L208.12,187.41L208.43,187.75L208.75,188.29L209.07,188.05L209.39,187.89L210.34,188.23L210.65,188.06L211.92,188.22L212.24,188.16L217.32,188.94L217.63,188.94L220.17,189.49L220.49,189.56L231.28,191.51L231.59,191.4L234.45,192.34L234.77,192.26L238.25,192.68L238.57,192.73L240.48,193.19L240.79,193.24L242.06,193.33L242.38,193.35L243.65,193.63L243.97,193.52L247.14,194.68L247.46,195.02L249.99,195.17L250.31,195.25L251.9,195.22L252.21,195.58L253.8,195.6L254.12,195.57L257.29,196.1L257.61,196.23L262.05,196.65L262.37,196.79L266.81,197.1L267.12,197.13L268.71,197.39L269.03,197.27L301.39,201.92L301.7,201.85L302.97,201.87L303.29,201.98L307.42,202.28L307.73,202.28L312.81,202.84L313.13,202.95L315.35,203.14L315.66,203.01L320.11,203.26L320.42,203.47L331.53,204.98L331.84,205.08L333.11,204.89L333.43,205.08L337.24,205.34L337.55,205.54L338.82,205.64L339.14,205.97L341.04,205.78L341.36,206L345.17,206.27L345.49,206.38L348.02,206.48L348.34,206.54L351.51,206.56L351.83,206.84L361.35,207.48L361.67,207.32L363.57,207.61L363.89,207.61L370.87,207.96L371.18,207.82L372.77,207.99L373.09,208.07L374.99,208.11L375.31,208.04L377.21,208.66L377.53,208.69L379.43,208.51L379.75,208.77L381.65,208.72L381.97,208.79L383.87,208.82L384.19,208.91L389.9,209.54L390.22,209.47L391.49,209.4L391.8,209.59L396.25,209.7L396.56,209.76L411.79,211.22L412.11,210.95L413.69,211.31L414.01,211.26L415.6,211.48L415.91,211.38L419.72,211.36L420.04,211.5L422.89,211.59L423.21,211.54L439.71,212.6L440.03,212.8L441.29,212.72L441.61,212.83L467.63,214.17L467.94,214.33L469.85,214.33L470.16,214.6L473.02,214.53L473.34,214.82L475.24,214.94L475.56,214.95L477.14,214.95L477.46,215.17L480,215.17L480.32,215.23L484.76,215.36L485.08,215.53L487.3,215.55L487.61,215.67L489.83,215.51L490.15,215.48L493.32,215.78L493.64,215.71L496.18,216.08L496.5,216.1L499.67,216.24L499.99,216.29L512.04,216.84L512.36,216.77L516.8,217.25L517.12,217.17L518.7,217.41L519.02,217.28L520.92,217.61L521.24,217.45L547.57,218.12L547.89,218.18L555.19,218.17L555.5,218.28L557.73,218.26L558.04,218.37L577.08,219.08L577.4,218.97L586.6,219.34L586.91,219.13L588.18,219.55L588.5,219.47L591.35,219.52L591.67,219.6L593.89,219.52L594.21,219.59L608.8,219.86L609.12,219.96L611.34,219.85L611.66,219.94L617.37,220L617.69,220.12L620.54,220.08L620.86,220.06L624.03,220.18L624.35,220.34L625.62,220.26L625.93,220.22L628.47,220.16L628.79,220.35L637.67,220.65L637.99,220.82L639.58,220.58L639.89,220.65L641.48,220.62L641.8,220.6L643.07,220.89L643.38,220.75L648.78,220.89L649.09,220.99L682.4,222.27L682.72,221.89L684.94,222.42L685.26,222.3L693.83,222.83L694.14,222.93L703.66,223.17L703.98,223.15L714.45,223.21L714.76,223.11L719.84,223.38L720.16,223.22L723.65,223.45L723.96,223.2L728.41,223.62L728.72,223.61L743,223.59L743.32,223.82L749.66,224L749.98,224.05L851.5,226.35" style="vector-effect: none; fill: none; stroke: rgb(140, 86, 75); stroke-opacity: 1; stroke-dasharray: 3px, 3px; stroke-width: 2px; opacity: 1;"/></g><g class="points"/><g class="text"/></g><g class="trace scatter trace099559" style="stroke-miterlimit: 2; opacity: 1;"><g class="fills"/><g class="errorbars"/><g class="lines"><path class="js-line" d="M0,19.32L1.27,28.57L1.59,30.63L2.86,37.89L3.17,37.92L6.03,48.33L6.35,48.69L9.2,55.5L9.52,56.16L10.47,58.78L10.79,59.75L13.01,66.28L13.32,67.46L15.55,73.2L15.86,73.82L16.81,75.61L17.13,76.28L20.3,83.99L20.62,84.58L23.79,91.33L24.11,91.82L28.24,99.55L28.55,100.05L30.14,102.93L30.46,103.53L32.99,107.39L33.31,108.19L33.95,108.99L34.26,109.68L37.75,114.35L38.07,114.58L41.24,119.01L41.56,119.33L47.59,126.94L47.9,127.27L62.5,141.97L62.82,142.16L65.04,143.91L65.35,144.09L66.94,145.76L67.26,145.93L71.06,148.9L71.38,149.21L74.55,151.51L74.87,151.92L77.73,154.07L78.04,154.49L79.63,155.36L79.95,155.9L80.58,156.1L80.9,156.33L82.8,157.62L83.12,157.85L84.71,158.79L85.02,158.91L89.46,161.75L89.78,161.68L92.32,163.45L92.64,163.64L100.57,169.17L100.89,170L107.87,171.6L108.18,172.13L109.13,172.14L109.45,172.34L117.7,173.65L118.02,173.57L119.29,173.96L119.6,174.25L121.82,173.86L122.14,174.07L124.04,174.11L124.36,174.25L126.58,174.69L126.9,174.7L129.44,174.8L129.76,174.82L131.34,174.81L131.66,174.94L146.57,176.78L146.89,176.67L148.16,177.02L148.47,176.95L149.74,177.25L150.06,177.16L151.65,177.43L151.96,177.36L153.55,177.64L153.87,177.67L160.85,178.59L161.16,178.57L164.65,179L164.97,178.96L167.83,179.71L168.14,179.65L180.2,182.26L180.52,182.05L183.37,182.83L183.69,182.84L189.72,183.96L190.03,184.42L191.3,184.52L191.62,184.5L194.79,185.06L195.11,185.05L198.28,185.56L198.6,185.51L200.18,185.99L200.5,186.01L209.7,187.13L210.02,187.72L211.61,187.29L211.92,187.42L214.14,187.81L214.46,187.6L215.73,187.91L216.05,188.52L220.17,188.99L220.49,189.36L222.08,189.59L222.39,189.79L223.66,190.26L223.98,190.44L225.56,190.21L225.88,190.38L231.59,191.79L231.91,191.9L233.81,192.03L234.13,192.22L235.4,192.23L235.72,192.32L238.57,192.83L238.89,192.91L240.79,193.22L241.11,193.26L242.06,193.16L242.38,193.41L243.97,193.47L244.28,193.66L315.03,202.08L315.35,202.01L316.93,202.16L317.25,202.19L323.59,202.33L323.91,202.54L329.31,202.88L329.62,203.04L335.33,203.84L335.65,204L339.46,204.51L339.77,204.53L342,204.67L342.31,204.8L343.58,204.75L343.9,204.88L345.17,205.04L345.49,205.03L348.66,205.46L348.98,205.43L350.88,205.54L351.2,205.55L360.4,206.45L360.71,206.38L362.3,206.47L362.62,206.79L368.64,207.23L368.96,207.48L372.45,207.88L372.77,207.74L374.99,207.82L375.31,207.91L383.56,208.65L383.87,208.63L388.63,209.23L388.95,209.06L391.17,209.47L391.49,209.47L400.69,210.03L401,210.29L402.59,210.6L402.91,210.38L404.18,210.49L404.49,210.36L407.98,211.18L408.3,211.15L411.16,211.3L411.47,211.14L415.91,211.67L416.23,211.56L417.82,211.67L418.14,211.71L420.36,211.68L420.67,211.81L422.58,211.84L422.89,211.85L425.12,212.01L425.43,212.15L427.34,211.88L427.65,212.03L429.87,212.06L430.19,211.91L436.22,212.39L436.54,212.53L437.81,212.34L438.12,212.57L459.7,214.04L460.01,214L461.6,214.11L461.92,214.11L463.82,214.17L464.14,214.28L466.67,214.31L466.99,214.32L468.26,214.54L468.58,214.46L470.48,214.59L470.8,214.51L472.39,214.91L472.7,214.65L474.29,215.12L474.61,215.09L480,215.33L480.32,215.48L487.3,215.75L487.61,215.58L488.57,215.67L488.88,215.7L490.47,215.92L490.79,215.84L492.05,215.86L492.37,215.97L496.5,216.06L496.81,216.29L499.99,216.51L500.3,216.29L501.89,216.38L502.21,216.47L504.74,216.38L505.06,216.38L506.65,216.61L506.97,216.55L507.92,216.56L508.23,216.53L509.82,216.78L510.14,216.79L511.72,216.77L512.04,216.69L516.8,217.11L517.12,217.02L519.34,216.97L519.66,217.12L522.83,217.32L523.15,217.47L527.9,217.73L528.22,217.56L533.3,217.81L533.61,217.59L535.2,218.02L535.52,218.04L537.1,217.93L537.42,217.98L541.55,218.12L541.86,218.04L543.13,218.17L543.45,218.13L548.53,218.45L548.84,218.37L556.46,218.99L556.77,218.89L604.36,221.33L604.68,221.21L743.95,225.81" style="vector-effect: none; fill: none; stroke: rgb(227, 119, 194); stroke-opacity: 1; stroke-dasharray: 3px, 3px; stroke-width: 2px; opacity: 1;"/></g><g class="points"/><g class="text"/></g><g class="trace scatter trace75a98d" style="stroke-miterlimit: 2; opacity: 1;"><g class="fills"/><g class="errorbars"/><g class="lines"><path class="js-line" d="M0,19.15L2.54,34.28L2.86,34.08L4.12,37.17L4.44,38.19L6.03,42.6L6.35,43.5L9.2,51.49L9.52,51.67L13.64,64.27L13.96,64.69L15.86,68.95L16.18,69.94L28.87,99.61L29.19,100L33.63,109.13L33.95,109.5L38.7,117.15L39.02,117.51L43.46,123.9L43.78,124.35L54.57,137.36L54.88,137.6L59.33,142.27L59.64,142.63L60.59,143.49L60.91,143.83L74.55,155.64L74.87,155.8L80.26,160.02L80.58,160.2L82.17,161.37L82.49,161.81L83.44,162.49L83.75,162.83L85.34,163.73L85.66,163.97L94.86,169.25L95.18,169.64L96.44,170.18L96.76,170.15L101.2,172.42L101.52,172.77L108.18,174.14L108.5,174.91L109.77,175.31L110.09,175.38L111.04,175.12L111.35,175.32L114.21,176.31L114.53,177.01L115.8,177.25L116.11,177.48L117.7,177.12L118.02,177.11L118.97,177.13L119.29,177.79L120.56,177.77L120.87,177.57L124.04,177.78L124.36,177.79L128.8,177.84L129.12,178.15L130.39,178.13L130.71,177.98L132.61,178.38L132.93,178.31L135.47,178.2L135.78,178.43L139.27,178.4L139.59,178.58L141.18,178.29L141.49,178.42L142.45,178.7L142.76,178.72L145.3,178.53L145.62,178.53L147.52,178.66L147.84,178.77L151.96,179.11L152.28,179.03L193.84,185.58L194.16,185.9L196.06,186.06L196.38,186.3L198.6,186.63L198.92,186.72L200.18,186.79L200.5,187L212.87,188.47L213.19,188.25L217,189.4L217.32,189.29L219.85,189.51L220.17,189.57L225.56,190.94L225.88,190.81L228.42,191.25L228.74,191.6L232.86,192.1L233.18,192.1L234.45,192.53L234.77,192.52L236.67,193.03L236.99,193.2L240.16,193.54L240.48,193.78L244.28,194.32L244.6,194.46L251.58,195.22L251.9,195.41L256.02,195.95L256.34,195.83L266.49,197.66L266.81,197.58L268.71,197.94L269.03,197.97L274.1,198.66L274.42,198.69L287.11,200.52L287.43,200.85L290.28,200.71L290.6,200.83L316.93,204.06L317.25,203.92L318.2,204.42L318.52,204.13L320.74,204.34L321.06,204.22L322.96,204.26L323.28,204.25L327.4,204.98L327.72,204.8L328.99,205.05L329.31,204.97L331.21,205.61L331.53,205.51L332.48,205.73L332.8,205.87L338.19,206.2L338.51,206.11L342,206.72L342.31,206.6L349.29,207.42L349.61,207.25L352.78,207.79L353.1,207.58L356.91,208.02L357.22,207.94L359.44,208.24L359.76,208.23L361.67,208.28L361.98,208.4L363.25,208.42L363.57,208.54L365.15,208.79L365.47,209.02L366.74,209.27L367.06,209.28L368.64,209.06L368.96,209.13L370.87,209.53L371.18,209.71L375.62,209.85L375.94,209.93L404.81,212.2L405.13,211.96L409.89,212.48L410.2,212.4L437.81,214.65L438.12,214.56L440.98,214.88L441.29,214.93L443.52,214.94L443.83,215.06L455.57,215.97L455.89,216.08L457.16,216.04L457.47,215.92L459.7,216.2L460.01,216.27L461.28,216.13L461.6,216.19L463.82,216.51L464.14,216.62L466.99,216.91L467.31,217.01L469.53,216.83L469.85,217.1L478.73,217.67L479.05,217.96L482.54,217.93L482.85,218.14L484.12,218.33L484.44,218.3L486.98,218.59L487.3,218.4L499.67,219.04L499.99,218.99L501.57,219.48L501.89,219.36L503.48,219.5L503.79,219.56L509.5,219.53L509.82,219.78L512.04,219.68L512.36,219.87L514.58,219.9L514.9,219.9L516.8,219.87L517.12,219.85L519.02,220.13L519.34,220.05L520.92,220.05L521.24,220.12L526.32,220.46L526.64,220.62L528.22,220.48L528.54,220.35L530.76,220.58L531.08,220.52L536.15,221.07L536.47,221.18L542.81,221.12L543.13,221.27L544.4,221.24L544.72,221.35L549.79,221.3L550.11,221.35L551.38,221.38L551.7,221.36L556.77,221.72L557.09,221.55L558.04,221.56L558.36,221.64L562.8,221.92L563.12,221.85L565.34,222.06L565.66,222.14L567.24,222.2L567.56,222.23L572.32,222.39L572.64,222.25L573.91,222.43L574.22,222.45L576.13,222.42L576.44,222.41L578.66,222.52L578.98,222.63L583.11,222.73L583.42,222.88L585.96,222.62L586.28,222.74L588.5,222.97L588.82,223.03L598.02,223.41L598.33,223.32L615.15,224.28L615.47,224.18L618.95,224.46L619.27,224.58L621.18,224.64L621.49,224.67L636.4,225.44" style="vector-effect: none; fill: none; stroke: rgb(127, 127, 127); stroke-opacity: 1; stroke-dasharray: 3px, 3px; stroke-width: 2px; opacity: 1;"/></g><g class="points"/><g class="text"/></g><g class="trace scatter trace2c3637" style="stroke-miterlimit: 2; opacity: 1;"><g class="fills"/><g class="errorbars"/><g class="lines"><path class="js-line" d="M0,19.94L1.9,33.48L2.22,34.44L2.86,37.15L3.17,38.86L5.08,46.49L5.39,45.49L8.88,57.11L9.2,56.88L12.69,66.55L13.01,67.21L21.57,88.63L21.89,89.51L23.79,92.72L24.11,93.35L32.99,109.22L33.31,109.64L46.32,127.26L46.64,127.61L58.06,140.22L58.37,140.33L64.08,145.19L64.4,145.43L74.55,153.56L74.87,153.59L77.73,155.94L78.04,156.03L87.56,162.73L87.88,162.87L98.03,168.7L98.35,168.77L100.25,169.62L100.57,170.11L105.01,171.24L105.33,171.68L106.28,171.54L106.6,171.8L108.5,172.2L108.82,172.53L117.07,174.24L117.38,174.59L128.8,175.99L129.12,176.1L130.71,175.86L131.02,175.88L138.96,176.93L139.27,176.87L141.18,176.89L141.49,177.09L144.67,177.4L144.98,177.56L146.25,177.44L146.57,177.54L175.44,182.26L175.76,182.48L177.34,182.37L177.66,182.47L196.38,186.58L196.7,186.57L205.58,188.21L205.9,188.19L207.16,188.62L207.48,188.77L209.07,188.62L209.39,188.68L211.61,188.94L211.92,189.2L214.46,188.94L214.78,189.35L216.36,189.9L216.68,190.19L217.63,189.76L217.95,190.15L218.9,190.02L219.22,190.08L224.61,191.47L224.93,191.56L226.52,191.83L226.83,191.74L228.74,192.18L229.05,192.18L234.45,192.98L234.77,192.96L236.67,193.41L236.99,193.3L238.89,193.86L239.21,193.78L249.99,195.29L250.31,195.61L251.9,195.67L252.21,195.68L253.48,196.07L253.8,196.1L255.7,196.36L256.02,196.41L258.24,196.93L258.56,197.25L271.25,199.03L271.57,198.86L273.15,199.2L273.47,199.17L274.74,199.55L275.06,199.42L286.79,201.08L287.11,200.99L289.33,201.23L289.65,201.24L307.1,203.55L307.42,203.71L321.69,205.31L322.01,205.25L324.23,205.56L324.55,205.53L326.77,205.87L327.08,205.82L341.04,207.42L341.36,207.27L342.95,207.78L343.26,207.56L345.17,207.99L345.49,207.87L349.93,208.29L350.24,208.34L351.51,208.51L351.83,208.66L354.69,208.68L355,208.93L356.59,209.24L356.91,209.2L360.4,209.91L360.71,209.74L365.47,210.12L365.79,210.49L369.6,210.75L369.91,210.62L372.45,211.06L372.77,210.99L389.27,212.7L389.58,212.54L403.22,213.88L403.54,213.7L405.45,214.06L405.76,214.08L411.47,214.51L411.79,214.67L418.77,215.17L419.09,215.05L420.99,215.15L421.31,215.12L423.53,215.42L423.85,215.42L427.34,215.69L427.65,215.86L430.51,216.13L430.83,216.05L433.36,216.29L433.68,216.21L439.07,216.46L439.39,216.66L441.61,216.65L441.93,216.87L443.52,216.62L443.83,216.74L507.92,221.14L508.23,221.36L510.14,221.23L510.46,221.51L516.48,221.61L516.8,221.94L518.7,221.88L519.02,221.96L526.64,222.61L526.95,222.75L528.54,222.93" style="vector-effect: none; fill: none; stroke: rgb(188, 189, 34); stroke-opacity: 1; stroke-dasharray: 3px, 3px; stroke-width: 2px; opacity: 1;"/></g><g class="points"/><g class="text"/></g><g class="trace scatter trace691c19" style="stroke-miterlimit: 2; opacity: 1;"><g class="fills"/><g class="errorbars"/><g class="lines"><path class="js-line" d="M0,20.76L2.54,33.15L2.86,34.73L4.44,38.21L4.76,39.95L5.71,41.55L6.03,42.68L11.74,59.79L12.06,60.16L16.5,73.36L16.81,73.71L19.35,80.45L19.67,81.32L21.57,86.2L21.89,86.94L29.5,103.11L29.82,103.49L32.99,108.61L33.31,108.95L35.53,112.64L35.85,113.06L39.02,117.9L39.34,118.47L40.93,120.4L41.24,120.85L47.59,129.12L47.9,129.42L54.88,137.66L55.2,138.56L74.24,156.13L74.55,156.34L76.46,157.46L76.77,157.86L94.86,170.63L95.18,170.64L96.44,171.06L96.76,172.11L97.71,172.14L98.03,172.88L101.52,174.28L101.84,174.27L105.01,175.84L105.33,175.82L106.6,176.06L106.91,176.95L107.87,176.79L108.18,177.56L109.45,177.9L109.77,178.25L111.04,177.94L111.35,178.28L112.94,178.56L113.26,178.63L125.95,179.39L126.27,179.29L128.17,179.38L128.49,179.63L131.34,179.48L131.66,179.67L134.2,179.72L134.51,179.93L138.64,180.2L138.96,180.09L150.06,181.5L150.38,181.57L152.6,181.94L152.91,181.85L153.87,182.24L154.18,182.44L156.09,182.35L156.4,182.51L157.99,182.88L158.31,183.12L160.21,182.99L160.53,183.12L161.8,183.24L162.11,183.23L166.24,184L166.56,184.12L171.95,184.45L172.27,184.79L174.49,185.07L174.8,185.18L177.66,185.54L177.98,185.55L180.2,186.01L180.52,186.03L185.27,186.92L185.59,186.86L187.18,187.22L187.49,187.1L191.94,188.15L192.25,187.95L194.16,188.26L194.47,188.26L271.88,202.75L272.2,202.71L273.15,202.96L273.47,202.91L274.74,203.34L275.06,203.14L277.28,203.82L277.59,203.71L279.5,203.98L279.81,204.08L284.57,204.75L284.89,204.86L286.48,205.29L286.79,205.3L290.6,206L290.92,205.96L310.59,208.52L310.9,208.7L316.93,209.18L317.25,209.26L320.11,209.96L320.42,209.92L322.64,210.36L322.96,210.33L325.18,210.36L325.5,210.53L349.29,213.34L349.61,213.45L351.51,213.38L351.83,213.66L354.05,213.75L354.37,213.86L397.2,218.37L397.51,218.48L400.05,218.58L400.37,218.77L406.71,219.38L407.03,219.42L410.2,219.96L410.52,219.87L412.43,219.93L412.74,220.11L416.87,220.52L417.18,220.6L419.09,220.89L419.4,221.01L420.67,221.08" style="vector-effect: none; fill: none; stroke: rgb(23, 190, 207); stroke-opacity: 1; stroke-dasharray: 3px, 3px; stroke-width: 2px; opacity: 1;"/></g><g class="points"/><g class="text"/></g></g></g></g><g class="zerolinelayer-above"/><path class="xlines-above crisp" d="M58,297.5H693.5" style="fill: none; stroke-width: 1px; stroke: rgb(36, 36, 36); stroke-opacity: 1;"/><path class="ylines-above crisp" d="M58.5,5V297" style="fill: none; stroke-width: 1px; stroke: rgb(36, 36, 36); stroke-opacity: 1;"/><g class="overlines-above"/><g class="xaxislayer-above"><path class="xtick ticks crisp" d="M0,298v5" transform="translate(59,0)" style="stroke: rgb(68, 68, 68); stroke-opacity: 1; stroke-width: 1px;"/><path class="xtick ticks crisp" d="M0,298v5" transform="translate(138.31,0)" style="stroke: rgb(68, 68, 68); stroke-opacity: 1; stroke-width: 1px;"/><path class="xtick ticks crisp" d="M0,298v5" transform="translate(217.63,0)" style="stroke: rgb(68, 68, 68); stroke-opacity: 1; stroke-width: 1px;"/><path class="xtick ticks crisp" d="M0,298v5" transform="translate(296.94,0)" style="stroke: rgb(68, 68, 68); stroke-opacity: 1; stroke-width: 1px;"/><path class="xtick ticks crisp" d="M0,298v5" transform="translate(376.25,0)" style="stroke: rgb(68, 68, 68); stroke-opacity: 1; stroke-width: 1px;"/><path class="xtick ticks crisp" d="M0,298v5" transform="translate(455.56,0)" style="stroke: rgb(68, 68, 68); stroke-opacity: 1; stroke-width: 1px;"/><path class="xtick ticks crisp" d="M0,298v5" transform="translate(534.88,0)" style="stroke: rgb(68, 68, 68); stroke-opacity: 1; stroke-width: 1px;"/><path class="xtick ticks crisp" d="M0,298v5" transform="translate(614.19,0)" style="stroke: rgb(68, 68, 68); stroke-opacity: 1; stroke-width: 1px;"/><path class="xtick ticks crisp" d="M0,298v5" transform="translate(693.5,0)" style="stroke: rgb(68, 68, 68); stroke-opacity: 1; stroke-width: 1px;"/><g class="xtick"><text text-anchor="middle" x="0" y="317.4" transform="translate(59,0)" style="font-family: 'FrontPage Pro'; font-size: 12px; fill: rgb(36, 36, 36); fill-opacity: 1; white-space: pre;">0</text></g><g class="xtick"><text text-anchor="middle" x="0" y="317.4" style="font-family: 'FrontPage Pro'; font-size: 12px; fill: rgb(36, 36, 36); fill-opacity: 1; white-space: pre;" transform="translate(138.31,0)">50</text></g><g class="xtick"><text text-anchor="middle" x="0" y="317.4" style="font-family: 'FrontPage Pro'; font-size: 12px; fill: rgb(36, 36, 36); fill-opacity: 1; white-space: pre;" transform="translate(217.63,0)">100</text></g><g class="xtick"><text text-anchor="middle" x="0" y="317.4" style="font-family: 'FrontPage Pro'; font-size: 12px; fill: rgb(36, 36, 36); fill-opacity: 1; white-space: pre;" transform="translate(296.94,0)">150</text></g><g class="xtick"><text text-anchor="middle" x="0" y="317.4" style="font-family: 'FrontPage Pro'; font-size: 12px; fill: rgb(36, 36, 36); fill-opacity: 1; white-space: pre;" transform="translate(376.25,0)">200</text></g><g class="xtick"><text text-anchor="middle" x="0" y="317.4" style="font-family: 'FrontPage Pro'; font-size: 12px; fill: rgb(36, 36, 36); fill-opacity: 1; white-space: pre;" transform="translate(455.56,0)">250</text></g><g class="xtick"><text text-anchor="middle" x="0" y="317.4" style="font-family: 'FrontPage Pro'; font-size: 12px; fill: rgb(36, 36, 36); fill-opacity: 1; white-space: pre;" transform="translate(534.88,0)">300</text></g><g class="xtick"><text text-anchor="middle" x="0" y="317.4" style="font-family: 'FrontPage Pro'; font-size: 12px; fill: rgb(36, 36, 36); fill-opacity: 1; white-space: pre;" transform="translate(614.19,0)">350</text></g><g class="xtick"><text text-anchor="middle" x="0" y="317.4" style="font-family: 'FrontPage Pro'; font-size: 12px; fill: rgb(36, 36, 36); fill-opacity: 1; white-space: pre;" transform="translate(693.5,0)">400</text></g></g><g class="yaxislayer-above"><path class="ytick ticks crisp" d="M58,0h-5" transform="translate(0,297)" style="stroke: rgb(68, 68, 68); stroke-opacity: 1; stroke-width: 1px;"/><path class="ytick ticks crisp" d="M58,0h-5" transform="translate(0,229.14)" style="stroke: rgb(68, 68, 68); stroke-opacity: 1; stroke-width: 1px;"/><path class="ytick ticks crisp" d="M58,0h-5" transform="translate(0,161.28)" style="stroke: rgb(68, 68, 68); stroke-opacity: 1; stroke-width: 1px;"/><path class="ytick ticks crisp" d="M58,0h-5" transform="translate(0,93.42)" style="stroke: rgb(68, 68, 68); stroke-opacity: 1; stroke-width: 1px;"/><path class="ytick ticks crisp" d="M58,0h-5" transform="translate(0,25.56)" style="stroke: rgb(68, 68, 68); stroke-opacity: 1; stroke-width: 1px;"/><g class="ytick"><text text-anchor="end" x="50.6" y="4.199999999999999" transform="translate(0,297)" style="font-family: 'FrontPage Pro'; font-size: 12px; fill: rgb(36, 36, 36); fill-opacity: 1; white-space: pre;">0</text></g><g class="ytick"><text text-anchor="end" x="50.6" y="4.199999999999999" style="font-family: 'FrontPage Pro'; font-size: 12px; fill: rgb(36, 36, 36); fill-opacity: 1; white-space: pre;" transform="translate(0,229.14)">50</text></g><g class="ytick"><text text-anchor="end" x="50.6" y="4.199999999999999" style="font-family: 'FrontPage Pro'; font-size: 12px; fill: rgb(36, 36, 36); fill-opacity: 1; white-space: pre;" transform="translate(0,161.28)">100</text></g><g class="ytick"><text text-anchor="end" x="50.6" y="4.199999999999999" style="font-family: 'FrontPage Pro'; font-size: 12px; fill: rgb(36, 36, 36); fill-opacity: 1; white-space: pre;" transform="translate(0,93.42)">150</text></g><g class="ytick"><text text-anchor="end" x="50.6" y="4.199999999999999" style="font-family: 'FrontPage Pro'; font-size: 12px; fill: rgb(36, 36, 36); fill-opacity: 1; white-space: pre;" transform="translate(0,25.56)">200</text></g></g><g class="overaxes-above"/></g></g><g class="polarlayer"/><g class="smithlayer"/><g class="ternarylayer"/><g class="geolayer"/><g class="funnelarealayer"/><g class="pielayer"/><g class="iciclelayer"/><g class="treemaplayer"/><g class="sunburstlayer"/><g class="glimages"/><defs id="topdefs-5ab2e3"><g class="clips"/><clipPath id="legend5ab2e3"><rect width="169" height="221" x="0" y="0"/></clipPath></defs><g class="layer-above"><g class="imagelayer"/><g class="shapelayer"/></g><g class="infolayer"><g class="legend" pointer-events="all" transform="translate(565,5)"><rect class="bg" shape-rendering="crispEdges" style="stroke: rgb(68, 68, 68); stroke-opacity: 1; fill: rgb(255, 255, 255); fill-opacity: 1; stroke-width: 0px;" width="169" height="221" x="0" y="0"/><g class="scrollbox" transform="" clip-path="url(#legend5ab2e3)"><g class="groups" transform=""><g class="traces" transform="translate(0,14.5)" style="opacity: 1;"><text class="legendtext" text-anchor="start" x="40" y="4.680000000000001" style="font-family: 'FrontPage Pro'; font-size: 12px; fill: rgb(36, 36, 36); fill-opacity: 1; white-space: pre;">Regressionsmodell</text><g class="layers" style="opacity: 1;"><g class="legendfill"/><g class="legendlines"><path class="js-line" d="M5,0h30" style="fill: none; stroke: rgb(255, 0, 0); stroke-opacity: 1; stroke-width: 2px;"/></g><g class="legendsymbols"><g class="legendpoints"/></g></g><rect class="legendtoggle" x="0" y="-9.5" width="163.9677734375" height="19" style="fill: rgb(0, 0, 0); fill-opacity: 0;"/></g></g><g class="groups" transform="translate(0,10)"><g class="traces" transform="translate(0,33.5)" style="opacity: 1;"><text class="legendtext" text-anchor="start" x="40" y="4.680000000000001" style="font-family: 'FrontPage Pro'; font-size: 12px; fill: rgb(36, 36, 36); fill-opacity: 1; white-space: pre;">95% Konfidenzintervall</text><g class="layers"><g class="legendfill"><path class="js-fill pattern_filled" d="M5,-2h30v6h-30z" style="stroke-width: 0; fill: url('#p5ab2e3-f2ca95');"/></g><g class="legendlines"><path class="js-line" d="M5,-2h30" style="fill: none; stroke: rgb(255, 0, 0); stroke-opacity: 0.1; stroke-width: 2px;"/></g><g class="legendsymbols"><g class="legendpoints"/></g></g><rect class="legendtoggle" x="0" y="-9.5" width="163.9677734375" height="19" style="fill: rgb(0, 0, 0); fill-opacity: 0;"/></g></g><g class="groups" transform="translate(0,20)"><g class="traces" transform="translate(0,52.95)" style="opacity: 1;"><text class="legendtext" text-anchor="start" x="5" y="5.07" style="font-family: 'FrontPage Pro'; font-size: 13px; fill: rgb(36, 36, 36); fill-opacity: 1; white-space: pre;">Messungen</text><g class="layers"><g class="legendfill"/><g class="legendlines"/><g class="legendsymbols"><g class="legendpoints"/></g></g><rect class="legendtoggle" x="0" y="-9.950000000000001" width="163.9677734375" height="19.900000000000002" style="fill: rgb(0, 0, 0); fill-opacity: 0;"/></g><g class="traces" transform="translate(0,72.4)" style="opacity: 1;"><text class="legendtext" text-anchor="start" x="40" y="4.680000000000001" style="font-family: 'FrontPage Pro'; font-size: 12px; fill: rgb(36, 36, 36); fill-opacity: 1; white-space: pre;">P2</text><g class="layers" style="opacity: 1;"><g class="legendfill"/><g class="legendlines"><path class="js-line" d="M5,0h30" style="fill: none; stroke: rgb(214, 39, 40); stroke-opacity: 1; stroke-dasharray: 3px, 3px; stroke-width: 2px;"/></g><g class="legendsymbols"><g class="legendpoints"/></g></g><rect class="legendtoggle" x="0" y="-9.5" width="163.9677734375" height="19" style="fill: rgb(0, 0, 0); fill-opacity: 0;"/></g><g class="traces" transform="translate(0,91.4)" style="opacity: 1;"><text class="legendtext" text-anchor="start" x="40" y="4.680000000000001" style="font-family: 'FrontPage Pro'; font-size: 12px; fill: rgb(36, 36, 36); fill-opacity: 1; white-space: pre;">P3</text><g class="layers" style="opacity: 1;"><g class="legendfill"/><g class="legendlines"><path class="js-line" d="M5,0h30" style="fill: none; stroke: rgb(148, 103, 189); stroke-opacity: 1; stroke-dasharray: 3px, 3px; stroke-width: 2px;"/></g><g class="legendsymbols"><g class="legendpoints"/></g></g><rect class="legendtoggle" x="0" y="-9.5" width="163.9677734375" height="19" style="fill: rgb(0, 0, 0); fill-opacity: 0;"/></g><g class="traces" transform="translate(0,110.4)" style="opacity: 1;"><text class="legendtext" text-anchor="start" x="40" y="4.680000000000001" style="font-family: 'FrontPage Pro'; font-size: 12px; fill: rgb(36, 36, 36); fill-opacity: 1; white-space: pre;">P4</text><g class="layers" style="opacity: 1;"><g class="legendfill"/><g class="legendlines"><path class="js-line" d="M5,0h30" style="fill: none; stroke: rgb(140, 86, 75); stroke-opacity: 1; stroke-dasharray: 3px, 3px; stroke-width: 2px;"/></g><g class="legendsymbols"><g class="legendpoints"/></g></g><rect class="legendtoggle" x="0" y="-9.5" width="163.9677734375" height="19" style="fill: rgb(0, 0, 0); fill-opacity: 0;"/></g><g class="traces" transform="translate(0,129.4)" style="opacity: 1;"><text class="legendtext" text-anchor="start" x="40" y="4.680000000000001" style="font-family: 'FrontPage Pro'; font-size: 12px; fill: rgb(36, 36, 36); fill-opacity: 1; white-space: pre;">P5</text><g class="layers" style="opacity: 1;"><g class="legendfill"/><g class="legendlines"><path class="js-line" d="M5,0h30" style="fill: none; stroke: rgb(227, 119, 194); stroke-opacity: 1; stroke-dasharray: 3px, 3px; stroke-width: 2px;"/></g><g class="legendsymbols"><g class="legendpoints"/></g></g><rect class="legendtoggle" x="0" y="-9.5" width="163.9677734375" height="19" style="fill: rgb(0, 0, 0); fill-opacity: 0;"/></g><g class="traces" transform="translate(0,148.4)" style="opacity: 1;"><text class="legendtext" text-anchor="start" x="40" y="4.680000000000001" style="font-family: 'FrontPage Pro'; font-size: 12px; fill: rgb(36, 36, 36); fill-opacity: 1; white-space: pre;">P6</text><g class="layers" style="opacity: 1;"><g class="legendfill"/><g class="legendlines"><path class="js-line" d="M5,0h30" style="fill: none; stroke: rgb(127, 127, 127); stroke-opacity: 1; stroke-dasharray: 3px, 3px; stroke-width: 2px;"/></g><g class="legendsymbols"><g class="legendpoints"/></g></g><rect class="legendtoggle" x="0" y="-9.5" width="163.9677734375" height="19" style="fill: rgb(0, 0, 0); fill-opacity: 0;"/></g><g class="traces" transform="translate(0,167.4)" style="opacity: 1;"><text class="legendtext" text-anchor="start" x="40" y="4.680000000000001" style="font-family: 'FrontPage Pro'; font-size: 12px; fill: rgb(36, 36, 36); fill-opacity: 1; white-space: pre;">P7</text><g class="layers" style="opacity: 1;"><g class="legendfill"/><g class="legendlines"><path class="js-line" d="M5,0h30" style="fill: none; stroke: rgb(188, 189, 34); stroke-opacity: 1; stroke-dasharray: 3px, 3px; stroke-width: 2px;"/></g><g class="legendsymbols"><g class="legendpoints"/></g></g><rect class="legendtoggle" x="0" y="-9.5" width="163.9677734375" height="19" style="fill: rgb(0, 0, 0); fill-opacity: 0;"/></g><g class="traces" transform="translate(0,186.4)" style="opacity: 1;"><text class="legendtext" text-anchor="start" x="40" y="4.680000000000001" style="font-family: 'FrontPage Pro'; font-size: 12px; fill: rgb(36, 36, 36); fill-opacity: 1; white-space: pre;">P8</text><g class="layers" style="opacity: 1;"><g class="legendfill"/><g class="legendlines"><path class="js-line" d="M5,0h30" style="fill: none; stroke: rgb(23, 190, 207); stroke-opacity: 1; stroke-dasharray: 3px, 3px; stroke-width: 2px;"/></g><g class="legendsymbols"><g class="legendpoints"/></g></g><rect class="legendtoggle" x="0" y="-9.5" width="163.9677734375" height="19" style="fill: rgb(0, 0, 0); fill-opacity: 0;"/></g></g></g><rect class="scrollbar" rx="20" ry="3" width="0" height="0" style="fill: rgb(128, 139, 164); fill-opacity: 1;" x="0" y="0"/></g><g class="g-gtitle"/><g class="g-xtitle"><text class="xtitle" x="376.25" y="344.700390625" text-anchor="middle" style="opacity: 1; font-family: 'FrontPage Pro'; font-size: 14px; fill: rgb(36, 36, 36); fill-opacity: 1; white-space: pre;">Zeit t in s</text></g><g class="g-ytitle" transform="translate(2.14453125,0)"><text class="ytitle" transform="rotate(-90,10.855859375000001,151)" x="10.855859375000001" y="151" text-anchor="middle" style="opacity: 1; font-family: 'FrontPage Pro'; font-size: 14px; fill: rgb(36, 36, 36); fill-opacity: 1; white-space: pre;">Temperatur T in °C</text></g></g></svg>