<svg class="main-svg" xmlns="http://www.w3.org/2000/svg" xmlns:xlink="http://www.w3.org/1999/xlink" width="750" height="350" style="" viewBox="0 0 750 350"><rect x="0" y="0" width="750" height="350" style="fill: rgb(255, 255, 255); fill-opacity: 1;"/><defs id="defs-55e3dc"><g class="clips"><clipPath id="clip55e3dcxyplot" class="plotclip"><rect width="686" height="292"/></clipPath><clipPath class="axesclip" id="clip55e3dcx"><rect x="59" y="0" width="686" height="350"/></clipPath><clipPath class="axesclip" id="clip55e3dcy"><rect x="0" y="5" width="750" height="292"/></clipPath><clipPath class="axesclip" id="clip55e3dcxy"><rect x="59" y="5" width="686" height="292"/></clipPath></g><g class="gradients"/><g class="patterns"/></defs><g class="bglayer"/><g class="layer-below"><g class="imagelayer"/><g class="shapelayer"/></g><g class="cartesianlayer"><g class="subplot xy"><g class="layer-subplot"><g class="shapelayer"/><g class="imagelayer"/></g><g class="minor-gridlayer"><g class="x"><path class="xgrid crisp" transform="translate(104.84,0)" d="M0,5v292" style="stroke: rgb(211, 211, 211); stroke-opacity: 1; stroke-dasharray: 3px, 3px; stroke-width: 1px;"/><path class="xgrid crisp" transform="translate(196.53,0)" d="M0,5v292" style="stroke: rgb(211, 211, 211); stroke-opacity: 1; stroke-dasharray: 3px, 3px; stroke-width: 1px;"/><path class="xgrid crisp" transform="translate(288.22,0)" d="M0,5v292" style="stroke: rgb(211, 211, 211); stroke-opacity: 1; stroke-dasharray: 3px, 3px; stroke-width: 1px;"/><path class="xgrid crisp" transform="translate(379.9,0)" d="M0,5v292" style="stroke: rgb(211, 211, 211); stroke-opacity: 1; stroke-dasharray: 3px, 3px; stroke-width: 1px;"/><path class="xgrid crisp" transform="translate(471.59,0)" d="M0,5v292" style="stroke: rgb(211, 211, 211); stroke-opacity: 1; stroke-dasharray: 3px, 3px; stroke-width: 1px;"/><path class="xgrid crisp" transform="translate(563.28,0)" d="M0,5v292" style="stroke: rgb(211, 211, 211); stroke-opacity: 1; stroke-dasharray: 3px, 3px; stroke-width: 1px;"/><path class="xgrid crisp" transform="translate(654.96,0)" d="M0,5v292" style="stroke: rgb(211, 211, 211); stroke-opacity: 1; stroke-dasharray: 3px, 3px; stroke-width: 1px;"/></g><g class="y"/></g><g class="gridlayer"><g class="x"><path class="xgrid crisp" transform="translate(150.69,0)" d="M0,5v292" style="stroke: rgb(211, 211, 211); stroke-opacity: 1; stroke-width: 1px;"/><path class="xgrid crisp" transform="translate(242.37,0)" d="M0,5v292" style="stroke: rgb(211, 211, 211); stroke-opacity: 1; stroke-width: 1px;"/><path class="xgrid crisp" transform="translate(334.06,0)" d="M0,5v292" style="stroke: rgb(211, 211, 211); stroke-opacity: 1; stroke-width: 1px;"/><path class="xgrid crisp" transform="translate(425.75,0)" d="M0,5v292" style="stroke: rgb(211, 211, 211); stroke-opacity: 1; stroke-width: 1px;"/><path class="xgrid crisp" transform="translate(517.4300000000001,0)" d="M0,5v292" style="stroke: rgb(211, 211, 211); stroke-opacity: 1; stroke-width: 1px;"/><path class="xgrid crisp" transform="translate(609.12,0)" d="M0,5v292" style="stroke: rgb(211, 211, 211); stroke-opacity: 1; stroke-width: 1px;"/><path class="xgrid crisp" transform="translate(700.81,0)" d="M0,5v292" style="stroke: rgb(211, 211, 211); stroke-opacity: 1; stroke-width: 1px;"/></g><g class="y"><path class="ygrid crisp" transform="translate(0,228.26)" d="M59,0h686" style="stroke: rgb(211, 211, 211); stroke-opacity: 1; stroke-width: 1px;"/><path class="ygrid crisp" transform="translate(0,159.52)" d="M59,0h686" style="stroke: rgb(211, 211, 211); stroke-opacity: 1; stroke-width: 1px;"/><path class="ygrid crisp" transform="translate(0,90.78)" d="M59,0h686" style="stroke: rgb(211, 211, 211); stroke-opacity: 1; stroke-width: 1px;"/><path class="ygrid crisp" transform="translate(0,22.04)" d="M59,0h686" style="stroke: rgb(211, 211, 211); stroke-opacity: 1; stroke-width: 1px;"/></g></g><g class="zerolinelayer"/><g class="layer-between"><g class="shapelayer"/><g class="imagelayer"/></g><path class="xlines-below"/><path class="ylines-below"/><g class="overlines-below"/><g class="xaxislayer-below"/><g class="yaxislayer-below"/><g class="overaxes-below"/><g class="overplot"><g class="xy" transform="translate(59,5)" clip-path="url(#clip55e3dcxyplot)"><g class="scatterlayer mlayer"><g class="trace scatter tracef351fa" style="stroke-miterlimit: 2; opacity: 1;"><g class="fills"/><g class="errorbars"/><g class="lines"><path class="js-line" d="M6.23,14.6L6.97,21.71L7.15,23.1L8.44,31.17L8.62,31.13L8.8,31.81L17.6,74.62L17.79,75.55L21.64,92.95L21.82,93.6L25.67,108.03L25.86,108.36L33.92,132.3L34.11,132.46L36.49,138.13L36.67,138.56L41.08,147.56L41.26,147.84L44.01,153.03L44.19,153.05L46.03,156.13L46.21,156.45L50.61,163.02L50.79,163.32L53.55,166.23L53.73,166.6L55.01,168.26L55.2,168.49L59.23,172.75L59.41,173.42L59.78,173.51L59.96,174.08L62.53,177.68L62.71,177.54L62.9,177.32L63.26,177.82L63.45,178.55L64.18,179.1L64.36,179.55L65.65,181.12L65.83,181.28L66.56,181.58L66.75,181.32L67.66,182.02L67.85,181.88L68.03,181.83L71.7,181.71L71.88,182L72.07,182.4L72.62,181.97L72.8,181.82L72.98,182.24L73.53,181.94L73.72,181.84L75.73,181.18L75.92,181.22L76.1,181.56L76.65,181.07L76.83,181.29L77.93,181.83L78.12,181.6L79.95,181.73L80.13,181.58L81.78,181.89L81.97,181.65L83.07,181.7L83.25,181.64L84.17,181.85L84.35,181.63L85.45,181.97L85.64,181.97L86.19,182.01L86.37,182.29L89.67,181.8L89.85,181.62L91.14,181.46L91.32,181.4L93.34,181.09L93.52,181.2L98.29,181.93L98.47,182.27L101.41,183.24L101.59,183.37L102.69,183.29L102.87,183.45L106.72,184.38L106.91,184.33L108.37,184.62L108.56,184.69L109.66,184.88L109.84,185.1L118.83,186.67L119.01,186.93L123.41,187.8L123.59,188.01L125.61,189.3L125.79,189.35L126.71,189.51L126.89,189.64L128.18,190.88L128.36,190.75L129.46,190.78L129.65,190.73L131.48,191.04L131.66,191.3L132.76,191.41L132.95,191.52L134.23,191.64L134.41,191.68L137.53,191.86L137.71,192L139.36,192.38L139.55,192.56L140.46,192.27L140.65,192.34L142.11,193.07L142.3,193.41L143.58,194.05L143.76,194.18L145.05,194.42L145.23,194.42L146.33,195.02L146.52,194.92L147.8,194.95L147.98,194.99L149.08,195L149.27,195.16L150.18,195.17L150.37,194.99L154.4,195.64L154.58,195.43L156.42,195.42L156.6,195.16L159.9,195.64L160.09,195.58L163.94,195.91L164.12,196.21L183.01,198.52L183.19,198.69L188.51,199.01L188.69,199.39L189.97,199.66L190.16,199.73L191.44,199.71L191.63,199.92L193.83,199.86L194.01,200.03L195.11,199.9L195.29,199.86L196.58,199.95L196.76,199.88L203.18,200.21L203.36,200.21L204.28,200.2L204.46,200.04L209.23,201.44L209.41,201.38L210.15,201.84L210.33,201.55L210.51,201.53L213.81,202.23L214,202.15L215.1,202.01L215.28,201.92L216.2,201.99L216.38,201.8L217.3,201.77L217.48,202.03L218.76,202.11L218.95,202.26L219.86,202.35L220.05,202.32L220.96,202.59L221.15,202.53L225,203.12L225.18,202.85L226.28,203.31L226.47,203.26L228.12,203.31L228.3,203.59L229.77,203.61L229.95,203.73L231.23,203.7L231.42,203.66L237.65,203.82L237.84,204.12L241.5,204.39L241.69,204.48L244.07,204.1L244.25,204.22L245.9,204.71L246.09,204.46L247.19,205.03L247.37,204.66L249.02,205.09L249.2,205.13L250.67,205.08L250.85,204.96L251.96,205.15L252.14,205.27L253.79,205.46L253.97,205.3L255.26,205.44L255.44,205.72L260.57,205.54L260.76,205.61L263.14,205.22L263.32,205.44L271.76,205.69L271.94,205.79L275.43,205.51L275.61,205.7L276.53,206.12L276.71,205.8L284.78,206.81L284.96,206.83L286.8,206.66L286.98,206.9L290.28,206.99L290.46,207.15L291.38,207.1L291.56,207.32L293.58,207.25L293.76,207.22L295.23,207.1L295.41,206.89L296.7,207.22L296.88,207.14L299.08,207.28L299.27,207.28L300.37,207.52L300.55,207.62L302.2,207.55L302.38,207.58L303.67,207.56L303.85,207.63L304.95,207.66L305.13,207.54L306.23,208.04L306.42,207.91L307.52,207.49L307.7,207.57L308.98,207.74L309.17,207.62L321.09,207.95L321.27,207.79L322.37,208.04L322.55,208.02L333.37,208.26L333.56,208.08L334.66,208.07L334.84,207.86L335.76,208.21L335.94,208.51L337.04,208.41L337.22,208.63L339.42,208.53L339.61,208.84L341.07,208.51L341.26,208.6L342.72,208.52L342.91,208.58L344.74,208.32L344.93,208.05L346.76,208.25L346.94,208.07L349.88,208.32L350.06,208.04L359.96,208.56L360.15,208.78L361.61,208.37L361.8,208.39L362.71,208.34L362.9,208.39L364,208.71L364.18,208.86L366.93,208.92L367.11,208.75L368.4,209.16L368.58,209.08L372.61,208.91L372.8,209.14L376.83,209.28L377.02,209.47L378.12,209.38L378.3,209.61L379.4,209.41L379.58,209.38L381.23,209.54L381.42,209.75L382.88,209.36L383.07,209.23L385.08,209.18L385.27,209.45L387.28,209.38L387.47,209.44L388.57,208.89L388.75,208.89L392.97,209.46L393.15,209.68L394.25,209.8L394.44,209.87L395.35,209.82L395.54,210.02L401.4,209.92L401.59,209.92L403.24,209.88L403.42,210.09L404.52,209.54L404.71,209.78L404.89,209.89L414.42,209.51L414.61,209.79L419.38,209.92L419.56,209.66L420.66,209.74L420.84,209.47L421.94,209.02L422.13,209.2L425.61,209.6L425.79,209.33L426.89,209.51L427.08,209.46L428.73,209.71L428.91,209.71L431.48,209.56L431.66,209.85L432.21,209.3L432.58,209.55L432.76,209.78L434.6,209.42L434.78,209.51L441.01,209.61L441.2,209.43L442.3,209.29L442.48,209.38L451.1,209.83L451.28,210.04L452.2,209.96L452.38,210.08L454.22,210.24L454.4,210.31L455.32,210.25L455.5,210.48L456.78,210.16L456.97,210.23L459.72,209.86L459.9,210.14L461.73,210.07L461.92,210.19L463.38,209.94L463.57,210L464.48,210.12L464.67,210.13L473.29,210.43L473.47,210.02L475.12,209.92L475.3,209.83L477.14,209.75L477.32,209.84L480.26,209.84L480.44,210.03L481.54,209.89L481.72,210.14L482.64,209.66L482.82,209.83L490.34,209.39L490.52,209.28L494.92,209.66L495.11,209.6L496.03,209.46L496.21,209.46L502.26,210.21L502.44,210.1L503.91,210.5L504.09,210.44L505.01,210.19L505.19,210.59L506.11,210.49L506.29,210.44L508.13,210.72L508.31,210.48L509.23,210.47L509.41,210.49L510.14,210.82L510.33,211.2L512.71,210.63L512.9,210.47L515.1,210.63L515.28,210.62L516.56,210.39L516.75,210.45L518.03,210.47L518.21,210.38L519.31,210.51L519.5,210.42L520.41,210.43L520.6,210.6L521.51,210.5L521.7,210.57L522.8,210.04L522.98,210.23L523.16,210.15L530.5,210.35L530.68,210.24L532.52,209.95L532.7,210.22L534.35,210.32L534.53,210.26L535.27,210.12L535.45,210.22L536.18,209.83L536.37,210.04L536.55,209.96L537.65,210.08L537.83,209.8L539.67,210.05L539.85,209.83L543.7,209.82L543.89,209.92L545.9,210.01L546.09,209.82L547.37,209.82L547.55,209.8L551.77,210.42L551.95,210.87L552.87,210.6L553.05,210.9L553.97,210.71L554.15,210.73L557.46,210.67L557.64,210.55L558.74,210.59L558.92,210.37L559.66,210.24L559.84,210.19L562.41,210.23L562.59,210.59L564.97,210.38L565.16,210.47L566.26,210.43L566.44,210.48L567.91,211.26L568.09,210.99L570.84,210.32L571.02,210.68L577.08,210.34L577.26,210.71L583.86,210.9L584.04,211.15L590.83,211.29L591.01,211.6L591.93,211.37L592.11,211.5L600,211.6L600.18,211.39L601.1,211.24L601.28,211.53L602.38,211.27L602.57,211.33L603.3,211.58L603.48,211.35L603.67,211.25L604.95,211.07L605.13,211.12L606.42,210.73L606.6,211.08L608.43,210.83L608.62,210.64L609.9,211.23L610.08,211.26L612.28,210.84L612.47,211.06L613.38,211.21L613.57,211.24L614.67,211.35L614.85,211.22L616.68,211.46L616.87,211.28L618.52,211.81L618.7,211.66L627.14,211.82L627.32,211.79L629.89,212.29L630.07,212.2L631.35,212.19L631.54,212.34L632.45,212.1L632.64,212.24L633.56,212.34L633.74,212.1L636.31,211.86L636.49,212.14L638.32,211.77L638.51,211.84L639.61,211.98L639.79,211.99L644.56,212.07L644.74,211.84L645.84,211.91L646.02,212.03L646.76,211.96L646.94,212.13L649.33,211.92L649.51,212.1L650.24,212.26L650.43,212.03L650.61,211.86L651.53,212.19L651.71,212.34L654.64,211.97L654.83,212.25L655.74,212.33L655.93,212.58L656.84,212.55L657.03,212.6L658.13,212.82L658.31,212.62L659.23,212.87L659.41,212.83L660.69,213.07L660.88,213.13L663.08,212.89L663.26,213.02L665.65,212.87L665.83,212.55L666.75,212.74L666.93,212.75L668.03,212.3L668.21,212.37L669.5,212.82L669.68,212.84L670.96,212.5L671.15,212.63L672.06,212.66L672.25,212.64L677.75,212.51L677.93,212.72L684.72,212.56L684.9,212.42L686,212.87" style="vector-effect: none; fill: none; stroke: rgb(31, 119, 180); stroke-opacity: 1; stroke-width: 2px; opacity: 1;"/></g><g class="points"/><g class="text"/></g><g class="trace scatter trace66ed5a" style="stroke-miterlimit: 2; opacity: 1;"><g class="fills"/><g class="errorbars"/><g class="lines"><path class="js-line" d="M68.95,17.16L70.42,27.48L70.6,28.69L71.88,37.13L72.07,37.08L72.25,37.57L75.55,52.42L75.73,53.05L78.48,66.82L78.67,67.59L82.33,84.52L82.52,85.01L86.92,101.26L87.1,102.06L88.57,106.21L88.75,106.62L97.19,129.46L97.37,129.59L102.87,141.39L103.06,141.36L105.44,145.95L105.62,146.25L108.01,149.6L108.19,149.91L108.92,150.79L109.11,151L123.04,168.66L123.23,168.66L125.98,172.29L126.16,172.23L126.71,172.33L126.89,172.96L128.36,174.88L128.54,174.52L129.46,174.59L129.65,174.42L131.3,175.1L131.48,175.1L136.25,175.57L136.43,175.48L136.98,176.08L137.16,176.24L138.08,176.28L138.26,176.4L138.81,176.75L139,176.63L139.18,176.49L140.28,176.27L140.46,176.27L141.38,176.63L141.56,176.41L142.3,176.77L142.48,176.91L145.23,177.59L145.42,177.78L147.43,177.84L147.62,177.86L148.53,178.1L148.72,178.11L150.55,178.01L150.73,178.04L152.57,178.65L152.75,178.75L153.85,178.83L154.03,178.65L155.68,178.97L155.87,178.8L157.7,179.29L157.88,179.22L159.35,179.49L159.53,179.49L161.37,180.26L161.55,180.14L162.65,180.44L162.84,180.36L164.3,180.71L164.49,180.87L166.14,181.41L166.32,181.44L168.52,181.92L168.7,181.88L169.62,182.08L169.8,182.15L171.09,182.62L171.27,182.8L185.02,186.97L185.21,186.88L185.94,187.15L186.12,187.46L187.59,187.63L187.77,187.68L188.51,187.85L188.69,188.06L191.99,188.64L192.18,188.55L194.01,189.12L194.19,189.23L195.29,189.25L195.48,189.14L196.58,189.39L196.76,189.42L198.23,189.42L198.41,189.58L204.09,191.03L204.28,191.03L205.01,191.51L205.19,191.9L206.85,192.23L207.03,192.29L211.06,193.55L211.25,193.79L212.35,193.94L212.53,194.21L213.45,194.35L213.63,194.61L217.48,195.12L217.66,195.27L218.95,195.39L219.13,195.62L221.15,195.88L221.33,196.14L229.4,198.21L229.58,198.01L230.68,198.66L230.87,198.45L231.97,199.02L232.15,198.79L232.33,198.79L238.94,199.76L239.12,199.97L240.22,199.93L240.4,200.25L242.24,200.4L242.42,200.55L247,201.42L247.19,201.62L248.1,201.68L248.29,201.85L249.57,201.85L249.75,201.87L252.14,201.98L252.32,202.17L253.24,202.17L253.42,202.18L254.71,202.03L254.89,202.03L256.36,202.03L256.54,201.92L260.57,202.32L260.76,202.3L262.04,202.55L262.22,202.39L264.06,202.95L264.24,202.82L265.52,203.02L265.71,203.01L266.62,203.01L266.81,203.05L269.74,203.63L269.93,203.68L270.66,203.73L270.84,204.05L271.94,204.26L272.13,204.2L274.51,204.04L274.69,204.34L288.63,206.95L288.81,206.84L290.28,206.92L290.46,207.18L291.38,207.12L291.56,207.39L294.31,207.73L294.5,207.64L296.15,207.71L296.33,207.76L298.53,207.95L298.72,208L299.82,208.25L300,208.52L300.73,208.47L300.92,208.48L309.9,209.32L310.08,209.25L311,209.54L311.18,209.16L314.85,209.51L315.04,209.58L318.15,209.66L318.34,209.52L319.8,209.64L319.99,209.92L321.64,210L321.82,210L323.1,210.16L323.29,210.34L325.12,210.28L325.3,210.31L326.4,210.52L326.59,210.6L349.88,211.77L350.06,211.39L351.53,211.75L351.71,211.48L352.81,211.61L352.99,211.7L355.19,211.89L355.38,211.68L356.29,211.94L356.48,211.84L363.45,212.75L363.63,212.49L366.01,212.96L366.2,212.83L367.3,213.15L367.48,213.08L369.13,212.9L369.31,213.13L370.96,213.06L371.15,213.07L372.25,213.23L372.43,213.19L373.53,213.59L373.72,213.52L381.05,214.08L381.23,214.24L382.88,214L383.07,213.96L384.53,214.23L384.72,214.08L385.45,214.47L385.63,214.51L388.57,214.14L388.75,213.99L394.99,215L395.17,215.15L395.35,214.72L395.9,215.06L396.09,215.03L398.65,215.04L398.84,214.96L400.67,215.24L400.85,215.21L404.16,215.3L404.34,215.03L406.36,214.86L406.54,215L414.42,215.13L414.61,215.25L420.66,215.38L420.84,215.06L422.13,215.22L422.31,215.06L423.23,215.1L423.41,215.14L434.04,215.8L434.23,215.59L436.43,215.52L436.61,215.62L439,215.81L439.18,215.81L446.15,215.93L446.33,215.82L447.43,215.9L447.61,215.99L451.65,216.26L451.83,216.32L456.6,216.64L456.78,216.54L458.25,216.62L458.43,216.6L462.28,216.55L462.47,216.45L463.93,216.72L464.12,216.61L469.99,216.85L470.17,216.72L471.09,217L471.27,216.73L472.92,216.94L473.1,216.9L478.6,216.93L478.79,217.24L480.07,216.83L480.26,216.85L487.22,217L487.41,216.91L489.06,216.98L489.24,216.9L491.07,216.98L491.26,217.06L493.27,216.94L493.46,217.03L494.92,217.17L495.11,217.2L496.76,217.1L496.94,217.14L499.51,217.32L499.69,217.41L500.79,217.16L500.98,217.27L501.71,217.22L501.89,217.15L502.99,217.44L503.18,217.49L505.56,217.61L505.74,217.52L506.84,217.45L507.03,217.61L509.59,217.35L509.78,217.62L511.43,217.76L511.61,217.62L513.81,217.43L514,217.74L514.73,217.46L514.91,217.67L516.38,217.53L516.56,217.52L519.13,217.89L519.31,217.7L520.41,217.68L520.6,217.73L521.51,217.72L521.7,217.8L523.71,217.53L523.9,217.78L525,217.71L525.18,217.73L528.48,217.72L528.67,217.66L537.1,217.74L537.28,217.46L539.12,217.72L539.3,217.55L540.77,217.51L540.95,217.73L542.6,217.49L542.79,217.34L544.07,217.44L544.25,217.61L548.1,217.76L548.29,217.62L553.24,218.05L553.42,217.86L554.7,218.07L554.89,218.09L556.54,218.59L556.72,218.39L563.32,218.24L563.51,218.36L566.07,218.54L566.26,218.31L571.76,218.44L571.94,218.28L573.41,218.31L573.59,218.34L576.34,218.68L576.53,218.6L578.73,218.72L578.91,218.99L579.83,219.01L580.01,219.06L589.73,218.95L589.91,219.21L591.56,219.48L591.75,219.45L593.03,219.44L593.21,219.44L597.98,219.56L598.16,219.22L599.26,219.55L599.45,219.63L603.48,219.21L603.67,219.06L604.22,219.37L604.4,219.21L604.58,219.13L609.53,219.11L609.72,219.25L611,219.28L611.18,219.29L612.65,219.26L612.83,219.29L622.92,219.6L623.1,219.4L624.57,219.9L624.75,219.98L626.4,219.79L626.59,220.03L636.67,220.32L636.86,220.1L638.32,220.27L638.51,220.21L640.52,220.3L640.71,220.43L642.36,220.4L642.54,220.44L643.64,220.52L643.82,220.54L645.84,220.39L646.02,220.5L646.94,220.55L647.12,220.63L648.78,220.4L648.96,220.39L649.88,220.72L650.06,220.73L651.34,220.57L651.53,220.65L652.63,220.57L652.81,220.5L653.91,220.5L654.09,220.44L654.83,220.58L655.01,220.55L656.29,220.66L656.48,220.77L659.41,221.13L659.59,221.35L661.06,221.08L661.24,221.24L662.16,221.21L662.34,221.27L664.18,221.17L664.36,221.13L665.65,221.18L665.83,221.09L666.75,221.23L666.93,221.14L668.4,220.91L668.58,220.91L669.31,221.13L669.5,221.29L670.6,221.15L670.78,220.93L672.43,221.06L672.61,220.98L674.63,220.87L674.81,220.85L676.46,221.14L676.65,221L686,221.39" style="vector-effect: none; fill: none; stroke: rgb(255, 127, 14); stroke-opacity: 1; stroke-width: 2px; opacity: 1;"/></g><g class="points"/><g class="text"/></g><g class="trace scatter trace4b2108" style="stroke-miterlimit: 2; opacity: 1;"><g class="fills"/><g class="errorbars"/><g class="lines"><path class="js-line" d="M131.3,16.57L132.95,28.79L133.13,29.65L133.86,32.76L134.05,34.82L134.78,37.38L134.96,38.13L136.06,43.25L136.25,44.03L140.65,67.07L140.83,67.49L148.35,99.88L148.53,100.46L152.93,113.67L153.12,114.11L155.32,119.75L155.5,120.13L156.78,123.36L156.97,123.98L163.75,138.28L163.94,138.65L165.04,140.27L165.22,140.56L168.52,146.29L168.7,146.33L170.54,149.3L170.72,149.38L173.65,153.83L173.84,154.14L176.04,157.2L176.22,157.52L186.49,168.55L186.67,168.53L188.87,170.31L189.06,171.23L189.24,170.81L189.79,171.19L189.97,171.7L190.89,172.75L191.08,172.42L192.54,172.58L192.73,172.67L193.83,172.91L194.01,172.99L195.48,173.48L195.66,173.43L197.49,173.53L197.68,173.45L200.06,173.57L200.24,173.9L200.61,173.74L200.98,174.09L201.16,174.03L202.08,174.05L202.26,174.01L203.73,174.36L203.91,174.51L204.83,174.54L205.01,174.76L205.93,174.95L206.11,174.82L207.21,175.19L207.4,175.33L208.86,175.65L209.05,175.39L210.33,175.83L210.51,175.72L213.08,176.23L213.26,176.05L216.01,176.49L216.2,176.43L217.48,176.68L217.66,176.88L218.95,176.87L219.13,176.97L221.52,177.49L221.7,177.52L224.63,178.6L224.82,178.59L226.1,178.83L226.28,178.97L243.15,183.96L243.34,184.05L244.25,184.16L244.44,184.15L245.54,184.5L245.72,184.75L246.45,184.78L246.64,184.93L250.3,185.95L250.49,185.94L252.14,186.38L252.32,186.85L253.06,186.63L253.24,186.48L255.07,186.75L255.26,186.6L259.29,187.28L259.47,187.76L260.57,187.99L260.76,188.08L265.16,189.64L265.34,189.95L266.44,190.02L266.62,190.08L267.54,190.23L267.73,190.61L272.86,192L273.04,191.94L273.78,192.31L273.96,192.19L274.14,192.23L275.06,192.56L275.24,192.73L276.34,192.95L276.53,193.12L277.81,193.09L277.99,193.29L281.84,194.34L282.03,194.29L283.86,195.18L284.05,195.33L284.96,195.4L285.15,195.37L286.8,195.67L286.98,195.66L288.63,196.2L288.81,196.26L290.28,196.6L290.46,196.5L291.56,196.99L291.75,197.09L293.03,197.07L293.21,197.24L294.86,197.65L295.05,197.67L310.82,200.6L311,200.55L311.92,200.68L312.1,200.72L313.2,200.79L313.39,200.79L314.67,200.98L314.85,201.01L318.7,201.17L318.89,201.26L320.17,201.67L320.35,201.76L321.27,201.69L321.45,201.86L323.65,202.4L323.84,202.32L324.94,202.77L325.12,202.82L326.22,202.95L326.4,203.17L330.62,203.96L330.81,203.77L333.01,204.34L333.19,204.32L335.57,204.55L335.76,204.83L337.41,205.29L337.59,205.21L341.26,205.66L341.44,205.57L344.38,205.91L344.56,206.03L359.41,207.85L359.6,208.07L363.63,208.49L363.81,208.43L364.91,208.81L365.1,208.84L369.31,209.11L369.5,209.16L380.68,210.29L380.87,210.45L382.15,210.56L382.33,210.45L384.9,210.68L385.08,210.82L404.34,212.64L404.52,212.53L406.72,212.61L406.91,212.59L408.01,212.62L408.19,212.54L417.91,213.6L418.09,213.5L419.38,213.86L419.56,213.61L421.76,213.6L421.94,213.54L423.23,213.56L423.41,213.62L426.53,213.92L426.71,214.01L427.99,214.26L428.18,214.1L429.83,214.31L430.01,214.22L434.96,214.52L435.15,214.47L439.73,214.9L439.91,214.72L441.75,215.06L441.93,214.91L442.85,214.98L443.03,215.05L447.06,215.25L447.25,215.27L449.45,215.5L449.63,215.39L451.28,215.79L451.47,215.72L453.3,216.02L453.48,215.88L454.58,215.91L454.77,215.96L455.68,216.27L455.87,216.43L457.33,216.13L457.52,216.19L458.8,216.13L458.98,216.18L460.45,216.03L460.63,216.23L461.92,216.03L462.1,215.99L465.4,216.32L465.59,216.4L468.15,216.68L468.34,216.65L469.25,216.82L469.44,216.74L481.72,217.33L481.91,217.51L485.94,217.54L486.12,217.66L488.14,217.7L488.32,217.69L489.61,217.58L489.79,217.46L494.56,218.11L494.74,218.35L497.68,218.15L497.86,218.38L499.33,218.02L499.51,218.12L504.09,218.34L504.28,218.09L505.74,218.24L505.93,218.18L507.03,218.29L507.21,218.35L523.35,218.71L523.53,218.57L524.45,218.68L524.63,218.73L550.85,219.39L551.04,219.54L552.87,219.5L553.05,219.63L555.44,219.56L555.62,219.74L556.54,219.93L556.72,219.94L557.82,219.73L558.01,219.73L559.47,219.85L559.66,219.91L560.57,219.95L560.76,219.75L561.86,219.97L562.04,219.95L563.14,219.73L563.32,219.9L566.44,220L566.62,219.95L567.54,220.22L567.72,220.16L568.64,220.1L568.82,220.14L570.84,220.06L571.02,220.13L572.13,220.33L572.31,220.34L573.23,220.37L573.41,220.38L579.28,220.8L579.46,220.61L580.38,220.82L580.56,220.72L583.31,220.76L583.49,220.87L585.33,220.95L585.51,221.08L586.79,220.86L586.98,220.95L588.08,220.95L588.26,221.08L589.91,221.16L590.1,221.44L591.2,221.36L591.38,221.33L592.85,221.45L593.03,221.36L594.86,221.34L595.05,221.64L596.33,221.5L596.51,221.55L599.63,221.66L599.81,221.56L601.83,221.46L602.01,221.56L605.13,221.36L605.32,221.35L606.6,221.35L606.78,221.41L607.88,221.45L608.07,221.58L608.98,221.53L609.17,221.67L610.63,221.3L610.82,221.58L614.3,221.61L614.48,221.68L618.15,221.98L618.34,222.06L628.79,222.3L628.97,222.52L630.25,222.48L630.44,222.41L646.57,222.93L646.76,223.18L655.38,222.96L655.56,223.19L669.5,223.83L669.68,223.95L671.15,223.6L671.33,223.71L673.16,223.56L673.35,223.82L675.18,223.62L675.36,223.74L677.93,223.9L678.11,223.9L686,224.21" style="vector-effect: none; fill: none; stroke: rgb(44, 160, 44); stroke-opacity: 1; stroke-width: 2px; opacity: 1;"/></g><g class="points"/><g class="text"/></g><g class="trace scatter trace8f45ed" style="stroke-miterlimit: 2; opacity: 1;"><g class="fills"/><g class="errorbars"/><g class="lines"><path class="js-line" d="M193.83,15.24L195.48,29.41L195.66,30.55L196.03,31.44L196.21,33.09L198.59,45.48L198.78,45.59L202.08,61.44L202.26,63.43L205.01,77.14L205.19,77.85L210.15,97.75L210.33,98.42L216.01,114.8L216.2,115.19L220.6,126.56L220.78,126.69L224.08,134.1L224.27,134.27L227.38,140.11L227.57,140.71L228.12,141.46L228.3,141.95L235.08,152.2L235.27,152.29L247.37,165.93L247.55,165.97L249.75,169.11L249.94,169.19L250.85,170.45L251.04,170.7L251.22,170.45L251.77,170.89L251.96,171L252.51,172.86L252.87,172.17L253.06,172.37L253.97,172.95L254.16,172.65L255.26,172.77L255.44,172.95L255.81,172.71L255.99,173.31L256.17,173.74L256.72,173.49L256.91,173.87L257.09,173.9L257.46,173.53L257.82,173.91L258.01,174.23L258.74,174.31L258.92,174.08L259.29,173.99L259.47,174.57L259.66,174.77L261.31,174.72L261.49,174.68L264.24,175.38L264.42,175.4L265.71,175.49L265.89,175.46L266.99,175.43L267.18,175.48L268.64,175.83L268.83,175.84L270.29,175.75L270.48,175.97L271.76,176.02L271.94,176.04L275.06,176.09L275.24,176.42L275.61,176.09L275.79,176.41L275.98,176.72L277.08,176.52L277.26,176.76L277.99,176.41L278.18,176.6L278.36,176.78L280.01,176.76L280.19,176.99L282.21,177.29L282.4,177.36L285.15,177.83L285.33,177.73L286.43,178.14L286.61,178.22L289.18,178.84L289.36,179.09L290.46,179.15L290.65,179.1L292.11,179.68L292.3,179.63L293.58,179.92L293.76,179.89L294.86,180.39L295.05,180.39L297.43,181.12L297.62,181.06L299.45,181.61L299.63,181.7L301.65,182.37L301.83,182.5L307.15,184.14L307.33,184.03L309.17,184.84L309.35,184.8L310.27,185.19L310.45,184.98L310.63,185.03L312.28,185.75L312.47,185.58L313.57,186.12L313.75,186.15L314.3,186.4L314.49,186.95L315.22,186.68L315.4,186.88L315.59,186.71L316.87,187.25L317.05,187.33L317.97,187.24L318.15,187.37L319.62,187.6L319.8,187.78L326.04,189.77L326.22,189.7L328.42,190.63L328.61,190.64L329.16,190.76L329.34,191.05L329.52,190.97L330.99,191.21L331.17,191.43L333.37,191.94L333.56,192.07L335.39,192.48L335.57,192.75L337.04,193.7L337.22,193.66L348.23,195.9L348.41,196.14L349.69,196.28L349.88,196.33L350.79,196.42L350.98,196.46L352.26,196.7L352.44,196.78L353.73,196.98L353.91,197.07L357.21,198.22L357.39,198.03L368.21,200.69L368.4,200.53L369.68,200.83L369.86,200.91L372.43,201.22L372.61,201.38L374.63,201.69L374.82,201.8L376.28,201.85L376.47,201.83L395.54,205.39L395.72,205.34L396.82,205.7L397,205.46L398.1,205.89L398.29,205.86L399.39,205.93L399.57,206.11L406.72,206.72L406.91,206.87L409.29,206.9L409.47,206.98L411.31,207.33L411.49,207.26L412.59,207.43L412.77,207.46L416.62,207.96L416.81,207.73L417.91,208.21L418.09,208.04L434.6,210.43L434.78,210.16L435.88,210.44L436.06,210.39L443.21,210.91L443.4,210.88L453.12,212.42L453.3,212.32L454.4,212.37L454.58,212.47L455.87,212.73L456.05,212.73L457.33,212.67L457.52,212.61L459.72,212.65L459.9,212.85L461.37,212.85L461.55,212.83L462.83,212.77L463.02,212.9L464.67,213.1L464.85,213.35L465.95,213.44L466.14,213.46L467.05,213.57L467.24,213.53L468.15,213.99L468.34,213.83L469.99,214.09L470.17,213.97L472.37,214.26L472.55,214.26L481.36,215.09L481.54,215.06L484.47,215.48L484.66,215.35L485.76,215.67L485.94,215.34L487.41,215.68L487.59,215.64L489.79,215.87L489.97,215.79L492.54,216.28L492.72,216.2L494.01,216.47L494.19,216.41L496.03,216.49L496.21,216.44L498.41,216.61L498.59,216.51L520.96,217.89L521.15,218.09L522.25,217.8L522.43,217.83L528.3,218.2L528.48,217.99L529.58,218.2L529.77,218.15L530.87,218.29L531.05,218.29L531.97,218.4L532.15,218.42L533.07,218.19L533.25,218.46L534.17,218.46L534.35,218.65L535.45,218.59L535.63,218.57L537.65,218.74L537.83,218.68L541.69,218.87L541.87,218.63L543.7,218.99L543.89,218.86L545.35,218.88L545.54,218.9L554.7,219.41L554.89,219.2L557.82,219.43L558.01,219.63L559.29,219.57L559.47,219.73L564.79,219.67L564.97,219.98L566.62,219.74L566.81,219.93L568.27,220.09L568.46,220.05L569.56,220.13L569.74,220.24L571.02,220.1L571.21,220.27L571.94,220.21L572.13,220L573.41,220.23L573.59,220.28L574.33,220.35L574.51,220.24L575.79,220.47L575.98,220.2L577.63,220.73L577.81,220.53L579.83,220.64L580.01,220.98L581.66,220.73L581.84,220.81L583.68,220.77L583.86,221.07L584.96,221L585.14,221.09L586.24,221.26L586.43,221.11L588.81,221.3L589,221.32L590.1,221.36L590.28,221.74L591.38,221.6L591.56,221.79L593.95,221.87L594.13,221.73L595.23,222.1L595.41,222L596.33,221.7L596.51,221.95L596.7,222.03L598.71,222.42L598.9,222.33L600.55,222.28L600.73,222.26L603.3,222.34L603.48,222.28L606.78,222.32L606.97,222.22L608.25,222.65L608.43,222.31L609.72,222.49L609.9,222.49L611,222.45L611.18,222.61L612.65,222.56L612.83,222.69L614.3,222.42L614.48,222.74L617.42,222.72L617.6,222.71L619.07,222.71L619.25,222.86L620.72,222.46L620.9,222.43L622,222.79L622.19,222.82L623.1,222.64L623.29,222.7L624.39,222.94L624.57,223.06L625.3,222.99L625.49,223.03L627.32,223.16L627.5,223.1L629.52,223.41L629.7,223.28L631.35,223.22L631.54,223.2L645.47,223.68L645.66,223.91L646.57,223.82L646.76,223.82L648.59,223.82L648.78,223.88L651.34,223.77L651.53,223.77L653.36,224.04L653.54,224.05L654.64,223.91L654.83,224.05L656.11,224.08L656.29,224.12L657.94,224.12L658.13,224.27L664.91,224.44L665.1,224.21L666.38,224.63L666.56,224.4L667.48,224.4L667.66,224.45L672.8,224.63L672.98,224.61L673.71,224.77L673.9,224.6L675.55,224.96L675.73,224.84L680.13,225.09L680.32,225.1L684.53,224.97L684.72,225.46L686,225.5" style="vector-effect: none; fill: none; stroke: rgb(214, 39, 40); stroke-opacity: 1; stroke-width: 2px; opacity: 1;"/></g><g class="points"/><g class="text"/></g><g class="trace scatter trace4706e3" style="stroke-miterlimit: 2; opacity: 1;"><g class="fills"/><g class="errorbars"/><g class="lines"><path class="js-line" d="M255.99,15.78L257.27,31.52L257.46,32.28L258.74,39.98L258.92,40.25L260.76,51.05L260.94,50.96L262.96,61.11L263.14,62.15L264.79,69.5L264.97,70.36L268.64,84.76L268.83,85.6L274.33,103.02L274.51,103.36L284.41,126.57L284.6,126.83L289.36,135.62L289.55,135.85L293.58,141.99L293.76,142.17L295.05,144.22L295.23,144.6L306.23,158.75L306.42,158.78L307.7,160.06L307.88,159.99L310.27,163L310.45,163.12L314.12,167.58L314.3,168.41L318.15,169.77L318.34,170.03L319.25,170.79L319.44,170.87L322.37,171.37L322.55,172.21L323.47,171.94L323.65,172.14L323.84,172.05L326.22,172.59L326.4,172.33L327.5,172.49L327.69,172.58L329.34,173.18L329.52,173.1L333.92,173.67L334.11,173.84L335.76,174.09L335.94,174.32L336.67,174.49L336.86,174.92L342.36,175.55L342.54,175.76L344.01,175.79L344.19,175.94L352.81,177.98L352.99,178.26L354.28,178.43L354.46,178.53L356.84,179.62L357.03,179.61L358.86,180.19L359.05,180.25L359.78,180.75L359.96,180.88L361.25,181L361.43,181.33L362.16,181.42L362.35,181.45L373.16,185.12L373.35,185.38L374.82,185.32L375,185.42L376.65,185.54L376.83,185.89L377.2,185.77L377.38,186.37L377.57,186.15L377.75,186.12L383.25,187.65L383.43,188.02L384.17,187.89L384.35,188.26L384.53,188.47L385.45,189.12L385.63,188.93L386.92,189.21L387.1,189.54L394.25,191.56L394.44,191.5L395.72,191.99L395.9,191.87L397.19,192.38L397.37,192.42L402.14,193.41L402.32,193.19L405.07,193.99L405.26,193.91L419.38,197.32L419.56,197.14L423.41,197.96L423.59,198.2L424.33,198.02L424.51,198.29L425.98,198.64L426.16,198.68L436.43,200.55L436.61,200.91L439,201L439.18,200.99L447.98,202.27L448.16,202.63L449.45,202.51L449.63,202.6L452.38,203.4L452.57,203.31L453.85,203.67L454.03,203.51L459.17,204.48L459.35,204.33L460.27,204.58L460.45,204.57L466.87,205.74L467.05,205.7L470.54,206.55L470.72,206.49L471.82,206.81L472,206.87L474.02,207.06L474.2,207.31L477.14,207.59L477.32,207.71L482.82,208.52L483.01,208.41L485.02,208.87L485.21,208.8L492.17,210.2L492.36,209.96L493.46,210.36L493.64,210.25L494.56,210.29L494.74,210.44L495.84,210.71L496.03,210.52L501.53,210.79L501.71,210.98L502.63,210.85L502.81,210.81L512.16,211.84L512.35,211.79L514.55,212.28L514.73,212.2L515.83,212.34L516.01,212.31L528.12,213.51L528.3,213.73L529.22,213.65L529.4,213.91L530.5,214.07L530.68,214.27L531.6,213.95L531.78,214.27L533.98,214.49L534.17,214.55L535.08,214.51L535.27,214.56L537.47,214.69L537.65,214.76L538.57,214.71L538.75,214.95L539.67,214.85L539.85,214.7L542.05,215L542.24,215.01L543.52,215.3L543.7,215.21L545.54,215.49L545.72,215.26L547.55,215.52L547.74,215.4L556.72,216.11L556.91,216.27L558.01,216.32L558.19,216.36L559.47,216.6L559.66,216.54L560.76,216.62L560.94,216.7L562.96,216.71L563.14,216.67L565.34,217.06L565.52,217.08L566.62,217.02L566.81,217.09L569.56,217.35L569.74,217.38L570.84,217.36L571.02,217.24L571.94,217.48L572.13,217.28L573.78,217.65L573.96,217.58L578.18,218.04L578.36,217.88L579.64,218.03L579.83,218.11L580.93,218.28L581.11,218.02L582.03,218.28L582.21,218.28L591.75,219.42L591.93,219.68L593.21,219.41L593.4,219.4L594.86,219.51L595.05,219.65L597.43,220.02L597.61,220L635.21,221.82L635.39,221.64L638.87,221.95L639.06,221.8L640.89,221.99L641.07,221.82L643.64,222.28L643.82,222.19L646.39,222.48L646.57,222.25L647.49,222.55L647.67,222.51L648.59,222.43L648.78,222.3L650.43,222.57L650.61,222.52L653.18,222.84L653.36,222.64L654.28,222.82L654.46,222.72L657.94,223.01L658.13,222.89L659.59,223.11L659.78,223.16L660.69,223.27L660.88,223.09L664,223.27L664.18,223.14L665.65,223.38L665.83,223.36L668.03,223.6L668.21,223.52L671.15,223.86L671.33,223.78L672.98,223.94L673.16,223.97L674.08,223.82L674.26,223.96L675.36,224.07L675.55,224.11L676.83,223.96L677.01,224.11L679.95,224.17L680.13,224.16L681.42,224.31L681.6,224.29L683.43,224.52L683.62,224.36L686,224.95" style="vector-effect: none; fill: none; stroke: rgb(148, 103, 189); stroke-opacity: 1; stroke-width: 2px; opacity: 1;"/></g><g class="points"/><g class="text"/></g><g class="trace scatter trace197ddb" style="stroke-miterlimit: 2; opacity: 1;"><g class="fills"/><g class="errorbars"/><g class="lines"><path class="js-line" d="M318.15,15.61L319.99,32.45L320.17,32.38L324.94,56.61L325.12,57.88L325.49,58.51L325.67,60.2L327.5,67.06L327.69,67.82L333.92,93.74L334.11,94.51L341.62,117.46L341.81,118L354.09,143.02L354.28,143.3L358.86,150.47L359.05,150.63L368.76,163.47L368.95,163.62L370.96,165.74L371.15,165.76L372.43,167.18L372.61,167.19L375,169.4L375.18,169.44L378.12,171.66L378.3,171.59L380.68,172.61L380.87,173.39L382.33,173.61L382.52,173.8L384.17,174.8L384.35,175.52L385.08,175.76L385.27,175.99L386.37,175.62L386.55,175.63L386.73,175.44L386.92,175.64L387.1,176.31L387.83,176.29L388.02,176.09L389.85,176.3L390.04,176.31L392.6,176.36L392.79,176.68L393.52,176.65L393.7,176.5L394.99,176.83L395.17,176.74L395.9,177.02L396.09,176.87L396.27,176.73L400.49,177.23L400.67,177.25L402.32,177.06L402.5,176.98L410.57,178.52L410.76,178.64L412.59,179.26L412.77,179.18L417.54,180.42L417.72,180.51L421.03,181.22L421.21,181.41L423.41,182.01L423.59,181.91L436.43,186.38L436.61,186.88L437.53,186.82L437.71,186.9L439.91,186.87L440.1,187.44L441.01,187.17L441.2,187.12L441.56,187.04L441.75,187.24L441.93,187.58L443.21,187.69L443.4,187.82L444.5,188.29L444.68,188.09L449.26,189.65L449.45,189.59L452.75,190.81L452.93,190.81L454.03,191.21L454.22,191.44L454.95,191.75L455.13,191.92L456.97,192.26L457.15,192.5L460.45,193.2L460.63,193.39L463.02,193.78L463.2,193.9L466.87,194.79L467.05,194.8L468.7,195.56L468.89,195.42L474.94,197.07L475.12,197.06L476.22,197.48L476.4,197.41L490.52,200.96L490.71,201.14L492.17,201.24L492.36,201.24L494.19,201.79L494.37,201.59L495.48,202.19L495.66,202.13L497.13,202.49L497.31,202.41L498.41,202.52L498.59,202.55L504.46,203.16L504.64,203.11L509.23,204.12L509.41,204.39L511.43,204.72L511.61,204.69L514,205.1L514.18,205.22L520.05,206.32L520.23,206.15L522.06,206.7L522.25,206.48L524.45,206.93L524.63,206.85L526.1,207.14L526.28,207.05L527.2,207.2L527.38,207.32L528.3,207.46L528.48,207.4L530.87,208.15L531.05,208.06L532.33,208.32L532.52,208.46L533.62,208.53L533.8,208.65L536.55,209.08L536.73,208.94L547,210.5L547.19,210.46L549.57,210.96L549.75,210.77L551.22,211.08L551.4,211.09L553.6,211.2L553.79,211.36L576.89,214.34L577.08,214.54L578.36,214.58L578.54,214.55L580.01,214.89L580.19,214.85L581.11,214.85L581.29,214.87L582.94,215L583.13,215.03L585.69,215.49L585.88,215.63L587.35,215.62L587.53,215.78L588.45,215.92L588.63,216.04L590.1,216.14L590.28,216.07L590.83,216.4L591.2,216.13L591.38,216.2L593.03,216.67L593.21,216.53L601.65,217.66L601.83,217.67L603.12,217.99L603.3,217.88L606.78,218.11L606.97,218.09L608.8,218.33L608.98,218.36L610.27,218.7L610.45,218.64L612.1,218.58L612.28,218.71L614.12,218.74L614.3,218.94L615.58,218.97L615.77,218.97L617.05,218.91L617.23,219.09L621.27,219.1L621.45,219.3L625.3,219.58L625.49,219.63L626.77,220.09L626.95,219.99L628.05,220.15L628.24,220.26L631.9,220.2L632.09,220.35L632.82,220.32L633.01,220.43L635.94,220.38L636.12,220.43L637.04,220.45L637.22,220.51L639.97,220.81L640.16,220.63L641.07,220.8L641.26,220.78L644.37,221.14L644.56,221.23L645.66,221.15L645.84,221.25L650.43,221.69L650.61,221.42L651.53,221.43L651.71,221.48L652.26,221.77L652.44,221.63L652.63,221.62L654.09,221.81L654.28,221.63L655.93,222.04L656.11,221.92L658.68,222.16L658.86,222.3L659.59,222.28L659.78,222.5L661.43,222.5L661.61,222.51L663.45,222.5L663.63,222.63L665.1,222.55L665.28,222.63L667.48,222.88L667.66,222.69L668.95,222.97L669.13,222.88L670.96,223.1L671.15,223.03L672.43,223.27L672.61,223.29L680.5,223.84L680.68,224.03L683.8,224.18L683.98,224.44L685.27,224.51L685.45,224.66L686,224.58" style="vector-effect: none; fill: none; stroke: rgb(140, 86, 75); stroke-opacity: 1; stroke-width: 2px; opacity: 1;"/></g><g class="points"/><g class="text"/></g><g class="trace scatter trace9af4bc" style="stroke-miterlimit: 2; opacity: 1;"><g class="fills"/><g class="errorbars"/><g class="lines"><path class="js-line" d="M380.5,16.42L382.15,33.85L382.33,35.57L384.35,47.44L384.53,47.56L385.63,54.07L385.82,53.83L389.3,70.53L389.49,71.11L390.4,75.12L390.59,75.77L394.25,90.14L394.44,90.78L400.85,110.4L401.04,110.68L414.61,139.01L414.79,139.29L421.94,149.87L422.13,150.04L423.59,151.76L423.78,151.8L425.98,154.78L426.16,155.11L430.74,160.66L430.93,160.87L439.18,168.83L439.36,168.76L439.91,169.05L440.1,169.44L441.2,169.68L441.38,170.12L441.56,169.72L442.11,170.24L442.3,170.22L444.68,171.34L444.86,171.18L446.88,172.03L447.06,171.95L449.82,173.07L450,173.05L452.02,173.6L452.2,173.77L454.03,173.74L454.22,173.93L455.5,174.4L455.68,174.3L456.6,174.51L456.78,174.84L457.88,175.05L458.07,175.17L459.35,175.23L459.53,175.19L460.82,175.44L461,175.38L462.1,175.39L462.28,175.6L464.12,175.91L464.3,176.08L465.04,175.96L465.22,176.05L481.91,180.84L482.09,181.06L483.01,180.95L483.19,181.05L494.01,185.21L494.19,185.2L499.69,187.18L499.88,186.78L500.43,187.44L500.79,187.12L500.98,187.06L502.44,187.39L502.63,187.47L503.73,187.62L503.91,187.59L505.74,188.87L505.93,188.49L506.11,188.35L510.88,190.24L511.06,190.17L512.71,190.89L512.9,190.89L516.01,191.7L516.2,191.68L518.03,192.5L518.21,192.51L531.6,196.17L531.78,196.59L535.82,197.4L536,197.34L537.28,197.82L537.47,197.65L538.93,198.28L539.12,198.2L540.4,198.45L540.58,198.4L548.47,200.22L548.65,200.46L551.22,200.93L551.4,200.93L555.8,201.77L555.99,201.54L557.27,202.14L557.46,202.38L558.01,202.4L558.19,202.56L558.37,202.61L561.67,203.28L561.86,203.5L563.14,203.63L563.32,203.76L564.06,203.62L564.24,203.84L564.42,203.74L568.64,204.56L568.82,204.61L572.49,205.29L572.68,205.22L575.98,205.99L576.16,205.86L577.63,206.33L577.81,206.17L578.73,206.69L578.91,206.47L579.09,206.64L582.76,207.2L582.94,207.25L583.68,207.42L583.86,207.58L585.51,207.6L585.69,207.86L586.98,208.25L587.16,208.07L589,208.67L589.18,208.66L591.75,209.06L591.93,209.43L594.13,209.69L594.31,209.56L595.96,209.94L596.15,209.97L597.25,210.34L597.43,210.18L600,210.52L600.18,210.71L601.28,210.97L601.46,210.88L603.3,211.29L603.48,211.34L614.3,213.09L614.48,213.18L616.13,213.27L616.32,213.31L618.15,213.43L618.34,213.5L619.62,213.82L619.8,213.53L636.67,215.87L636.86,215.64L638.51,215.96L638.69,215.94L639.97,216.28L640.16,216.17L641.26,216.45L641.44,216.37L681.78,221.21L681.97,221.39L682.7,221.26L682.88,221.47L683.07,221.56L684.35,221.4L684.53,221.61L686,222.03" style="vector-effect: none; fill: none; stroke: rgb(227, 119, 194); stroke-opacity: 1; stroke-width: 2px; opacity: 1;"/></g><g class="points"/><g class="text"/></g><g class="trace scatter traceb85f17" style="stroke-miterlimit: 2; opacity: 1;"><g class="fills"/><g class="errorbars"/><g class="lines"><path class="js-line" d="M442.85,17.25L444.68,31.92L444.86,32.54L448.53,50.91L448.71,52.73L450,58.21L450.18,59.09L452.2,69.67L452.38,70.53L452.93,72.61L453.12,73.68L456.23,86.89L456.42,87.54L458.98,97.78L459.17,98.41L466.87,119.12L467.05,119.5L469.62,125.39L469.8,125.74L479.34,144.63L479.52,144.8L481.72,148.59L481.91,148.82L490.16,160.13L490.34,160.18L496.58,167.69L496.76,168.08L498.41,169.34L498.59,169.49L499.69,171.49L499.88,171.5L500.79,172.48L500.98,172.3L501.16,172.4L503.54,174.33L503.73,174.31L506.84,176.54L507.03,176.46L508.13,177.09L508.31,177.16L515.65,177.93L515.83,177.83L516.93,177.92L517.11,178.18L518.76,178.02L518.95,178.21L520.41,178.26L520.6,178.48L522.98,178.75L523.16,178.64L529.22,179.65L529.4,180.03L544.07,183.91L544.25,184L545.9,184.35L546.09,184.38L551.59,185.83L551.77,185.81L553.79,186.8L553.97,186.6L555.25,186.92L555.44,186.97L568.46,191.39L568.64,191.44L569.74,191.74L569.92,191.86L571.39,192.32L571.57,192.58L573.04,192.81L573.23,192.99L575.24,193.73L575.43,193.73L579.28,195.09L579.46,195L580.38,195.46L580.56,195.33L582.94,195.96L583.13,196.1L593.21,199.68L593.4,199.6L594.5,199.98L594.68,199.97L595.78,200.5L595.96,200.6L602.01,202.18L602.2,202.32L606.42,203.41L606.6,203.49L607.7,203.97L607.88,204.01L628.05,208.86L628.24,209.03L629.15,209.24L629.34,209.3L631.72,209.49L631.9,209.65L633.19,209.97L633.37,209.9L634.47,210.1L634.66,210.12L636.12,210.47L636.31,210.48L642.54,211.75L642.72,211.84L643.82,212.08L644.01,212.16L644.74,212.32L644.92,212.43L646.02,212.36L646.21,212.64L647.49,212.73L647.67,212.84L664.73,215.94L664.91,215.82L666.56,216.25L666.75,216.15L668.21,216.52L668.4,216.53L670.05,216.69L670.23,216.69L673.9,217.67L674.08,217.62L675.36,218.04L675.55,218.07L686,220.16" style="vector-effect: none; fill: none; stroke: rgb(127, 127, 127); stroke-opacity: 1; stroke-width: 2px; opacity: 1;"/></g><g class="points"/><g class="text"/></g><g class="trace scatter tracee3d7ed" style="stroke-miterlimit: 2; opacity: 1;"><g class="fills"/><g class="errorbars"/><g class="lines"><path class="js-line" d="M505.38,22.89L507.21,37.79L507.39,39.22L514,69.77L514.18,70.38L515.65,76.14L515.83,76.83L516.38,79.09L516.56,79.82L520.78,96.16L520.96,96.49L533.62,132.3L533.8,132.68L536,136.83L536.18,137.1L539.3,143.02L539.48,143.16L542.6,148.12L542.79,148.38L543.34,148.84L543.52,149.31L547,154.11L547.19,154.37L548.47,156.01L548.65,156.55L550.3,158.44L550.49,158.75L553.24,161.6L553.42,161.86L556.91,165.5L557.09,165.74L567.91,175.96L568.09,175.96L569.92,177.49L570.11,177.54L571.94,179.39L572.13,179.26L575.61,182.19L575.79,182.29L577.44,183.46L577.63,183.41L593.21,193.74L593.4,193.69L595.6,195.55L595.78,195.47L599.63,197.07L599.81,197.1L604.03,199.37L604.22,199.34L606.42,200.16L606.6,200.54L607.52,200.9L607.7,201.04L609.17,201.54L609.35,201.82L612.83,203.13L613.02,203.22L622.37,206.59L622.55,206.68L625.12,207.43L625.3,207.36L626.22,207.56L626.4,207.98L629.15,208.87L629.34,209.17L630.07,208.89L630.25,209.1L656.48,215.86L656.66,215.81L657.94,216.38L658.13,216.48L671.88,219.33L672.06,219.45L672.98,219.62L673.16,219.75L674.63,220.34L674.81,220.39L675.91,220.86L676.1,220.69L677.93,221.23L678.11,221.07L680.87,221.57L681.05,221.57L682.33,222.09L682.52,222.24L685.27,222.61L685.45,222.75L686,222.57" style="vector-effect: none; fill: none; stroke: rgb(188, 189, 34); stroke-opacity: 1; stroke-width: 2px; opacity: 1;"/></g><g class="points"/><g class="text"/></g></g></g></g><g class="zerolinelayer-above"/><path class="xlines-above crisp" d="M58,297.5H745" style="fill: none; stroke-width: 1px; stroke: rgb(36, 36, 36); stroke-opacity: 1;"/><path class="ylines-above crisp" d="M58.5,5V297" style="fill: none; stroke-width: 1px; stroke: rgb(36, 36, 36); stroke-opacity: 1;"/><g class="overlines-above"/><g class="xaxislayer-above"><path class="xtick ticks crisp" d="M0,298v3" transform="translate(104.84,0)" style="stroke: rgb(0, 0, 0); stroke-opacity: 1; stroke-width: 1px;"/><path class="xtick ticks crisp" d="M0,298v3" transform="translate(196.53,0)" style="stroke: rgb(0, 0, 0); stroke-opacity: 1; stroke-width: 1px;"/><path class="xtick ticks crisp" d="M0,298v3" transform="translate(288.22,0)" style="stroke: rgb(0, 0, 0); stroke-opacity: 1; stroke-width: 1px;"/><path class="xtick ticks crisp" d="M0,298v3" transform="translate(379.9,0)" style="stroke: rgb(0, 0, 0); stroke-opacity: 1; stroke-width: 1px;"/><path class="xtick ticks crisp" d="M0,298v3" transform="translate(471.59,0)" style="stroke: rgb(0, 0, 0); stroke-opacity: 1; stroke-width: 1px;"/><path class="xtick ticks crisp" d="M0,298v3" transform="translate(563.28,0)" style="stroke: rgb(0, 0, 0); stroke-opacity: 1; stroke-width: 1px;"/><path class="xtick ticks crisp" d="M0,298v3" transform="translate(654.96,0)" style="stroke: rgb(0, 0, 0); stroke-opacity: 1; stroke-width: 1px;"/><path class="xtick ticks crisp" d="M0,298v5" transform="translate(59,0)" style="stroke: rgb(68, 68, 68); stroke-opacity: 1; stroke-width: 1px;"/><path class="xtick ticks crisp" d="M0,298v5" transform="translate(150.69,0)" style="stroke: rgb(68, 68, 68); stroke-opacity: 1; stroke-width: 1px;"/><path class="xtick ticks crisp" d="M0,298v5" transform="translate(242.37,0)" style="stroke: rgb(68, 68, 68); stroke-opacity: 1; stroke-width: 1px;"/><path class="xtick ticks crisp" d="M0,298v5" transform="translate(334.06,0)" style="stroke: rgb(68, 68, 68); stroke-opacity: 1; stroke-width: 1px;"/><path class="xtick ticks crisp" d="M0,298v5" transform="translate(425.75,0)" style="stroke: rgb(68, 68, 68); stroke-opacity: 1; stroke-width: 1px;"/><path class="xtick ticks crisp" d="M0,298v5" transform="translate(517.4300000000001,0)" style="stroke: rgb(68, 68, 68); stroke-opacity: 1; stroke-width: 1px;"/><path class="xtick ticks crisp" d="M0,298v5" transform="translate(609.12,0)" style="stroke: rgb(68, 68, 68); stroke-opacity: 1; stroke-width: 1px;"/><path class="xtick ticks crisp" d="M0,298v5" transform="translate(700.81,0)" style="stroke: rgb(68, 68, 68); stroke-opacity: 1; stroke-width: 1px;"/><g class="xtick"><text text-anchor="middle" x="0" y="317.4" transform="translate(59,0)" style="font-family: 'FrontPage Pro'; font-size: 12px; fill: rgb(36, 36, 36); fill-opacity: 1; white-space: pre;">0</text></g><g class="xtick"><text text-anchor="middle" x="0" y="317.4" style="font-family: 'FrontPage Pro'; font-size: 12px; fill: rgb(36, 36, 36); fill-opacity: 1; white-space: pre;" transform="translate(150.69,0)">500</text></g><g class="xtick"><text text-anchor="middle" x="0" y="317.4" style="font-family: 'FrontPage Pro'; font-size: 12px; fill: rgb(36, 36, 36); fill-opacity: 1; white-space: pre;" transform="translate(242.37,0)">1000</text></g><g class="xtick"><text text-anchor="middle" x="0" y="317.4" style="font-family: 'FrontPage Pro'; font-size: 12px; fill: rgb(36, 36, 36); fill-opacity: 1; white-space: pre;" transform="translate(334.06,0)">1500</text></g><g class="xtick"><text text-anchor="middle" x="0" y="317.4" style="font-family: 'FrontPage Pro'; font-size: 12px; fill: rgb(36, 36, 36); fill-opacity: 1; white-space: pre;" transform="translate(425.75,0)">2000</text></g><g class="xtick"><text text-anchor="middle" x="0" y="317.4" style="font-family: 'FrontPage Pro'; font-size: 12px; fill: rgb(36, 36, 36); fill-opacity: 1; white-space: pre;" transform="translate(517.4300000000001,0)">2500</text></g><g class="xtick"><text text-anchor="middle" x="0" y="317.4" style="font-family: 'FrontPage Pro'; font-size: 12px; fill: rgb(36, 36, 36); fill-opacity: 1; white-space: pre;" transform="translate(609.12,0)">3000</text></g><g class="xtick"><text text-anchor="middle" x="0" y="317.4" style="font-family: 'FrontPage Pro'; font-size: 12px; fill: rgb(36, 36, 36); fill-opacity: 1; white-space: pre;" transform="translate(700.81,0)">3500</text></g></g><g class="yaxislayer-above"><path class="ytick ticks crisp" d="M58,0h-5" transform="translate(0,297)" style="stroke: rgb(68, 68, 68); stroke-opacity: 1; stroke-width: 1px;"/><path class="ytick ticks crisp" d="M58,0h-5" transform="translate(0,228.26)" style="stroke: rgb(68, 68, 68); stroke-opacity: 1; stroke-width: 1px;"/><path class="ytick ticks crisp" d="M58,0h-5" transform="translate(0,159.52)" style="stroke: rgb(68, 68, 68); stroke-opacity: 1; stroke-width: 1px;"/><path class="ytick ticks crisp" d="M58,0h-5" transform="translate(0,90.78)" style="stroke: rgb(68, 68, 68); stroke-opacity: 1; stroke-width: 1px;"/><path class="ytick ticks crisp" d="M58,0h-5" transform="translate(0,22.04)" style="stroke: rgb(68, 68, 68); stroke-opacity: 1; stroke-width: 1px;"/><g class="ytick"><text text-anchor="end" x="50.6" y="4.199999999999999" transform="translate(0,297)" style="font-family: 'FrontPage Pro'; font-size: 12px; fill: rgb(36, 36, 36); fill-opacity: 1; white-space: pre;">0</text></g><g class="ytick"><text text-anchor="end" x="50.6" y="4.199999999999999" style="font-family: 'FrontPage Pro'; font-size: 12px; fill: rgb(36, 36, 36); fill-opacity: 1; white-space: pre;" transform="translate(0,228.26)">50</text></g><g class="ytick"><text text-anchor="end" x="50.6" y="4.199999999999999" style="font-family: 'FrontPage Pro'; font-size: 12px; fill: rgb(36, 36, 36); fill-opacity: 1; white-space: pre;" transform="translate(0,159.52)">100</text></g><g class="ytick"><text text-anchor="end" x="50.6" y="4.199999999999999" style="font-family: 'FrontPage Pro'; font-size: 12px; fill: rgb(36, 36, 36); fill-opacity: 1; white-space: pre;" transform="translate(0,90.78)">150</text></g><g class="ytick"><text text-anchor="end" x="50.6" y="4.199999999999999" style="font-family: 'FrontPage Pro'; font-size: 12px; fill: rgb(36, 36, 36); fill-opacity: 1; white-space: pre;" transform="translate(0,22.04)">200</text></g></g><g class="overaxes-above"/></g></g><g class="polarlayer"/><g class="smithlayer"/><g class="ternarylayer"/><g class="geolayer"/><g class="funnelarealayer"/><g class="pielayer"/><g class="iciclelayer"/><g class="treemaplayer"/><g class="sunburstlayer"/><g class="glimages"/><defs id="topdefs-55e3dc"><g class="clips"/><clipPath id="legend55e3dc"><rect width="85" height="201" x="0" y="0"/></clipPath></defs><g class="layer-above"><g class="imagelayer"/><g class="shapelayer"/></g><g class="infolayer"><g class="legend" pointer-events="all" transform="translate(660,5)"><rect class="bg" shape-rendering="crispEdges" style="stroke: rgb(68, 68, 68); stroke-opacity: 1; fill: rgb(255, 255, 255); fill-opacity: 1; stroke-width: 0px;" width="85" height="201" x="0" y="0"/><g class="scrollbox" transform="" clip-path="url(#legend55e3dc)"><g class="groups" transform=""><g class="traces" transform="translate(0,14.950000000000001)" style="opacity: 1;"><text class="legendtext" text-anchor="start" x="5" y="5.07" style="font-family: 'FrontPage Pro'; font-size: 13px; fill: rgb(36, 36, 36); fill-opacity: 1; white-space: pre;">Messpunkte</text><g class="layers"><g class="legendfill"/><g class="legendlines"/><g class="legendsymbols"><g class="legendpoints"/></g></g><rect class="legendtoggle" x="0" y="-9.950000000000001" width="79.9189453125" height="19.900000000000002" style="fill: rgb(0, 0, 0); fill-opacity: 0;"/></g><g class="traces" transform="translate(0,34.400000000000006)" style="opacity: 1;"><text class="legendtext" text-anchor="start" x="40" y="4.680000000000001" style="font-family: 'FrontPage Pro'; font-size: 12px; fill: rgb(36, 36, 36); fill-opacity: 1; white-space: pre;">P1</text><g class="layers" style="opacity: 1;"><g class="legendfill"/><g class="legendlines"><path class="js-line" d="M5,0h30" style="fill: none; stroke: rgb(31, 119, 180); stroke-opacity: 1; stroke-width: 2px;"/></g><g class="legendsymbols"><g class="legendpoints"/></g></g><rect class="legendtoggle" x="0" y="-9.5" width="79.9189453125" height="19" style="fill: rgb(0, 0, 0); fill-opacity: 0;"/></g><g class="traces" transform="translate(0,53.400000000000006)" style="opacity: 1;"><text class="legendtext" text-anchor="start" x="40" y="4.680000000000001" style="font-family: 'FrontPage Pro'; font-size: 12px; fill: rgb(36, 36, 36); fill-opacity: 1; white-space: pre;">P2</text><g class="layers" style="opacity: 1;"><g class="legendfill"/><g class="legendlines"><path class="js-line" d="M5,0h30" style="fill: none; stroke: rgb(255, 127, 14); stroke-opacity: 1; stroke-width: 2px;"/></g><g class="legendsymbols"><g class="legendpoints"/></g></g><rect class="legendtoggle" x="0" y="-9.5" width="79.9189453125" height="19" style="fill: rgb(0, 0, 0); fill-opacity: 0;"/></g><g class="traces" transform="translate(0,72.4)" style="opacity: 1;"><text class="legendtext" text-anchor="start" x="40" y="4.680000000000001" style="font-family: 'FrontPage Pro'; font-size: 12px; fill: rgb(36, 36, 36); fill-opacity: 1; white-space: pre;">P3</text><g class="layers" style="opacity: 1;"><g class="legendfill"/><g class="legendlines"><path class="js-line" d="M5,0h30" style="fill: none; stroke: rgb(44, 160, 44); stroke-opacity: 1; stroke-width: 2px;"/></g><g class="legendsymbols"><g class="legendpoints"/></g></g><rect class="legendtoggle" x="0" y="-9.5" width="79.9189453125" height="19" style="fill: rgb(0, 0, 0); fill-opacity: 0;"/></g><g class="traces" transform="translate(0,91.4)" style="opacity: 1;"><text class="legendtext" text-anchor="start" x="40" y="4.680000000000001" style="font-family: 'FrontPage Pro'; font-size: 12px; fill: rgb(36, 36, 36); fill-opacity: 1; white-space: pre;">P4</text><g class="layers" style="opacity: 1;"><g class="legendfill"/><g class="legendlines"><path class="js-line" d="M5,0h30" style="fill: none; stroke: rgb(214, 39, 40); stroke-opacity: 1; stroke-width: 2px;"/></g><g class="legendsymbols"><g class="legendpoints"/></g></g><rect class="legendtoggle" x="0" y="-9.5" width="79.9189453125" height="19" style="fill: rgb(0, 0, 0); fill-opacity: 0;"/></g><g class="traces" transform="translate(0,110.4)" style="opacity: 1;"><text class="legendtext" text-anchor="start" x="40" y="4.680000000000001" style="font-family: 'FrontPage Pro'; font-size: 12px; fill: rgb(36, 36, 36); fill-opacity: 1; white-space: pre;">P5</text><g class="layers" style="opacity: 1;"><g class="legendfill"/><g class="legendlines"><path class="js-line" d="M5,0h30" style="fill: none; stroke: rgb(148, 103, 189); stroke-opacity: 1; stroke-width: 2px;"/></g><g class="legendsymbols"><g class="legendpoints"/></g></g><rect class="legendtoggle" x="0" y="-9.5" width="79.9189453125" height="19" style="fill: rgb(0, 0, 0); fill-opacity: 0;"/></g><g class="traces" transform="translate(0,129.4)" style="opacity: 1;"><text class="legendtext" text-anchor="start" x="40" y="4.680000000000001" style="font-family: 'FrontPage Pro'; font-size: 12px; fill: rgb(36, 36, 36); fill-opacity: 1; white-space: pre;">P6</text><g class="layers" style="opacity: 1;"><g class="legendfill"/><g class="legendlines"><path class="js-line" d="M5,0h30" style="fill: none; stroke: rgb(140, 86, 75); stroke-opacity: 1; stroke-width: 2px;"/></g><g class="legendsymbols"><g class="legendpoints"/></g></g><rect class="legendtoggle" x="0" y="-9.5" width="79.9189453125" height="19" style="fill: rgb(0, 0, 0); fill-opacity: 0;"/></g><g class="traces" transform="translate(0,148.4)" style="opacity: 1;"><text class="legendtext" text-anchor="start" x="40" y="4.680000000000001" style="font-family: 'FrontPage Pro'; font-size: 12px; fill: rgb(36, 36, 36); fill-opacity: 1; white-space: pre;">P7</text><g class="layers" style="opacity: 1;"><g class="legendfill"/><g class="legendlines"><path class="js-line" d="M5,0h30" style="fill: none; stroke: rgb(227, 119, 194); stroke-opacity: 1; stroke-width: 2px;"/></g><g class="legendsymbols"><g class="legendpoints"/></g></g><rect class="legendtoggle" x="0" y="-9.5" width="79.9189453125" height="19" style="fill: rgb(0, 0, 0); fill-opacity: 0;"/></g><g class="traces" transform="translate(0,167.4)" style="opacity: 1;"><text class="legendtext" text-anchor="start" x="40" y="4.680000000000001" style="font-family: 'FrontPage Pro'; font-size: 12px; fill: rgb(36, 36, 36); fill-opacity: 1; white-space: pre;">P8</text><g class="layers" style="opacity: 1;"><g class="legendfill"/><g class="legendlines"><path class="js-line" d="M5,0h30" style="fill: none; stroke: rgb(127, 127, 127); stroke-opacity: 1; stroke-width: 2px;"/></g><g class="legendsymbols"><g class="legendpoints"/></g></g><rect class="legendtoggle" x="0" y="-9.5" width="79.9189453125" height="19" style="fill: rgb(0, 0, 0); fill-opacity: 0;"/></g><g class="traces" transform="translate(0,186.4)" style="opacity: 1;"><text class="legendtext" text-anchor="start" x="40" y="4.680000000000001" style="font-family: 'FrontPage Pro'; font-size: 12px; fill: rgb(36, 36, 36); fill-opacity: 1; white-space: pre;">P9</text><g class="layers" style="opacity: 1;"><g class="legendfill"/><g class="legendlines"><path class="js-line" d="M5,0h30" style="fill: none; stroke: rgb(188, 189, 34); stroke-opacity: 1; stroke-width: 2px;"/></g><g class="legendsymbols"><g class="legendpoints"/></g></g><rect class="legendtoggle" x="0" y="-9.5" width="79.9189453125" height="19" style="fill: rgb(0, 0, 0); fill-opacity: 0;"/></g></g></g><rect class="scrollbar" rx="20" ry="3" width="0" height="0" style="fill: rgb(128, 139, 164); fill-opacity: 1;" x="0" y="0"/></g><g class="g-gtitle"/><g class="g-xtitle"><text class="xtitle" x="402" y="344.700390625" text-anchor="middle" style="opacity: 1; font-family: 'FrontPage Pro'; font-size: 14px; fill: rgb(36, 36, 36); fill-opacity: 1; white-space: pre;">Bild #</text></g><g class="g-ytitle" transform="translate(2.14453125,0)"><text class="ytitle" transform="rotate(-90,10.855859375000001,151)" x="10.855859375000001" y="151" text-anchor="middle" style="opacity: 1; font-family: 'FrontPage Pro'; font-size: 14px; fill: rgb(36, 36, 36); fill-opacity: 1; white-space: pre;">Gemessene Temperatur T in °C</text></g></g></svg>