<!-- <svg width="560" height="560" viewBox="0 0 560 560" fill="none" xmlns="http://www.w3.org/2000/svg"> -->
<svg width="560" height="400" viewBox="0 130 560 300" fill="none" xmlns="http://www.w3.org/2000/svg">
<path d="M111.127 343.063V334.403H95.2002V386.373H111.127V362.249C111.127 357.965 112.118 354.966 114.109 353.261C116.099 351.555 119.073 350.699 123.055 350.699H127.431V333.84C124.012 333.84 120.913 334.663 118.115 336.309C115.318 337.956 112.991 340.207 111.127 343.063Z" fill="#2ACEB0"/>
<path d="M138.476 311.766C135.679 311.766 133.402 312.589 131.63 314.235C129.858 315.882 128.976 317.948 128.976 320.426C128.976 322.904 129.858 324.878 131.63 326.524C133.402 328.171 135.679 328.994 138.476 328.994C141.273 328.994 143.457 328.171 145.23 326.524C147.002 324.878 147.884 322.845 147.884 320.426C147.884 318.007 147.002 315.882 145.23 314.235C143.457 312.589 141.206 311.766 138.476 311.766Z" fill="#2ACEB0"/>
<path d="M146.4 334.403H130.474V386.374H146.4V334.403Z" fill="#2ACEB0"/>
<path d="M190.257 341.57C188.644 339.15 186.418 337.227 183.595 335.799C180.773 334.371 177.648 333.657 174.238 333.657C169.954 333.657 166.073 334.74 162.595 336.916C159.118 339.092 156.371 342.191 154.355 346.232C152.339 350.272 151.331 354.959 151.331 360.293C151.331 365.627 152.339 370.34 154.355 374.405C156.371 378.471 159.118 381.604 162.595 383.813C166.073 386.014 169.954 387.123 174.238 387.123C177.9 387.123 181.117 386.375 183.881 384.888C186.645 383.402 188.77 381.411 190.265 378.924V386.375H206.191V317.453H190.265V341.578L190.257 341.57ZM186.947 369.794C184.746 372.087 182.058 373.238 178.891 373.238C175.725 373.238 173.037 372.07 170.836 369.743C168.635 367.416 167.526 364.266 167.526 360.293C167.526 356.32 168.627 353.204 170.836 350.936C173.037 348.668 175.725 347.534 178.891 347.534C182.058 347.534 184.746 348.684 186.947 350.978C189.148 353.279 190.257 356.412 190.257 360.386C190.257 364.359 189.156 367.492 186.947 369.794Z" fill="#2ACEB0"/>
<path d="M250.962 336.824C247.047 334.716 242.579 333.657 237.547 333.657C232.515 333.657 227.828 334.741 223.855 336.916C219.882 339.092 216.791 342.192 214.59 346.232C212.389 350.272 211.28 354.985 211.28 360.386C211.28 365.787 212.397 370.508 214.632 374.54C216.866 378.58 219.974 381.68 223.947 383.856C227.921 386.031 232.457 387.115 237.547 387.115C241.772 387.115 245.586 386.342 249.005 384.788C252.415 383.234 255.263 381.092 257.531 378.362C259.799 375.632 261.361 372.558 262.235 369.139H245.283C243.729 372.49 240.966 374.17 236.993 374.17C234.321 374.17 232.07 373.314 230.239 371.608C228.408 369.903 227.366 367.434 227.123 364.2H263.167C263.352 362.587 263.444 361.033 263.444 359.546C263.444 354.33 262.344 349.768 260.135 345.854C257.934 341.94 254.868 338.932 250.962 336.824ZM227.215 355.354C227.652 352.498 228.786 350.298 230.617 348.744C232.448 347.19 234.699 346.417 237.371 346.417C240.042 346.417 242.495 347.223 244.359 348.836C246.224 350.449 247.157 352.624 247.157 355.354H227.223H227.215Z" fill="#2ACEB0"/>
<path d="M319.701 371.38L310.855 334.403H293.997L285.244 371.565L277.885 334.403H261.959L276.113 386.374H293.627L302.094 352.657L310.293 386.374H327.899L341.961 334.403H326.967L319.701 371.38Z" fill="#2ACEB0"/>
<path d="M352.298 311.766C349.501 311.766 347.225 312.589 345.452 314.235C343.68 315.882 342.798 317.948 342.798 320.426C342.798 322.904 343.68 324.878 345.452 326.524C347.225 328.171 349.501 328.994 352.298 328.994C355.095 328.994 357.279 328.171 359.052 326.524C360.824 324.878 361.706 322.845 361.706 320.426C361.706 318.007 360.824 315.882 359.052 314.235C357.279 312.589 355.028 311.766 352.298 311.766Z" fill="#2ACEB0"/>
<path d="M360.212 334.403H344.285V386.374H360.212V334.403Z" fill="#2ACEB0"/>
<path d="M400.844 358.009C398.425 357.043 395.284 356.068 391.436 355.077C388.085 354.33 385.615 353.59 384.036 352.843C382.448 352.095 381.659 350.978 381.659 349.491C381.659 348.248 382.154 347.274 383.146 346.56C384.137 345.846 385.565 345.484 387.43 345.484C389.605 345.484 391.352 346.014 392.688 347.072C394.024 348.13 394.813 349.558 395.065 351.356H409.782C409.219 346.014 407.06 341.73 403.306 338.504C399.551 335.278 394.41 333.657 387.892 333.657C383.482 333.657 379.676 334.371 376.484 335.799C373.284 337.227 370.865 339.168 369.218 341.62C367.572 344.073 366.749 346.786 366.749 349.768C366.749 353.305 367.648 356.119 369.454 358.194C371.251 360.277 373.393 361.797 375.88 362.755C378.366 363.721 381.466 364.636 385.195 365.502C388.673 366.375 391.184 367.165 392.738 367.879C394.292 368.593 395.065 369.693 395.065 371.188C395.065 372.432 394.519 373.44 393.436 374.212C392.352 374.985 390.815 375.38 388.824 375.38C386.648 375.38 384.817 374.817 383.33 373.7C381.844 372.583 381.004 371.121 380.819 369.324H365.077C365.321 372.675 366.472 375.708 368.521 378.404C370.571 381.109 373.368 383.234 376.904 384.788C380.441 386.342 384.481 387.115 389.009 387.115C393.234 387.115 396.938 386.434 400.139 385.065C403.339 383.704 405.792 381.823 407.497 379.429C409.202 377.035 410.059 374.322 410.059 371.281C410 367.677 409.051 364.804 407.22 362.662C405.389 360.52 403.264 358.966 400.836 358L400.844 358.009Z" fill="#2ACEB0"/>
<path d="M464.798 359.546C464.798 354.33 463.697 349.768 461.488 345.854C459.287 341.94 456.221 338.932 452.315 336.824C448.401 334.716 443.932 333.657 438.901 333.657C433.869 333.657 429.182 334.741 425.209 336.916C421.235 339.092 418.144 342.192 415.943 346.232C413.743 350.272 412.634 354.985 412.634 360.386C412.634 365.787 413.751 370.508 415.985 374.54C418.22 378.58 421.328 381.68 425.301 383.856C429.274 386.031 433.81 387.115 438.901 387.115C443.126 387.115 446.939 386.342 450.358 384.788C453.769 383.234 456.616 381.092 458.884 378.362C461.152 375.632 462.715 372.558 463.588 369.139H446.637C445.083 372.49 442.319 374.17 438.346 374.17C435.675 374.17 433.424 373.314 431.593 371.608C429.761 369.903 428.72 367.434 428.476 364.2H464.521C464.705 362.587 464.798 361.033 464.798 359.546ZM428.569 355.354C429.005 352.498 430.139 350.298 431.971 348.744C433.802 347.19 436.053 346.417 438.724 346.417C441.395 346.417 443.848 347.223 445.713 348.836C447.578 350.449 448.51 352.624 448.51 355.354H428.577H428.569Z" fill="#2ACEB0"/>
<path d="M333.969 219.585C320.857 219.576 312.969 219.585 307.921 203.373L307.879 203.23C307.627 202.407 307.333 201.474 306.93 200.491C303.183 191.352 295.825 185.153 286.829 183.103V172.2H273.17V183.145C261.654 185.825 252.96 194.973 252.145 206.061C251.145 219.618 261.923 230.513 278.949 233.159C286.921 234.402 294.741 238.779 294.229 245.759C293.801 251.555 287.912 256.402 280.814 256.788C273.884 257.166 268.374 253.655 265.711 247.145C265.535 246.708 265.358 246.137 265.165 245.524L265.123 245.381C257.084 219.576 239.167 219.585 226.038 219.576H225.777V233.235H226.038C239.142 233.226 247.038 233.235 252.086 249.447L252.128 249.589C252.38 250.413 252.674 251.345 253.077 252.328C256.824 261.475 264.182 267.683 273.179 269.733V280.661H286.837V269.674C298.353 266.994 307.047 257.847 307.862 246.759C308.862 233.201 298.085 222.306 281.058 219.66C273.086 218.417 265.266 214.041 265.778 207.06C266.207 201.264 272.095 196.417 279.193 196.031C286.131 195.653 291.633 199.164 294.296 205.674C294.473 206.111 294.649 206.682 294.842 207.295L294.884 207.438C302.873 233.092 320.655 233.243 333.743 233.243H334.23V219.585H333.969Z" fill="#2ACEB0"/>
</svg>
