<svg class="main-svg" xmlns="http://www.w3.org/2000/svg" xmlns:xlink="http://www.w3.org/1999/xlink" width="750" height="350" style="" viewBox="0 0 750 350"><rect x="0" y="0" width="750" height="350" style="fill: rgb(255, 255, 255); fill-opacity: 1;"/><defs id="defs-15680b"><g class="clips"><clipPath id="clip15680bxyplot" class="plotclip"><rect width="686" height="292"/></clipPath><clipPath class="axesclip" id="clip15680bx"><rect x="59" y="0" width="686" height="350"/></clipPath><clipPath class="axesclip" id="clip15680by"><rect x="0" y="5" width="750" height="292"/></clipPath><clipPath class="axesclip" id="clip15680bxy"><rect x="59" y="5" width="686" height="292"/></clipPath></g><g class="gradients"/><g class="patterns"/></defs><g class="bglayer"/><g class="layer-below"><g class="imagelayer"/><g class="shapelayer"/></g><g class="cartesianlayer"><g class="subplot xy"><g class="layer-subplot"><g class="shapelayer"/><g class="imagelayer"/></g><g class="minor-gridlayer"><g class="x"><path class="xgrid crisp" transform="translate(104.84,0)" d="M0,5v292" style="stroke: rgb(211, 211, 211); stroke-opacity: 1; stroke-dasharray: 3px, 3px; stroke-width: 1px;"/><path class="xgrid crisp" transform="translate(196.53,0)" d="M0,5v292" style="stroke: rgb(211, 211, 211); stroke-opacity: 1; stroke-dasharray: 3px, 3px; stroke-width: 1px;"/><path class="xgrid crisp" transform="translate(288.22,0)" d="M0,5v292" style="stroke: rgb(211, 211, 211); stroke-opacity: 1; stroke-dasharray: 3px, 3px; stroke-width: 1px;"/><path class="xgrid crisp" transform="translate(379.9,0)" d="M0,5v292" style="stroke: rgb(211, 211, 211); stroke-opacity: 1; stroke-dasharray: 3px, 3px; stroke-width: 1px;"/><path class="xgrid crisp" transform="translate(471.59,0)" d="M0,5v292" style="stroke: rgb(211, 211, 211); stroke-opacity: 1; stroke-dasharray: 3px, 3px; stroke-width: 1px;"/><path class="xgrid crisp" transform="translate(563.28,0)" d="M0,5v292" style="stroke: rgb(211, 211, 211); stroke-opacity: 1; stroke-dasharray: 3px, 3px; stroke-width: 1px;"/><path class="xgrid crisp" transform="translate(654.96,0)" d="M0,5v292" style="stroke: rgb(211, 211, 211); stroke-opacity: 1; stroke-dasharray: 3px, 3px; stroke-width: 1px;"/></g><g class="y"/></g><g class="gridlayer"><g class="x"><path class="xgrid crisp" transform="translate(150.69,0)" d="M0,5v292" style="stroke: rgb(211, 211, 211); stroke-opacity: 1; stroke-width: 1px;"/><path class="xgrid crisp" transform="translate(242.37,0)" d="M0,5v292" style="stroke: rgb(211, 211, 211); stroke-opacity: 1; stroke-width: 1px;"/><path class="xgrid crisp" transform="translate(334.06,0)" d="M0,5v292" style="stroke: rgb(211, 211, 211); stroke-opacity: 1; stroke-width: 1px;"/><path class="xgrid crisp" transform="translate(425.75,0)" d="M0,5v292" style="stroke: rgb(211, 211, 211); stroke-opacity: 1; stroke-width: 1px;"/><path class="xgrid crisp" transform="translate(517.4300000000001,0)" d="M0,5v292" style="stroke: rgb(211, 211, 211); stroke-opacity: 1; stroke-width: 1px;"/><path class="xgrid crisp" transform="translate(609.12,0)" d="M0,5v292" style="stroke: rgb(211, 211, 211); stroke-opacity: 1; stroke-width: 1px;"/><path class="xgrid crisp" transform="translate(700.81,0)" d="M0,5v292" style="stroke: rgb(211, 211, 211); stroke-opacity: 1; stroke-width: 1px;"/></g><g class="y"><path class="ygrid crisp" transform="translate(0,229.86)" d="M59,0h686" style="stroke: rgb(211, 211, 211); stroke-opacity: 1; stroke-width: 1px;"/><path class="ygrid crisp" transform="translate(0,162.72)" d="M59,0h686" style="stroke: rgb(211, 211, 211); stroke-opacity: 1; stroke-width: 1px;"/><path class="ygrid crisp" transform="translate(0,95.58)" d="M59,0h686" style="stroke: rgb(211, 211, 211); stroke-opacity: 1; stroke-width: 1px;"/><path class="ygrid crisp" transform="translate(0,28.44)" d="M59,0h686" style="stroke: rgb(211, 211, 211); stroke-opacity: 1; stroke-width: 1px;"/></g></g><g class="zerolinelayer"/><g class="layer-between"><g class="shapelayer"/><g class="imagelayer"/></g><path class="xlines-below"/><path class="ylines-below"/><g class="overlines-below"/><g class="xaxislayer-below"/><g class="yaxislayer-below"/><g class="overaxes-below"/><g class="overplot"><g class="xy" transform="translate(59,5)" clip-path="url(#clip15680bxyplot)"><g class="scatterlayer mlayer"><g class="trace scatter trace13c8a9" style="stroke-miterlimit: 2; opacity: 1;"><g class="fills"/><g class="errorbars"/><g class="lines"><path class="js-line" d="M0,204.09L3.48,203.54L3.67,203.22L4.03,200.78L4.22,194.5L5.32,20.4L5.68,23.76L5.87,22.43L6.05,19.89L6.42,21.95L6.6,23.67L8.07,35.29L8.25,35.52L9.9,43.79L10.09,44.15L25.12,110.51L25.31,111.08L28.24,120.17L28.42,120.53L32.82,133.14L33.01,133.67L39.98,149.04L40.16,149.33L42.91,153.98L43.09,154.22L45.48,158.09L45.66,158.45L47.13,160.95L47.31,161.47L56.3,172.47L56.48,172.58L57.76,173.7L57.95,173.91L59.23,175.52L59.41,176.17L59.78,176.27L59.96,176.82L62.53,180.33L62.71,180.2L62.9,179.98L63.26,180.48L63.45,181.18L64.18,181.73L64.36,182.16L65.83,183.86L66.01,184.14L66.75,183.89L66.93,184.22L67.11,184.2L68.03,184.39L68.21,184.36L70.05,184.3L70.23,184.17L73.53,184.5L73.72,184.4L75.73,183.76L75.92,183.8L76.1,184.13L76.65,183.65L76.83,183.86L77.93,184.39L78.12,184.17L79.95,184.29L80.13,184.15L81.78,184.45L81.97,184.22L83.07,184.26L83.25,184.2L84.17,184.41L84.35,184.19L85.45,184.53L85.64,184.53L86.19,184.57L86.37,184.84L89.67,184.36L89.85,184.18L91.32,183.97L91.5,183.88L93.89,183.78L94.07,183.66L95.17,183.69L95.35,183.84L97.37,184.38L97.55,184.34L103.42,185.9L103.61,185.92L104.71,186.3L104.89,186.32L105.62,186.79L105.81,186.65L105.99,186.76L107.82,187.11L108.01,187.04L112.96,188.2L113.14,188.2L114.79,188.29L114.98,188.3L116.08,188.51L116.26,188.59L117.36,188.93L117.54,188.95L118.83,189.12L119.01,189.37L123.41,190.22L123.59,190.42L125.61,191.69L125.79,191.74L126.71,191.89L126.89,192.02L128.18,193.24L128.36,193.1L129.46,193.14L129.65,193.08L131.48,193.39L131.66,193.64L132.76,193.75L132.95,193.86L133.86,193.91L134.05,194.07L135.15,194.17L135.33,194.36L137.53,194.19L137.71,194.33L139.36,194.7L139.55,194.88L140.46,194.59L140.65,194.65L142.11,195.37L142.3,195.71L143.76,196.46L143.95,196.64L154.95,197.79L155.13,197.57L156.05,197.76L156.23,197.65L183.01,200.69L183.19,200.85L191.44,201.86L191.63,202.06L193.83,202L194.01,202.16L195.11,202.04L195.29,202.01L196.58,202.09L196.76,202.02L203.18,202.34L203.36,202.34L204.28,202.34L204.46,202.17L209.23,203.54L209.41,203.48L210.15,203.94L210.33,203.65L210.51,203.63L212.53,203.92L212.71,203.79L213.81,204.32L214,204.24L215.28,204.02L215.46,204.13L216.01,204.36L216.2,204.08L216.38,203.89L217.3,203.86L217.48,204.12L218.76,204.2L218.95,204.35L220.05,204.4L220.23,204.64L221.33,204.66L221.52,204.73L222.98,204.84L223.17,204.7L223.9,205.12L224.08,204.93L224.82,205.36L225,205.19L225.18,204.92L226.28,205.38L226.47,205.32L228.12,205.37L228.3,205.65L229.77,205.66L229.95,205.79L231.42,205.72L231.6,205.71L232.7,205.78L232.88,205.8L234.17,205.76L234.35,205.62L238.02,206.16L238.2,205.93L242.42,206.34L242.6,206.25L244.8,206.32L244.99,206.25L247.19,207.05L247.37,206.69L249.02,207.11L249.2,207.15L250.67,207.1L250.85,206.98L251.96,207.17L252.14,207.29L253.79,207.47L253.97,207.32L255.26,207.45L255.44,207.72L264.61,207.55L264.79,207.69L266.99,207.14L267.18,207.24L273.96,207.7L274.14,207.53L275.06,207.53L275.24,207.51L290.83,209.04L291.01,208.84L292.11,209.02L292.3,208.94L293.76,209.19L293.95,209.25L299.82,209.25L300,209.34L315.4,209.97L315.59,210.07L322.92,209.88L323.1,210.1L323.84,209.91L324.02,209.89L325.67,210.14L325.85,210.26L326.95,210.21L327.14,210.27L328.61,210.03L328.79,210.05L330.26,210.25L330.44,210.24L331.36,210.4L331.54,210.1L332.82,210.29L333.01,210.05L333.92,209.96L334.11,210.06L335.02,209.76L335.21,210.08L335.76,210.16L335.94,210.45L336.12,210.35L337.04,210.35L337.22,210.56L339.79,210.65L339.97,210.87L341.26,210.54L341.44,210.44L342.72,210.46L342.91,210.52L344.74,210.27L344.93,210L346.76,210.19L346.94,210.02L349.88,210.27L350.06,209.99L359.96,210.5L360.15,210.71L361.8,210.34L361.98,210.53L362.9,210.33L363.08,210.6L364.36,210.84L364.55,210.67L366.75,211.13L366.93,210.85L367.85,210.97L368.03,211.01L369.31,210.91L369.5,211.11L370.78,210.9L370.96,210.88L375.18,211.09L375.37,211.18L377.38,211.33L377.57,211.41L381.23,211.46L381.42,211.66L383.07,211.15L383.25,211.1L385.63,211.36L385.82,211.38L386.92,211.19L387.1,211.35L389.85,211.14L390.04,211.11L391.14,211.36L391.32,211.35L392.6,211.16L392.79,211.28L394.99,211.86L395.17,211.81L396.45,211.81L396.64,212L397.55,211.63L397.74,211.91L399.02,211.78L399.2,211.69L400.12,211.69L400.3,211.78L401.59,211.83L401.77,211.76L404.16,211.72L404.34,211.67L405.07,211.79L405.26,211.77L406.72,211.52L406.91,211.62L407.82,211.53L408.01,211.25L413.69,211.45L413.87,211.27L416.62,211.93L416.81,211.7L417.72,211.9L417.91,212.04L418.64,211.91L418.82,212.13L419.01,212.06L420.48,211.51L420.66,211.65L421.94,210.95L422.13,211.12L425.61,211.52L425.79,211.26L426.89,211.42L427.08,211.38L428.73,211.63L428.91,211.63L431.48,211.47L431.66,211.76L432.21,211.22L432.58,211.47L432.76,211.69L434.6,211.34L434.78,211.43L441.01,211.53L441.2,211.35L442.3,211.21L442.48,211.3L451.1,211.74L451.28,211.95L452.2,211.87L452.38,211.98L454.77,212.01L454.95,212.2L456.6,212.11L456.78,212.06L458.07,211.81L458.25,211.75L459.35,211.86L459.53,211.88L460.82,211.82L461,212.06L464.48,212.03L464.67,212.03L471.09,212.3L471.27,212.04L472.19,212.08L472.37,212.03L473.65,211.98L473.84,211.9L474.94,211.92L475.12,211.83L476.95,211.66L477.14,211.66L478.97,212.05L479.15,211.7L480.81,211.85L480.99,211.87L482.82,211.74L483.01,211.74L484.66,211.63L484.84,211.52L485.21,211.97L485.57,211.71L485.76,211.51L486.49,211.93L486.67,211.58L486.86,211.61L488.51,211.47L488.69,211.68L490.52,211.2L490.71,211.24L493.64,211.5L493.82,211.4L500.61,212.1L500.79,212.19L502.44,212L502.63,212.15L505.74,212.34L505.93,212.21L507.03,212.49L507.21,212.36L509.41,212.38L509.59,212.31L510.14,212.71L510.33,213.08L516.38,212.33L516.56,212.28L518.95,212.47L519.13,212.39L522.61,212.22L522.8,211.95L524.08,212.3L524.26,212.1L538.57,211.82L538.75,212.11L539.3,211.84L539.48,211.93L539.67,211.96L540.58,211.62L540.77,211.89L542.42,211.53L542.6,211.42L544.07,211.88L544.25,211.79L544.99,212.02L545.17,211.81L545.35,211.81L548.1,211.96L548.29,211.95L549.2,212.08L549.39,212.26L550.67,212.04L550.85,212.4L551.95,212.76L552.14,212.45L552.32,212.23L553.05,212.79L553.42,212.36L553.6,212.41L554.7,212.62L554.89,212.55L555.99,212.64L556.17,212.49L556.91,212.65L557.09,212.61L558.56,212.4L558.74,212.49L560.02,212.06L560.21,211.94L564.06,212.31L564.24,212.12L565.52,212.18L565.71,212.24L566.99,212.81L567.17,212.72L568.64,212.9L568.82,212.65L570.47,212.32L570.66,212.4L571.39,212.59L571.57,212.58L576.34,212.16L576.53,212.29L577.08,212.24L577.26,212.6L577.44,212.6L578.54,212.41L578.73,212.64L579.64,212.7L579.83,212.77L581.84,212.93L582.03,212.62L582.94,212.75L583.13,212.82L583.86,212.78L584.04,213.03L590.83,213.17L591.01,213.46L591.93,213.25L592.11,213.37L597.98,213.66L598.16,213.38L600.55,213.23L600.73,213.09L601.83,213.17L602.01,213.2L603.3,213.45L603.48,213.23L605.87,212.7L606.05,212.79L606.97,212.65L607.15,212.75L608.62,212.53L608.8,212.76L611.18,213.28L611.37,213.06L615.4,213.13L615.58,212.97L634.29,213.91L634.47,213.74L655.74,214.18L655.93,214.43L656.84,214.4L657.03,214.45L658.13,214.66L658.31,214.46L659.23,214.71L659.41,214.67L660.69,214.91L660.88,214.96L663.26,214.86L663.45,214.9L665.1,214.65L665.28,214.73L666.75,214.59L666.93,214.6L668.03,214.15L668.21,214.22L671.15,214.48L671.33,214.72L677.2,214.46L677.38,214.5L686,214.71" style="vector-effect: none; fill: none; stroke: rgb(31, 119, 180); stroke-opacity: 1; stroke-width: 2px; opacity: 1;"/></g><g class="points"/><g class="text"/></g><g class="trace scatter trace331ee9" style="stroke-miterlimit: 2; opacity: 1;"><g class="fills"/><g class="errorbars"/><g class="lines"><path class="js-line" d="M0,159.49L1.28,161.12L1.47,162.73L2.38,201.97L2.75,201.25L2.93,200.56L3.3,198.54L3.48,197.08L3.85,194.52L4.22,196.03L4.4,198.03L5.68,205.67L5.87,205.39L6.42,202.48L6.6,199.91L8.25,165.26L8.62,165.42L8.8,165.44L9.9,165.89L10.09,166.27L12.1,167.65L12.29,167.61L13.57,169.33L13.75,169.93L15.22,171.36L15.4,171.33L17.79,173.76L17.97,173.87L19.07,174.63L19.25,174.91L23.11,176.94L23.29,177.52L24.94,177.95L25.12,177.6L26.77,176.75L26.96,175.91L28.24,172.38L28.42,172.53L28.61,172.55L29.89,173.27L30.07,173.46L30.81,173.46L30.99,173.96L31.91,173.82L32.09,173.79L33.37,173.2L33.56,173.52L33.74,173.44L35.02,173.21L35.21,173L38.33,172.97L38.51,172.92L39.24,172.63L39.43,172.76L39.61,172.77L40.53,172.66L40.71,172.75L52.81,172.2L52.99,172.75L58.86,172.84L59.05,172.88L61.43,173.2L61.61,173.22L62.9,173.44L63.08,173.56L64.36,173.34L64.55,173.45L65.65,173.24L65.83,173.21L66.2,172.53L66.38,171.43L66.75,136.08L66.93,83.82L67.66,19.49L67.85,24.68L68.03,26.19L68.58,21.66L68.77,21.95L68.95,23.55L70.42,33.63L70.6,34.81L71.88,43.06L72.07,43.01L72.25,43.48L75.55,57.99L75.73,58.61L78.48,72.06L78.67,72.81L82.33,89.35L82.52,89.82L92.97,122.34L93.15,122.74L101.59,142.82L101.77,142.89L102.51,143.98L102.69,144.51L106.72,151.32L106.91,151.53L108.37,153.25L108.56,153.77L119.74,168.1L119.93,168.26L127.44,176.5L127.63,177.01L130.2,177.23L130.38,177.41L131.85,177.83L132.03,177.72L133.31,177.99L133.5,177.86L134.6,178.66L134.78,178.48L137.71,178.7L137.9,179.2L138.26,179.08L138.63,179.39L138.81,179.43L140.46,178.96L140.65,179.21L141.56,179.1L141.75,178.95L142.85,179.85L143.03,179.92L143.76,179.99L143.95,180.16L145.6,180.38L145.78,180.38L146.88,180.55L147.07,180.42L150.55,180.66L150.73,180.69L152.57,181.29L152.75,181.39L153.85,181.46L154.03,181.28L155.68,181.6L155.87,181.43L157.7,181.91L157.88,181.84L159.35,182.11L159.53,182.11L161.37,182.85L161.55,182.74L162.65,183.04L162.84,182.96L164.3,183.29L164.49,183.45L166.14,183.98L166.32,184.01L168.52,184.48L168.7,184.44L169.62,184.64L169.8,184.71L171.09,185.17L171.27,185.34L183.56,189.02L183.74,188.97L190.34,190.73L190.52,190.58L191.99,191.05L192.18,190.95L194.01,191.51L194.19,191.62L195.29,191.63L195.48,191.53L196.58,191.77L196.76,191.8L198.23,191.81L198.41,191.96L204.09,193.37L204.28,193.38L206.48,194.27L206.66,194.41L209.41,195.51L209.6,195.47L210.88,195.91L211.06,195.83L212.16,196.25L212.35,196.22L213.63,196.88L213.81,196.88L214.73,196.87L214.91,196.97L216.2,197.07L216.38,196.98L217.11,197.25L217.3,197.22L219.13,197.86L219.31,197.83L225,199.44L225.18,199.35L228.85,200.23L229.03,200.15L230.68,200.83L230.87,200.63L231.97,201.18L232.15,200.96L232.33,200.96L238.94,201.91L239.12,202.11L240.22,202.07L240.4,202.39L242.24,202.53L242.42,202.67L247,203.53L247.19,203.72L248.1,203.78L248.29,203.95L249.57,203.94L249.75,203.96L252.14,204.07L252.32,204.26L253.24,204.26L253.42,204.27L254.71,204.12L254.89,204.12L256.36,204.13L256.54,204.02L262.04,204.63L262.22,204.48L264.06,205.02L264.24,204.89L265.52,205.09L265.71,205.08L266.81,205.11L266.99,205.11L269.19,205.68L269.38,205.63L273.78,206.42L273.96,206.1L276.34,207.03L276.53,206.89L278.36,207L278.54,207.04L280.19,207.29L280.38,207.23L281.48,207.53L281.66,207.63L282.58,208.04L282.76,208.05L283.86,208.22L284.05,208.32L287.9,208.88L288.08,208.72L289.91,209.05L290.1,208.95L291.38,209.09L291.56,209.36L294.31,209.69L294.5,209.6L296.15,209.67L296.33,209.72L298.53,209.9L298.72,209.96L299.82,210.19L300,210.46L300.73,210.41L300.92,210.42L309.9,211.24L310.08,211.17L311,211.46L311.18,211.09L314.85,211.43L315.04,211.49L318.15,211.58L318.34,211.44L319.8,211.56L319.99,211.83L321.64,211.91L321.82,211.91L323.1,212.07L323.29,212.24L325.12,212.18L325.3,212.21L326.4,212.41L326.59,212.5L349.88,213.63L350.06,213.26L351.53,213.61L351.71,213.35L352.81,213.48L352.99,213.57L355.74,213.69L355.93,213.61L357.21,214.1L357.39,213.93L358.31,214.1L358.5,213.96L360.15,214.51L360.33,214.34L362.16,214.42L362.35,214.46L363.81,214.41L364,214.72L365.1,214.74L365.28,214.75L366.75,214.94L366.93,214.91L371.15,214.91L371.33,215.06L372.61,215.25L372.8,215.39L373.72,215.34L373.9,215.34L374.82,215.28L375,215.16L376.1,215.33L376.28,215.28L377.38,215.68L377.57,215.47L394.99,216.79L395.17,216.94L395.35,216.52L395.9,216.85L396.09,216.82L399.02,216.86L399.2,216.64L400.67,217.03L400.85,217L404.16,217.08L404.34,216.82L406.36,216.65L406.54,216.79L414.42,216.91L414.61,217.04L421.21,216.88L421.39,216.77L422.31,216.84L422.49,217.06L423.41,216.92L423.59,216.95L425.98,217.1L426.16,217L427.99,217.41L428.18,217.43L429.28,217.49L429.46,217.4L431.66,217.69L431.84,217.54L433.31,217.47L433.49,217.65L434.6,217.43L434.78,217.28L435.88,217.47L436.06,217.38L449.82,217.76L450,218.03L450.92,217.89L451.1,217.96L453.3,218.28L453.48,218.05L460.45,218.3L460.63,218.5L461.55,218.15L461.73,218.35L461.92,218.39L464.48,218.39L464.67,218.29L467.79,218.76L467.97,218.75L469.07,218.56L469.25,218.71L470.17,218.47L470.35,218.77L470.54,218.8L472.37,218.6L472.55,218.61L473.65,218.58L473.84,218.52L475.3,218.45L475.49,218.44L477.69,218.39L477.87,218.3L479.15,218.59L479.34,218.58L483.74,218.77L483.92,218.86L485.94,218.8L486.12,218.95L486.67,218.88L486.86,218.69L487.04,218.67L488.69,218.77L488.87,218.64L490.16,218.46L490.34,218.21L491.26,218.8L491.44,218.74L492.36,218.48L492.54,218.75L493.64,218.7L493.82,218.75L504.28,219.29L504.46,219.48L505.01,219.16L505.19,219.39L505.38,219.38L507.94,219.2L508.13,219.41L509.04,219.3L509.23,219.34L518.03,219.3L518.21,219.41L520.23,219.41L520.41,219.41L522.98,219.45L523.16,219.29L524.26,219.31L524.45,219.26L526.1,219.55L526.28,219.32L527.38,219.52L527.57,219.41L528.85,219.39L529.03,219.5L529.58,219.23L529.77,219.49L529.95,219.6L533.43,219.19L533.62,219.46L536,219.51L536.18,219.59L540.58,219.19L540.77,219.24L541.69,219.4L541.87,219.2L550.85,219.61L551.04,219.9L552.32,219.55L552.5,219.72L554.15,219.9L554.34,219.77L555.44,219.81L555.62,219.72L557.82,220.08L558.01,219.93L560.21,219.73L560.39,219.94L561.67,219.97L561.86,219.99L563.32,219.96L563.51,220.08L568.27,220.49L568.46,220.36L569.92,220.07L570.11,219.96L571.57,220.22L571.76,220.15L572.86,219.98L573.04,220.09L578.73,220.43L578.91,220.69L579.83,220.7L580.01,220.76L589.73,220.65L589.91,220.9L591.56,221.17L591.75,221.13L593.03,221.13L593.21,221.12L597.98,221.25L598.16,220.91L599.26,221.23L599.45,221.31L603.48,220.9L603.67,220.76L604.22,221.06L604.4,220.9L604.58,220.82L612.47,220.82L612.65,220.96L620.54,221.29L620.72,221.04L622.74,221.39L622.92,221.29L623.84,221.27L624.02,221.55L630.99,221.98L631.17,222.22L632.27,221.95L632.45,222L635.39,221.98L635.57,221.76L636.49,221.92L636.67,221.99L637.41,221.79L637.59,221.95L637.77,222.02L639.42,221.74L639.61,221.84L640.89,222L641.07,221.97L642.17,221.99L642.36,222.07L644.37,222.13L644.56,221.89L648.23,222.41L648.41,222.34L649.69,222.14L649.88,222.38L657.76,222.58L657.94,222.69L667.11,222.86L667.3,222.64L668.95,222.54L669.13,222.86L671.15,222.71L671.33,222.85L672.61,222.63L672.8,222.69L673.9,222.7L674.08,222.75L675.73,222.48L675.91,222.79L677.01,222.66L677.2,222.68L686,223.03" style="vector-effect: none; fill: none; stroke: rgb(255, 127, 14); stroke-opacity: 1; stroke-width: 2px; opacity: 1;"/></g><g class="points"/><g class="text"/></g><g class="trace scatter trace25f7aa" style="stroke-miterlimit: 2; opacity: 1;"><g class="fills"/><g class="errorbars"/><g class="lines"><path class="js-line" d="M0,214.57L0.92,214.63L1.1,214.3L1.65,201.08L1.83,185.68L2.2,172.72L2.57,176.29L2.75,178.85L2.93,178.99L3.12,178.46L3.3,175.51L4.03,166.98L4.4,167.14L4.58,167.57L6.05,179.19L6.23,180.37L7.7,190.75L7.89,199.74L8.8,213.9L8.99,213.94L14.85,213.91L15.04,214.09L24.94,213.33L25.12,213.23L25.49,211.86L25.67,208.96L26.04,166.25L26.22,114.35L26.77,26.18L27.14,45.89L27.32,85.03L27.87,162.85L28.24,150.29L28.42,140.35L30.44,72.25L30.62,70.48L32.09,62.4L32.27,61.24L33.01,59.83L33.19,59.4L34.29,57.83L34.47,57.81L37.22,66.3L37.41,67.03L39.61,77.75L39.79,78.98L44.19,98.04L44.38,98.65L47.13,107.38L47.31,108.27L50.61,116.46L50.79,116.74L54.1,125.79L54.28,126.47L56.3,132.34L56.48,132.67L57.95,136.2L58.13,136.77L63.81,150.5L64,160.12L64.73,192.28L64.91,192.18L65.1,192L66.2,186.06L66.38,186.39L66.56,188.66L68.03,202.14L68.21,202.12L68.4,202.22L68.58,201.68L68.77,200.26L69.5,182.46L69.68,174.71L70.78,157.48L70.97,157.53L75.73,161.03L75.92,161.53L78.3,164.66L78.48,164.77L80.87,168.17L81.05,168.38L82.15,169.31L82.33,169.4L83.43,170.13L83.62,170.2L84.72,170.23L84.9,170.25L86.74,171.19L86.92,170.89L88.02,169.07L88.2,169.27L88.39,169.46L89.12,166.93L89.3,165.77L90.22,161.97L90.59,162.03L90.77,162.04L92.24,165.04L92.42,164.96L93.34,164.59L93.52,165.13L95.9,164.18L96.09,164.41L98.47,163.45L98.65,163.08L99.94,162.95L100.12,162.83L101.77,163.01L101.96,163.05L103.42,163.46L103.61,163.89L104.34,163.94L104.52,164.04L104.89,164.64L105.26,164.11L105.44,164.02L108.92,164.87L109.11,164.92L110.57,165.28L110.76,165.32L112.59,166.2L112.77,166.31L117.36,167.85L117.54,168.04L119.01,168.75L119.19,168.74L119.74,169.23L119.93,169.4L122.13,171.04L122.31,170.86L123.96,171.24L124.14,171.4L128.36,172.83L128.54,172.38L128.91,166.41L129.09,139.6L130.01,16.57L130.2,19.21L130.38,23.49L130.56,24.81L130.75,21.79L130.93,20.67L131.11,20.91L131.3,22.97L132.95,34.91L133.13,35.75L133.86,38.79L134.05,40.8L134.78,43.3L134.96,44.03L136.06,49.04L136.25,49.8L140.65,72.3L140.83,72.71L148.35,104.35L148.53,104.91L152.93,117.81L153.12,118.25L155.32,123.75L155.5,124.13L156.78,127.28L156.97,127.89L163.75,141.86L163.94,142.21L165.04,143.8L165.22,144.08L168.52,149.68L168.7,149.72L170.54,152.62L170.72,152.69L173.47,156.8L173.65,157.04L178.06,162.83L178.24,163.09L178.97,163.78L179.16,164L183.74,168.44L183.92,168.59L187.04,171.68L187.22,171.7L190.89,175.52L191.08,175.2L191.26,175.32L194.38,175.85L194.56,176.24L195.48,176.23L195.66,176.18L197.49,176.29L197.68,176.21L200.06,176.32L200.24,176.65L200.61,176.49L200.98,176.84L201.16,176.77L202.08,176.8L202.26,176.75L203.73,177.1L203.91,177.24L205.01,177.49L205.19,177.68L206.66,177.57L206.85,177.94L207.58,178.2L207.76,178.28L208.86,178.36L209.05,178.1L210.33,178.53L210.51,178.43L214,179.01L214.18,178.94L218.21,179.54L218.4,179.5L219.86,179.95L220.05,179.76L222.25,180.4L222.43,180.4L223.53,180.93L223.72,180.87L224.82,181.22L225,181.16L227.57,182.06L227.75,181.76L229.22,182.37L229.4,182.4L236.55,184.35L236.74,184.31L238.02,184.82L238.2,184.94L241.32,185.72L241.5,185.89L244.25,186.67L244.44,186.66L245.54,187L245.72,187.24L246.45,187.27L246.64,187.42L250.12,188.4L250.3,188.41L252.14,188.84L252.32,189.29L253.06,189.08L253.24,188.93L255.07,189.19L255.26,189.05L259.29,189.72L259.47,190.19L260.57,190.41L260.76,190.5L263.87,191.52L264.06,191.91L264.79,191.94L264.97,192.07L266.44,192.39L266.62,192.45L267.54,192.6L267.73,192.97L272.86,194.33L273.04,194.27L273.78,194.63L273.96,194.51L274.14,194.55L275.06,194.87L275.24,195.04L276.34,195.25L276.53,195.41L277.81,195.39L277.99,195.58L281.84,196.62L282.03,196.57L284.05,197.58L284.23,197.42L290.46,198.72L290.65,198.69L293.21,199.45L293.4,199.41L294.31,199.47L294.5,199.69L297.62,200.33L297.8,200.24L301.28,200.99L301.47,200.85L303.67,201.8L303.85,201.64L304.77,201.91L304.95,201.85L306.05,202.1L306.23,202.22L307.33,202.12L307.52,202.28L308.62,202.4L308.8,202.51L310.27,202.71L310.45,202.7L311.37,202.66L311.55,202.65L313.39,202.91L313.57,203.07L314.49,202.99L314.67,203.1L327.69,205.3L327.87,205.67L328.61,205.67L328.79,205.89L330.07,205.88L330.26,205.9L335.02,206.46L335.21,206.48L337.77,207.28L337.96,207.3L338.87,207.29L339.06,207.61L339.97,207.48L340.16,207.69L341.44,207.58L341.62,207.56L350.06,208.46L350.24,208.37L356.66,209.3L356.84,209.54L358.86,209.85L359.05,209.93L360.15,210.08L360.33,210.27L361.43,210.21L361.61,210.29L363.08,210.4L363.26,210.57L366.38,210.83L366.56,211.14L367.66,210.92L367.85,211.09L369.5,211.09L369.68,211.09L379.77,212.13L379.95,211.99L383.07,212.6L383.25,212.36L384.53,212.56L384.72,212.47L386.55,213.14L386.73,212.95L387.83,213.05L388.02,213.01L389.67,213.18L389.85,213.5L390.77,213.21L390.95,213.43L391.14,213.45L392.24,213.54L392.42,213.39L394.99,213.92L395.17,213.9L396.45,213.99L396.64,213.95L407.27,214.67L407.46,214.79L408.74,214.54L408.92,214.55L411.31,214.68L411.49,214.83L417.54,215.38L417.72,215.5L419.01,215.55L419.19,215.69L425.79,215.65L425.98,215.78L427.63,215.83L427.81,216.03L431.84,216.3L432.03,216.13L434.96,216.32L435.15,216.27L439.73,216.69L439.91,216.52L441.75,216.85L441.93,216.7L442.85,216.77L443.03,216.84L447.06,217.03L447.25,217.05L449.45,217.28L449.63,217.17L451.28,217.56L451.47,217.49L453.3,217.79L453.48,217.65L454.58,217.68L454.77,217.73L455.68,218.03L455.87,218.19L457.33,217.89L457.52,217.95L458.8,217.9L458.98,217.94L460.45,217.79L460.63,217.99L461.92,217.79L462.1,217.76L465.4,218.08L465.59,218.16L468.7,218.64L468.89,218.44L472.74,218.65L472.92,218.48L474.94,218.56L475.12,218.61L476.04,218.57L476.22,218.55L484.29,219.39L484.47,219.25L486.86,219.47L487.04,219.49L488.32,219.42L488.51,219.52L489.79,219.19L489.97,219.2L492.17,219.69L492.36,219.53L504.09,220.05L504.28,219.81L505.74,219.96L505.93,219.9L507.21,220.07L507.39,220.07L511.61,220.15L511.8,219.94L513.81,220.06L514,220.1L531.23,220.6L531.42,220.56L533.25,220.69L533.43,220.62L534.53,220.95L534.72,220.79L536.55,220.85L536.73,221.05L538.2,220.73L538.38,220.74L539.48,220.71L539.67,220.66L541.69,220.78L541.87,220.69L543.15,220.83L543.34,220.84L543.89,220.96L544.07,220.83L544.25,220.85L547.55,221.02L547.74,220.94L557.46,221.37L557.64,221.3L559.29,221.51L559.47,221.53L561.49,221.58L561.67,221.51L562.96,221.57L563.14,221.41L564.24,221.57L564.42,221.51L566.62,221.62L566.81,222L567.72,221.83L567.91,222.06L571.57,221.92L571.76,222.02L573.96,221.9L574.14,221.74L576.71,222.4L576.89,222.3L581.84,222.39L582.03,222.56L583.86,222.41L584.04,222.48L585.69,222.58L585.88,222.63L592.85,223.09L593.03,223L595.41,223.06L595.6,223.27L597.61,223.19L597.8,223.37L598.9,223.21L599.08,223.35L617.05,223.53L617.23,223.67L618.52,223.68L618.7,223.72L637.96,224.15L638.14,223.98L640.71,224.32L640.89,224.17L641.99,224.22L642.17,224.17L643.46,224.5L643.64,224.4L645.66,224.43L645.84,224.4L648.23,224.72L648.41,224.7L649.51,224.57L649.69,224.68L650.61,224.53L650.79,224.57L654.28,224.55L654.46,224.54L657.39,224.99L657.58,224.84L658.86,225.11L659.04,224.91L663.63,225.13L663.81,224.9L667.85,225.12L668.03,224.99L670.96,225.33L671.15,225.19L672.43,225.29L672.61,225.15L673.9,225.36L674.08,225.23L675.18,225.21L675.36,225.33L677.93,225.48L678.11,225.48L686,225.79" style="vector-effect: none; fill: none; stroke: rgb(44, 160, 44); stroke-opacity: 1; stroke-width: 2px; opacity: 1;"/></g><g class="points"/><g class="text"/></g><g class="trace scatter trace714888" style="stroke-miterlimit: 2; opacity: 1;"><g class="fills"/><g class="errorbars"/><g class="lines"><path class="js-line" d="M0,220.27L0.55,232.33L0.73,232.07L0.92,225.27L2.02,210.97L2.2,209.34L2.38,207.53L2.57,210.13L2.75,212.39L3.12,211.36L3.3,213.76L4.4,219.76L4.58,217.75L4.77,218.01L7.15,184.31L7.33,180.27L7.89,173.98L8.07,176.77L8.25,190.07L9.35,218.59L9.54,218.51L13.2,218.59L13.39,218.65L17.97,218.75L18.15,218.83L22.19,218.7L22.37,218.74L23.29,218.04L23.47,215.72L24.21,193.71L24.57,195.12L24.76,195.45L25.12,196.11L25.49,195.55L25.67,195.41L25.86,195.5L26.04,195.01L26.22,194.65L26.96,189.63L27.14,187.75L27.87,182.59L28.06,182.72L28.24,183.38L29.52,195.3L29.71,202.66L30.62,217.71L30.81,217.63L30.99,217.82L33.92,218.13L34.11,218.03L36.86,217.91L37.04,218L40.34,218.02L40.53,217.85L42.54,218.2L42.73,217.99L43.83,218.1L44.01,218.16L46.76,218.31L46.94,218.1L48.78,218.29L48.96,218.23L50.61,218.33L50.79,218.21L52.63,218.43L52.81,218.48L59.6,218.52L59.78,218.38L61.43,218.43L61.61,218.45L63.45,217.63L63.63,214.03L64.55,161.36L64.91,168.46L65.1,169.91L65.46,170.84L65.65,168.91L65.83,162.52L66.38,155.6L66.56,157.83L66.75,158.71L66.93,158.19L67.11,161.51L68.77,175.31L68.95,177.28L69.32,174.4L69.5,175.18L69.68,177.12L69.87,177.6L70.05,180.84L71.15,217.69L71.33,217.67L72.25,218.01L72.43,217.87L74.08,217.93L74.27,217.89L76.28,217.83L76.47,217.99L81.05,218.05L81.23,218.21L83.25,217.89L83.43,218.11L85.64,217.91L85.82,217.82L86.92,216.51L87.1,215.71L88.02,201.95L88.2,181.05L89.3,48.1L89.49,61.97L89.67,97.98L90.4,188.21L90.59,185.42L90.77,181.5L93.52,114.48L93.7,112.92L97,83.8L97.19,83.36L98.29,79.97L98.47,80.95L99.21,81.49L99.39,81.05L100.31,80.82L100.49,81.03L101.96,83.53L102.14,83.63L102.69,84.92L102.87,85.65L109.66,106.22L109.84,106.71L115.16,120.58L115.34,120.91L124.69,141.28L124.88,141.47L125.79,142.86L125.98,143.88L126.16,144.85L126.34,152.32L126.89,189.78L127.26,188.14L127.44,187L128.36,177.44L128.54,175.6L128.91,177.51L129.09,180.36L130.38,194.79L130.56,195.01L130.93,194.25L131.11,193.07L131.48,188.85L131.66,184.04L132.76,151.67L133.13,152.13L133.31,152.33L137.71,156.11L137.9,156.8L140.46,160.01L140.65,160.04L143.03,163.03L143.21,163.61L143.76,164.17L143.95,164.84L144.68,165.52L144.87,165.74L146.7,167.61L146.88,167.42L147.07,167.08L147.8,167.15L147.98,167.36L148.72,166.83L148.9,166.34L149.08,166.54L149.27,166.07L149.45,165.35L151.1,152.85L151.28,146.63L152.38,124.46L152.57,125.28L152.75,126.11L154.77,134.11L154.95,134.12L156.23,134.24L156.42,134.29L160.09,135.37L160.27,135.99L160.45,135.55L161,135.96L161.19,136.4L163.2,137.25L163.39,137.67L165.77,138.56L165.95,138.73L173.29,142.28L173.47,142.9L177.32,144.74L177.51,144.83L177.69,144.6L178.06,144.98L178.24,145.26L180.62,146.67L180.81,146.66L180.99,146.5L181.36,147.06L181.54,147.26L190.52,152.86L190.71,152.52L191.08,151.98L191.26,150.31L191.63,101.84L191.81,53.76L192.54,15.59L192.73,20.02L192.91,24.48L193.09,25.04L193.28,22.09L193.46,19.93L193.83,21.67L194.01,24.19L195.66,36.63L195.84,36.88L197.31,43.44L197.49,45.52L208.86,97.96L209.05,98.37L213.26,111.74L213.45,112.18L216.93,121.24L217.11,121.6L224.45,138.2L224.63,138.38L232.15,151.32L232.33,151.59L234.17,154.31L234.35,154.56L236.74,157.28L236.92,157.55L240.77,162.2L240.95,162.42L242.24,163.49L242.42,164.01L244.44,166.21L244.62,166.22L246.09,167.56L246.27,167.99L250.12,172.15L250.3,172.13L251.4,173.62L251.59,173.56L252.32,174.95L252.51,175.63L252.87,174.95L253.24,175.31L253.42,175.8L254.71,175.46L254.89,175.55L255.81,175.49L255.99,176.07L256.91,176.62L257.09,176.65L257.46,176.29L257.82,176.66L258.01,176.97L258.74,177.04L258.92,176.83L259.11,176.75L259.47,177.3L259.66,177.5L261.31,177.45L261.49,177.41L264.79,178.31L264.97,178.28L266.07,178.05L266.26,178.26L267.54,178.21L267.73,178.35L269.19,178.36L269.38,178.34L270.29,178.45L270.48,178.66L271.76,178.72L271.94,178.74L275.06,178.78L275.24,179.1L275.61,178.78L275.79,179.1L275.98,179.4L277.08,179.21L277.26,179.44L277.99,179.1L278.18,179.28L278.36,179.46L280.01,179.44L280.19,179.66L282.4,180.03L282.58,180.1L285.15,180.48L285.33,180.38L286.43,180.79L286.61,180.87L289.18,181.47L289.36,181.72L290.46,181.78L290.65,181.72L292.11,182.29L292.3,182.24L293.58,182.52L293.76,182.49L294.86,182.99L295.05,182.98L296.88,183.51L297.06,183.41L297.98,183.61L298.17,183.64L299.63,184.27L299.82,184.27L311.18,187.66L311.37,187.62L314.3,188.86L314.49,189.39L315.59,189.16L315.77,189.39L318.52,189.98L318.7,189.86L329.71,193.29L329.89,193.22L331.36,193.76L331.54,193.73L336.67,195.71L336.86,196.04L338.69,196.19L338.87,196.23L340.16,196.6L340.34,196.6L346.03,197.84L346.21,197.92L348.78,198.28L348.96,198.3L350.98,198.68L351.16,198.62L361.98,201.7L362.16,201.55L363.26,201.92L363.45,201.88L377.93,204.18L378.12,203.93L379.58,204.25L379.77,204.13L381.6,204.58L381.78,204.57L391.87,207.1L392.05,206.89L393.52,207.28L393.7,207.21L401.59,208.46L401.77,208.26L406.17,208.59L406.36,208.39L407.46,208.88L407.64,208.83L409.66,209.07L409.84,208.95L415.52,209.62L415.71,209.7L417.91,210.16L418.09,209.99L429.83,211.57L430.01,211.44L431.29,211.82L431.48,211.92L432.58,212.26L432.76,212.12L436.25,212.32L436.43,212.22L438.08,212.51L438.26,212.45L440.46,212.52L440.65,212.68L445.23,212.95L445.41,213.07L446.7,213.39L446.88,213.25L448.35,213.46L448.53,213.55L461.55,214.67L461.73,214.57L466.14,215.28L466.32,215.1L467.42,215.63L467.6,215.77L468.7,215.76L468.89,215.66L475.12,216.35L475.3,216.47L476.95,216.32L477.14,216.29L478.97,216.59L479.15,216.52L480.81,216.9L480.99,216.84L481.91,216.97L482.09,216.92L483.19,217.11L483.37,217.22L484.66,217.13L484.84,217.32L493.09,218.21L493.27,218.31L495.48,218.25L495.66,218.49L500.79,218.25L500.98,218.56L502.63,218.31L502.81,218.34L504.46,218.44L504.64,218.56L506.84,218.34L507.03,218.45L508.31,218.47L508.49,218.45L510.7,218.95L510.88,218.86L513.63,219.02L513.81,218.85L515.65,219.07L515.83,219.05L520.05,219.52L520.23,219.6L521.88,219.58L522.06,219.77L523.16,219.46L523.35,219.56L532.88,220.11L533.07,219.9L533.98,220.24L534.17,220.17L534.9,220.43L535.08,220.25L535.27,220.14L536.55,220.35L536.73,220.35L538.2,220.4L538.38,220.35L540.77,220.34L540.95,220.59L542.05,220.44L542.24,220.41L549.02,220.69L549.2,220.82L549.94,220.92L550.12,220.55L558.74,221.24L558.92,221.05L562.59,221.57L562.77,221.33L564.42,221.19L564.61,221.38L566.99,221.53L567.17,221.75L568.46,221.72L568.64,221.6L571.94,221.88L572.13,221.67L573.41,221.9L573.59,221.95L574.33,222.02L574.51,221.9L575.79,222.13L575.98,221.87L577.63,222.39L577.81,222.19L579.83,222.3L580.01,222.63L581.66,222.39L581.84,222.47L583.68,222.42L583.86,222.72L584.96,222.65L585.14,222.74L586.24,222.9L586.43,222.76L588.81,222.95L589,222.97L590.1,223.01L590.28,223.37L591.38,223.24L591.56,223.42L593.95,223.5L594.13,223.36L595.23,223.72L595.41,223.63L596.33,223.34L596.51,223.58L596.7,223.65L598.71,224.04L598.9,223.95L600.73,223.88L600.91,223.93L603.12,223.99L603.3,223.96L606.05,223.82L606.23,223.95L608.25,224.26L608.43,223.93L609.72,224.1L609.9,224.1L611,224.06L611.18,224.23L612.65,224.18L612.83,224.3L614.3,224.04L614.48,224.35L617.42,224.33L617.6,224.32L619.07,224.32L619.25,224.46L620.9,224.05L621.09,224.29L622.19,224.43L622.37,224.59L623.84,224.34L624.02,224.46L625.67,224.71L625.85,224.68L627.87,224.87L628.05,224.75L629.34,225.03L629.52,225.01L630.99,224.79L631.17,225.07L631.9,224.82L632.09,224.98L632.27,224.96L635.57,224.71L635.76,224.99L642.36,224.98L642.54,225.31L643.64,225.12L643.82,225.19L644.92,225.29L645.11,225.17L647.49,225.44L647.67,225.33L648.96,225.41L649.14,225.22L650.06,225.73L650.24,225.43L652.99,225.52L653.18,225.54L654.83,225.63L655.01,225.53L668.95,226.21L669.13,226.31L672.06,226.39L672.25,226.28L674.45,226.4L674.63,226.47L678.85,226.69L679.03,226.74L680.32,226.66L680.5,226.64L681.42,226.73L681.6,226.54L683.43,226.68L683.62,226.7L684.9,226.92L685.08,227L686,227.05" style="vector-effect: none; fill: none; stroke: rgb(214, 39, 40); stroke-opacity: 1; stroke-width: 2px; opacity: 1;"/></g><g class="points"/><g class="text"/></g><g class="trace scatter trace874a4a" style="stroke-miterlimit: 2; opacity: 1;"><g class="fills"/><g class="errorbars"/><g class="lines"><path class="js-line" d="M0,242.38L0.55,231.58L0.73,236.45L0.92,239.95L1.1,239.99L1.28,238.91L1.65,238.47L1.83,236.8L2.57,233.07L2.75,233.77L2.93,233.95L3.85,239.21L4.22,238.62L4.4,238.05L6.23,231.55L6.42,228.42L7.52,217.84L7.7,210.76L8.44,199.38L8.62,204.22L8.8,213.59L9.17,222.24L9.54,219.76L9.72,219.14L10.82,215.19L11,215.33L11.19,216.51L11.74,219.91L12.29,219.22L12.47,219.04L13.39,221.44L13.57,222L15.22,223.14L15.4,223.18L16.69,223.29L16.87,223.21L19.44,223.22L19.62,223.14L21.09,223.3L21.27,223.18L22.37,222.93L22.55,222.91L22.92,222.24L23.11,220.95L23.66,195.71L23.84,180.02L24.57,163.1L24.76,163.37L24.94,163.76L25.31,161.28L25.49,162.01L25.67,165.26L26.59,172.33L26.77,171.77L26.96,170.34L27.32,168.46L27.51,169.84L27.69,170.9L27.87,170.68L28.06,172.32L28.61,168.41L28.97,171.08L29.16,171.19L29.34,170.98L29.52,168.96L30.07,180.93L30.26,190.7L31.54,222.99L31.72,223.02L62.16,223.39L62.35,223.73L62.9,229.95L63.08,229.36L63.26,223.58L64.55,195.63L64.73,196.43L66.75,213.31L66.93,210.26L67.3,209.86L67.48,208.67L69.68,172.65L69.87,171.75L70.23,167.67L70.42,172.72L71.7,222.59L71.88,222.65L75.92,223.02L76.1,222.91L85.45,222.61L85.64,222.27L86,212.08L86.19,200.15L86.74,185.68L87.1,186.88L87.29,186.68L87.65,187.29L88.02,186.9L88.2,186.48L88.75,184.97L88.94,183.95L90.4,168.77L90.59,170.27L90.77,171.37L91.5,175.77L91.69,179.17L93.34,221.93L93.52,222.09L95.54,222.23L95.72,222.4L96.82,222.21L97,222.38L98.47,222.22L98.65,222.35L100.31,222.44L100.49,222.35L102.14,222.55L102.32,222.32L103.97,222.51L104.16,222.51L105.62,222.62L105.81,222.7L107.46,222.45L107.64,222.66L109.11,222.8L109.29,222.61L110.57,222.85L110.76,222.66L113.87,222.82L114.06,222.75L116.81,222.93L116.99,222.84L119.93,222.96L120.11,222.78L125.79,222.08L125.98,219.68L126.89,157.77L127.44,160.05L127.63,159.05L127.81,160.76L127.99,158.02L128.18,155.36L128.73,150.24L128.91,150.88L129.09,153.74L129.83,163.29L130.01,165.03L131.3,175.01L131.48,173.26L131.66,171.76L131.85,171.83L132.03,173.22L132.4,174.76L132.58,187.15L133.5,221.91L133.68,222.18L134.6,222.13L134.78,222.38L137.71,222.57L137.9,222.32L138.81,222.78L139,222.67L140.46,222.46L140.65,222.56L143.76,222.6L143.95,222.81L145.05,222.54L145.23,222.85L146.33,222.74L146.52,222.74L148.17,221.55L148.35,220.98L149.08,213.92L149.27,209.85L150.37,161.36L150.55,131.77L151.47,89.37L151.65,94.24L153.12,185.38L153.3,189.86L153.85,195.73L154.03,194.3L154.22,192.25L157.33,156.58L157.52,154.5L161.37,125.32L161.55,124.91L163.57,119.37L163.75,119.07L165.4,117.76L165.59,118.23L165.95,117.66L166.32,118.01L166.5,118.44L166.87,118.34L167.05,118.71L167.24,119.08L168.52,120.62L168.7,120.47L171.82,126.12L172,126.81L176.22,136.21L176.41,136.3L178.97,141.39L179.16,141.93L181.36,145.94L181.54,146.31L181.91,146.79L182.09,147.35L184.47,152.47L184.66,152.37L185.94,154.36L186.12,154.5L188.69,158.78L188.87,166.95L189.24,182.95L189.79,182.09L189.97,181.33L190.71,173.97L190.89,171.3L191.08,169.98L191.26,171.04L191.44,173.97L192.91,191.88L193.09,192.08L193.64,186.37L193.83,182.9L194.74,152.38L195.11,157.12L195.29,162.18L196.21,165.71L196.39,165.63L197.13,166.52L197.31,166.44L197.49,166.68L198.04,167.01L198.23,167.22L199.51,168.2L199.69,168.28L200.79,169.81L200.98,170.36L201.71,170.8L201.89,171L203.54,173.09L203.73,173.07L205.01,173.92L205.19,174.62L207.95,178.12L208.13,178.12L209.41,178.32L209.6,178.11L209.96,177.8L210.15,177.94L210.33,178.68L210.51,179L211.06,178.6L211.25,178.24L213.08,169.03L213.26,163.88L214.73,77.1L214.91,77.28L215.1,78.18L217.3,91.69L217.48,91.99L219.31,96.12L219.5,95.85L220.41,97.87L220.6,98.36L220.78,98.1L221.15,98.39L221.33,98.78L223.72,102.89L223.9,102.85L225.37,105.87L225.55,105.81L233.8,116.62L233.98,116.75L235.63,118.84L235.82,118.94L237.65,121.24L237.84,121.47L239.67,123.46L239.85,123.46L241.14,125.42L241.32,125.59L253.24,137.23L253.42,137.1L253.79,134.14L253.97,120.11L254.89,14.6L255.07,15.76L255.26,19.26L258.37,43.54L258.56,43.95L260.21,54.48L260.39,54.57L261.86,60.48L262.04,61.25L265.71,77.9L265.89,78.56L268.64,89.58L268.83,90.4L274.33,107.41L274.51,107.75L284.41,130.41L284.6,130.67L289.36,139.25L289.55,139.48L293.58,145.47L293.76,145.65L295.05,147.65L295.23,148.03L306.6,162.24L306.78,162.26L315.22,171.8L315.4,171.75L317.97,172.35L318.15,172.62L319.62,173.72L319.8,173.77L321.27,173.81L321.45,173.88L322.92,174.7L323.1,174.63L324.94,175.21L325.12,175.5L326.4,175.11L326.59,175.32L327.69,175.36L327.87,175.5L329.16,175.93L329.34,175.94L330.81,176.04L330.99,176.06L331.91,176.05L332.09,176.18L356.29,181.92L356.48,182.04L360.15,183.43L360.33,183.22L362.35,184.02L362.53,184.07L364.55,184.93L364.73,185.14L365.65,185.1L365.83,185.56L366.75,185.64L366.93,185.77L371.51,186.97L371.7,187.11L377.2,188.24L377.38,188.82L378.48,188.53L378.67,188.7L380.68,189.01L380.87,189.62L382.88,190L383.07,190.2L384.17,190.31L384.35,190.67L385.45,191.51L385.63,191.33L385.82,191.29L386.92,191.6L387.1,191.92L394.25,193.9L394.44,193.84L395.72,194.32L395.9,194.2L397.19,194.7L397.37,194.74L402.5,195.58L402.69,195.53L404.16,196.1L404.34,195.92L405.99,196.48L406.17,196.45L407.09,196.57L407.27,196.64L409.11,197.04L409.29,197.01L410.57,197.45L410.76,197.36L419.56,199.35L419.74,199.35L423.59,200.38L423.78,200.1L426.34,200.88L426.53,200.61L427.44,201.06L427.63,201.05L429.46,201.63L429.64,201.41L431.29,201.9L431.48,201.96L432.76,202.32L432.94,202.2L443.03,203.28L443.21,203.48L446.33,203.82L446.51,203.98L449.82,204.77L450,204.93L452.2,205.43L452.38,205.46L453.67,205.59L453.85,205.73L454.77,205.8L454.95,206.08L455.87,206.06L456.05,206L458.43,206.54L458.62,206.4L462.28,206.94L462.47,206.83L464.48,207.29L464.67,207.18L466.5,207.82L466.69,207.7L477.5,209.72L477.69,209.53L479.89,209.88L480.07,210.1L487.41,211.07L487.59,210.9L488.69,211.46L488.87,211.25L490.16,211.53L490.34,211.52L491.81,212.03L491.99,212L493.64,212.16L493.82,212L496.58,212.41L496.76,212.28L498.41,212.57L498.59,212.55L503.91,212.95L504.09,213.01L505.74,213L505.93,213.08L507.21,213.26L507.39,213.27L515.1,214.16L515.28,214.32L516.75,214.33L516.93,214.63L517.66,214.52L517.85,214.72L521.88,214.82L522.06,215.01L523.35,214.94L523.53,214.97L526.83,215.28L527.02,215.17L529.03,215.72L529.22,215.47L530.32,215.91L530.5,215.88L531.42,215.9L531.6,215.76L532.33,216.15L532.52,215.99L532.7,216.12L537.83,216.38L538.02,216.72L539.3,216.66L539.48,216.72L541.13,216.82L541.32,216.8L542.97,216.86L543.15,217.09L544.99,217.31L545.17,217.09L546.45,217.35L546.64,217.15L547.55,217.3L547.74,217.18L556.72,217.88L556.91,218.03L558.01,218.08L558.19,218.11L559.47,218.36L559.66,218.29L560.76,218.37L560.94,218.45L562.96,218.46L563.14,218.42L566.07,218.75L566.26,218.87L567.17,218.79L567.36,218.94L568.64,218.84L568.82,218.91L573.59,219.19L573.78,219.38L575.24,219.37L575.43,219.6L577.08,219.81L577.26,219.77L578.18,219.76L578.36,219.6L579.64,219.75L579.83,219.83L580.93,220L581.11,219.74L582.03,219.99L582.21,219.99L604.4,222.22L604.58,221.99L607.52,222.58L607.7,222.3L610.08,222.49L610.27,222.57L611.37,222.28L611.55,222.37L613.2,222.41L613.38,222.37L614.48,222.81L614.67,222.52L615.58,222.64L615.77,222.53L617.97,222.55L618.15,222.76L621.45,222.83L621.64,222.8L623.65,222.89L623.84,222.93L625.12,222.89L625.3,222.97L627.69,223.37L627.87,223.3L628.6,223.48L628.79,223.32L628.97,223.48L632.82,223.59L633.01,223.35L633.92,223.26L634.11,223.31L645.11,223.84L645.29,223.82L646.39,224.1L646.57,223.87L647.49,224.16L647.67,224.13L648.96,224.05L649.14,223.98L651.34,224.04L651.53,224L652.63,224.28L652.81,224.23L654.46,224.34L654.64,224.38L657.21,224.45L657.39,224.71L658.31,224.63L658.49,224.78L659.78,224.76L659.96,224.93L660.88,224.69L661.06,224.72L661.98,224.92L662.16,224.87L664,224.87L664.18,224.74L665.65,224.97L665.83,224.95L668.03,225.19L668.21,225.11L671.15,225.45L671.33,225.37L673.35,225.28L673.53,225.45L674.63,225.53L674.81,225.49L675.91,225.71L676.1,225.55L678.3,225.84L678.48,225.64L680.68,226.07L680.87,225.81L683.07,226.12L683.25,226.01L686,226.51" style="vector-effect: none; fill: none; stroke: rgb(148, 103, 189); stroke-opacity: 1; stroke-width: 2px; opacity: 1;"/></g><g class="points"/><g class="text"/></g><g class="trace scatter trace4dba36" style="stroke-miterlimit: 2; opacity: 1;"><g class="fills"/><g class="errorbars"/><g class="lines"><path class="js-line" d="M0,259.3L0.37,258.08L0.55,252.15L1.65,235.08L1.83,233.25L3.3,227.59L3.48,228.07L3.67,228.56L3.85,229.91L4.22,228.42L4.4,228.1L4.58,228.26L4.77,229.88L4.95,230.41L5.13,229.31L5.32,228.44L5.68,226.31L6.05,228.02L6.23,228.53L8.44,209.19L8.62,210.94L9.17,219.56L9.35,216.66L9.54,213.84L10.45,210.54L10.64,211.75L12.47,232.69L12.65,233.29L16.5,247.98L16.69,247.85L17.42,246.58L17.6,246.06L18.7,241.83L18.89,240.38L19.62,235.26L19.99,236.46L20.17,236.8L20.9,230.73L21.27,231.46L21.45,232.15L22.55,224.37L22.74,221.07L23.29,203.03L23.66,206.26L23.84,208.27L25.31,224.71L25.49,225.78L26.96,232.17L27.14,231.79L27.32,231.93L27.69,231.21L27.87,231.81L28.06,232.72L28.24,233.48L28.61,232.29L28.79,231.74L28.97,230.78L29.52,231.15L29.71,232.28L30.99,243.45L31.17,246.4L31.36,246.44L31.54,245.18L31.72,245.13L31.91,247.12L33.01,258.94L33.19,258.87L33.37,258.98L36.86,259.2L37.04,259.09L39.06,259.06L39.24,259.08L40.89,258.99L41.08,259L53.36,259.33L53.55,259.05L55.01,259.38L55.2,259.32L56.66,259.21L56.85,258.91L58.31,259.21L58.5,259.12L60.33,259.13L60.51,258.99L60.7,259.14L61.06,258.57L61.25,258.14L61.98,243.23L62.35,246.12L62.53,251.18L62.71,255.55L62.9,252.2L63.08,243.62L64,234.69L64.18,234.5L64.55,233.37L64.91,234.43L65.1,234.72L66.2,241.26L66.56,240.43L66.75,240.29L68.77,229.75L68.95,227.51L69.68,226.26L69.87,223.18L70.78,203.61L70.97,204.74L71.15,211.87L71.7,223.35L72.07,223.16L72.25,222.89L73.17,221.38L73.35,221.98L74.08,229.81L74.27,228.2L74.45,226.38L74.82,223.54L75.18,225.68L75.37,228.22L77.57,255.2L77.75,255.6L79.03,257.59L79.22,257.62L79.95,257.77L80.13,257.88L82.88,258.06L83.07,257.81L83.8,257.08L83.99,256.69L84.54,255.5L84.72,254.8L85.27,251.62L85.45,243.46L86.55,160.87L86.92,163.73L87.1,166.15L88.94,186.53L89.12,186.9L89.3,186.5L89.49,182.73L90.95,168.6L91.32,170.74L91.5,171.05L92.97,205.55L93.15,217.64L94.07,258.11L94.25,258.05L94.44,258.21L94.99,258.17L95.17,258.36L95.35,258.37L96.64,258.35L96.82,258.22L99.57,258.62L99.76,258.89L100.86,258.62L101.04,258.52L102.51,258.73L102.69,258.64L104.34,258.92L104.52,258.58L105.99,258.78L106.17,258.69L108.74,258.82L108.92,258.63L110.21,259.04L110.39,258.64L111.12,258.9L111.31,258.68L112.22,259.03L112.41,258.92L114.06,259.02L114.24,258.92L115.34,259.04L115.53,258.83L118.64,258.99L118.83,258.86L120.11,258.86L120.29,258.9L124.14,258.47L124.33,258.14L124.69,253.71L124.88,247.18L126.89,194.7L127.08,193.43L127.44,198.36L127.81,196.5L127.99,196.08L129.09,210.7L129.28,208.99L129.46,204.87L129.65,206.77L130.01,203.52L130.2,202.87L130.93,193.67L131.11,189.05L131.3,189.88L131.48,186.96L132.58,167.5L132.76,170.68L132.95,186.29L134.05,256.84L134.23,257.09L135.51,258.21L135.7,258.11L136.61,258.35L136.8,258.36L137.53,258.68L137.71,258.46L137.9,258.39L139.91,258.59L140.1,258.49L141.38,258.79L141.56,258.54L142.85,258.49L143.03,258.78L144.5,258.58L144.68,258.57L147.25,258.55L147.43,257.68L147.8,256.42L147.98,250.82L148.9,175.91L149.27,176.5L149.45,176.92L149.82,177.62L150,176.77L150.18,176.14L151.1,171.39L151.28,168.86L152.57,155.99L152.75,157.91L152.93,158.97L153.48,161.33L153.67,163.13L154.03,173.92L154.22,190.93L155.32,256.34L155.5,256.71L156.6,257.61L156.78,257.57L175.3,258.2L175.49,258.03L176.59,258.48L176.77,258.2L177.87,258.38L178.06,258.67L178.79,258.22L178.97,258.52L179.16,258.55L183.37,258.24L183.56,258.44L185.21,258.49L185.39,258.13L185.57,258.55L186.12,258.18L186.31,258.09L187.77,257.12L187.96,256.51L188.32,251.98L188.51,240.89L189.42,152.87L189.97,154.5L190.16,153.5L191.08,146.33L191.26,147.82L191.44,149.43L192.36,159.99L192.54,162.72L193.46,170.26L193.83,170.02L194.01,168.79L194.19,167.75L194.56,169.77L194.74,169.32L195.11,204.84L195.29,238.15L196.21,257.18L196.39,257.38L198.78,257.83L198.96,257.57L201.71,257.85L201.89,257.78L203.91,258.37L204.09,258.09L206.48,258.2L206.66,258.02L207.21,258.26L207.4,258.14L207.58,258.18L210.15,257.54L210.33,256.59L210.88,238.98L211.06,228.21L213.08,159.96L213.26,156.31L213.81,149.98L214,145.22L214.36,141.64L214.55,144.24L214.73,148.39L216.01,196.27L216.2,208.08L217.48,251.69L217.66,251.66L219.68,246.89L219.86,246.06L222.98,230.36L223.17,228.95L229.03,206.63L229.22,206.59L230.87,204.34L231.05,204.3L232.33,203.74L232.52,203.62L233.98,204.75L234.17,204.36L237.84,207.04L238.02,207.49L238.94,207.91L239.12,208.21L243.89,213.17L244.07,214.08L244.44,213.47L244.62,214.05L244.8,214.46L245.17,214.15L245.35,214.57L245.54,214.8L248.29,217.32L248.47,217.43L249.57,218.33L249.75,218.57L250.85,219.65L251.04,218.86L251.4,200.1L251.59,185.13L252.69,176.9L252.87,175.59L253.42,169.67L253.79,172.17L253.97,175.78L255.44,192.73L255.62,192.31L256.17,187.28L256.36,183.09L256.91,165.91L257.09,190.18L257.82,223.08L258.01,223.07L258.19,223.6L258.37,223.35L258.56,223.65L258.74,224.19L261.49,225.33L261.67,225.36L263.32,226.35L263.51,226.09L268.83,229.59L269.01,230L269.56,229.58L269.74,229.87L269.93,230.21L271.03,230.45L271.21,230.56L273.04,231.17L273.23,230.95L274.33,229.49L274.51,228.53L275.06,226.46L275.24,224.98L275.61,200.15L275.79,160.16L276.71,35.13L276.89,35.33L277.08,36.22L277.63,35.21L277.81,35.88L277.99,36.73L280.74,51.76L280.93,52.08L282.58,57.92L282.76,58.2L284.96,66.28L285.15,66.82L293.58,90.44L293.76,90.82L297.62,99.85L297.8,100.15L300.37,105.3L300.55,105.66L302.2,108.67L302.38,108.96L305.5,114.34L305.68,114.31L315.04,127.9L315.22,127.97L315.59,128.04L315.77,126.8L316.14,91.02L316.32,51.72L317.05,14.63L317.24,18.63L317.42,22.88L317.6,23.19L317.79,22.06L317.97,20.75L321.27,43.65L321.45,44.37L331.54,89.32L331.72,90.02L340.71,119.36L340.89,119.73L344.01,127.31L344.19,127.76L348.78,137.33L348.96,137.58L352.63,144.21L352.81,144.27L354.64,147.38L354.83,147.76L356.29,150.11L356.48,150.58L359.23,154.16L359.41,154.5L363.63,160.44L363.81,160.48L372.43,170.08L372.61,170.1L375,172.25L375.18,172.29L378.12,174.46L378.3,174.39L380.68,175.39L380.87,176.15L382.33,176.36L382.52,176.55L384.17,177.53L384.35,178.23L385.08,178.47L385.27,178.69L386.37,178.33L386.55,178.33L386.73,178.15L386.92,178.34L387.1,179L387.83,178.98L388.02,178.78L389.85,178.99L390.04,179L392.6,179.05L392.79,179.36L393.52,179.33L393.7,179.18L394.99,179.51L395.17,179.42L395.9,179.69L396.09,179.55L396.27,179.41L400.49,179.89L400.67,179.92L402.32,179.73L402.5,179.65L412.22,181.57L412.41,181.9L415.34,182.34L415.52,182.46L417.54,183.01L417.72,183.1L421.21,183.98L421.39,184.09L423.23,184.47L423.41,184.56L424.51,184.84L424.69,184.92L427.44,185.8L427.63,185.86L429.46,186.54L429.64,186.46L434.96,188.49L435.15,188.36L436.06,188.73L436.25,188.97L437.16,189.18L437.35,189.17L439.18,189.32L439.36,189.25L441.2,189.56L441.38,189.34L443.58,190.49L443.76,190.38L445.96,190.81L446.15,190.71L447.61,191.35L447.8,191.4L448.53,192L448.71,191.88L448.9,191.86L450,192.29L450.18,192.32L451.28,192.91L451.47,192.86L454.95,194.08L455.13,194.24L456.97,194.58L457.15,194.81L460.45,195.5L460.63,195.68L463.02,196.06L463.2,196.18L466.87,197.05L467.05,197.06L468.7,197.81L468.89,197.66L474.75,199.37L474.94,199.28L477.14,199.71L477.32,199.95L478.24,200.09L478.42,200.1L481.91,200.94L482.09,201.11L483.37,201.24L483.56,201.36L490.52,203.08L490.71,203.25L492.17,203.35L492.36,203.35L494.19,203.89L494.37,203.69L495.48,204.28L495.66,204.22L497.13,204.57L497.31,204.49L498.41,204.6L498.59,204.63L504.46,205.23L504.64,205.18L507.76,205.94L507.94,206.16L509.23,206.16L509.41,206.42L511.43,206.75L511.61,206.72L514,207.12L514.18,207.24L520.05,208.31L520.23,208.14L522.06,208.68L522.25,208.47L524.81,208.96L525,208.69L528.3,209.42L528.48,209.37L531.05,210.01L531.23,209.94L535.08,210.82L535.27,210.72L537.65,211.05L537.83,210.95L542.05,211.68L542.24,211.43L547.55,212.52L547.74,212.38L552.14,213.05L552.32,212.8L555.07,213.32L555.25,213.24L564.42,214.67L564.61,214.57L565.71,214.99L565.89,214.85L567.36,215.14L567.54,215.19L568.64,215L568.82,215.1L570.11,215.25L570.29,215.5L572.31,215.51L572.49,215.46L574.69,215.87L574.88,215.89L575.79,216.04L575.98,215.94L577.44,216.26L577.63,216.26L580.56,216.52L580.74,216.73L582.58,216.73L582.76,216.88L584.41,216.89L584.59,216.85L587.53,217.56L587.71,217.41L589.36,217.84L589.55,217.62L590.65,217.99L590.83,218.16L591.75,218.27L591.93,218.42L593.95,218.5L594.13,218.4L598.53,219.19L598.71,219.32L600.91,219.31L601.1,219.37L602.93,219.68L603.12,219.71L604.58,219.69L604.77,219.75L619.99,221L620.17,220.82L621.64,220.97L621.82,220.97L623.84,221.24L624.02,221.07L628.42,221.9L628.6,221.74L629.89,221.98L630.07,221.7L632.09,222.02L632.27,221.79L633.56,222.02L633.74,221.84L648.96,223.13L649.14,222.99L650.24,223.31L650.43,223.32L651.53,223.07L651.71,223.12L652.26,223.41L652.44,223.27L652.63,223.26L654.09,223.44L654.28,223.27L655.93,223.66L656.11,223.55L658.68,223.79L658.86,223.92L659.59,223.9L659.78,224.12L661.43,224.12L661.61,224.13L663.45,224.12L663.63,224.25L665.1,224.17L665.28,224.25L668.76,224.66L668.95,224.58L670.41,224.62L670.6,224.68L679.03,225.43L679.22,225.3L686,226.15" style="vector-effect: none; fill: none; stroke: rgb(140, 86, 75); stroke-opacity: 1; stroke-width: 2px; opacity: 1;"/></g><g class="points"/><g class="text"/></g><g class="trace scatter trace2d7c35" style="stroke-miterlimit: 2; opacity: 1;"><g class="fills"/><g class="errorbars"/><g class="lines"><path class="js-line" d="M0,263.19L0.18,263.16L0.37,261.38L1.47,219.91L1.65,222.78L1.83,233.79L2.75,246.58L2.93,247.22L3.3,245.85L3.48,244.31L3.85,240.39L4.03,231.55L4.58,213.7L4.95,219.73L5.13,218.89L6.97,224.48L7.15,223.63L7.33,223.15L7.52,223.96L7.7,223.4L7.89,221.8L8.62,212.52L8.8,216.09L8.99,222.02L10.09,235.89L10.27,235.76L10.45,234.19L10.82,229.68L11.19,230.34L11.37,232.77L13.2,246.52L13.39,246.52L15.95,245.45L16.14,245.44L18.52,245.24L18.7,244.91L19.44,240.69L19.62,238.3L21.64,214.17L21.82,214.61L22.55,221.01L22.74,220.09L22.92,217.01L23.47,211.22L23.84,213.01L24.02,214.4L24.76,221.88L25.12,221.09L25.31,220.98L25.67,222.23L26.22,221.66L26.41,221.88L27.51,224.6L27.69,224.53L28.06,226.25L28.61,226.02L28.79,225.9L29.16,225.65L29.34,227.02L30.81,240.59L30.99,248.75L31.54,262.14L31.91,257.2L32.09,252.94L32.46,250.27L32.64,252.59L32.82,256.43L33.92,263.41L34.11,263.7L35.02,263.53L35.21,263.43L39.61,263.65L39.79,263.49L43.28,263.74L43.46,263.57L44.74,263.62L44.93,263.58L47.49,263.66L47.68,263.53L50.06,263.6L50.24,263.5L51.16,263.78L51.34,263.85L52.63,263.82L52.81,263.82L54.83,263.7L55.01,263.85L59.23,263.56L59.41,263.66L60.51,263.42L60.7,262.69L61.43,246.6L61.61,246.86L61.8,251.08L62.35,262.92L62.71,261.84L62.9,254.89L64,230.11L64.18,230.34L64.55,228.9L64.91,229.67L65.1,230.46L66.38,237.22L66.56,236.19L66.75,235.81L68.03,229.16L68.21,229.93L68.4,230.31L69.13,226.47L69.32,227.31L69.5,227.73L70.78,211.16L71.15,213.46L71.33,215.69L71.52,215.33L71.7,210.65L72.62,202.5L72.8,203.17L75.55,234.67L75.73,234.9L79.95,243.32L80.13,243.28L80.87,242.46L81.05,241.52L82.88,229.1L83.07,227.43L83.25,226.96L83.43,227.18L83.62,228.85L83.99,230.42L84.17,228.73L84.35,225.79L85.82,206.34L86,209.78L86.19,213.1L87.47,223.25L87.65,225.7L88.94,232.47L89.12,232.38L89.3,232.48L89.67,233.79L89.85,233.59L90.04,232.87L90.59,234.03L90.77,233.1L90.95,232.28L91.69,231.01L91.87,231.81L92.05,233.55L93.15,242.44L93.34,247.53L93.7,247.14L94.25,254.46L94.44,258.71L95.17,262.74L95.35,262.66L95.54,262.82L97,262.9L97.19,262.83L99.02,263.07L99.21,263.06L102.14,263.38L102.32,263.12L103.42,263.35L103.61,263.29L104.52,263.26L104.71,263.43L104.89,262.96L105.44,263.39L105.62,263.23L106.54,263.32L106.72,263.18L107.64,263.33L107.82,263.21L113.14,263.6L113.32,263.39L114.24,263.52L114.43,263.58L118.83,263.34L119.01,263.63L120.66,263.35L120.84,263.53L122.68,263.22L122.86,263.35L123.59,262.3L123.78,260.62L124.51,245.11L124.69,246.86L124.88,251.89L125.24,257.29L125.43,250.09L125.61,242.5L127.08,233.77L127.26,234.25L127.63,235.77L127.81,237.28L128.91,240.43L129.09,240.73L130.93,233.07L131.11,230.83L133.31,208.35L133.5,211.89L134.6,225.22L134.78,224.76L135.33,221.26L135.7,221.93L135.88,223.97L136.25,228.1L136.61,225.68L136.8,222.91L137.35,216.64L137.71,217.3L137.9,219.17L141.01,256.76L141.2,257.48L142.66,260.18L142.85,260.04L144.5,261.84L144.68,261.92L145.23,260.82L145.42,259.94L147.43,243.69L147.62,229.95L148.53,166.05L148.72,167.22L148.9,168.48L150.55,184.82L150.73,186.59L151.28,189.91L151.47,187.24L151.65,187.32L152.38,183.5L152.57,180.98L153.12,172.01L153.3,175.58L153.48,177.51L154.03,174.45L154.4,174.93L154.58,177.94L154.95,190.31L155.13,205.23L156.6,262.12L156.78,262.15L157.88,262.65L158.07,262.67L159.17,262.69L159.35,262.71L165.22,262.97L165.4,262.74L166.5,262.87L166.69,262.88L168.52,263.05L168.7,262.83L169.62,262.97L169.8,263.03L172.37,262.88L172.55,263.29L173.47,263.06L173.65,263.22L175.12,263.19L175.3,263.07L186.49,262.81L186.67,262.4L187.04,260.14L187.22,255.19L189.42,181.99L189.61,183.82L189.79,188.1L190.16,184.19L190.52,186.27L190.71,191.41L191.63,200.49L191.99,198.33L192.18,197.65L193.46,190.44L193.64,182.36L194.93,161.29L195.11,163.13L195.29,172.94L196.58,260.51L196.76,260.92L198.04,262.24L198.23,262.14L199.51,262.59L199.69,262.54L202.26,262.91L202.44,263.12L203.36,263.02L203.54,262.88L204.83,262.83L205.01,262.82L205.93,262.93L206.11,262.95L209.96,261.96L210.15,261.46L210.33,259.62L210.51,248.97L211.43,169.32L211.8,170.11L211.98,170.21L212.16,171.37L212.53,170.11L212.71,168.89L214.91,148.94L215.1,149.57L215.28,150.96L216.38,159.97L216.56,169.64L218.03,261.02L218.21,261.45L219.13,262.13L219.31,262.02L219.5,261.99L221.88,262.25L222.07,262.17L223.35,262.65L223.53,262.31L224.45,262.49L224.63,262.64L225,262.4L225.37,262.67L225.55,262.59L229.4,262.45L229.58,262.68L231.97,262.5L232.15,262.84L233.25,262.63L233.43,262.76L234.35,262.67L234.53,262.71L238.02,262.67L238.2,262.76L239.49,262.76L239.67,262.76L242.6,262.79L242.79,262.62L243.7,262.91L243.89,262.82L248.47,262.74L248.65,262.57L249.57,262.35L249.75,262.23L250.12,261.84L250.3,261.24L250.67,259.6L250.85,253.96L252.51,150.77L252.69,152.11L252.87,152.48L253.06,151.91L253.24,150.01L256.17,175.63L256.36,173.69L256.54,171.25L256.72,170.11L256.91,170.66L257.09,180.16L258.19,261.36L258.37,261.5L259.47,262.11L259.66,261.93L260.94,262.25L261.12,262.19L263.32,262.14L263.51,262.02L264.61,262.28L264.79,262.16L266.07,262.47L266.26,262.35L268.09,262.31L268.28,262.5L269.38,262.17L269.56,262.57L270.29,262.19L270.48,262.56L272.49,261.82L272.68,260.84L273.23,227.42L273.41,211.93L274.51,185.68L274.69,185.17L275.24,183.02L275.43,181.1L276.34,167.32L276.53,162.55L277.08,154.64L277.44,158.96L277.63,162.49L278.54,187.74L278.73,197.86L280.19,258.54L280.38,258.49L281.66,258.02L281.84,258.23L282.95,257.23L283.13,257.41L283.31,257.46L284.41,256.12L284.6,256.18L285.51,255.59L285.7,255.23L288.63,252.39L288.81,251.94L290.83,250.35L291.01,250.01L292.85,249.2L293.03,248.72L294.86,248.19L295.05,248.45L300,248.41L300.18,248.65L312.1,251.28L312.28,250.98L312.47,251.22L312.84,250.82L313.02,250.42L313.2,248.07L313.39,231.73L314.49,179.46L314.67,178.1L315.59,165.59L315.77,167.9L315.95,171.05L317.24,188.54L317.42,188.06L317.6,187.3L318.15,182.19L318.34,178.58L318.52,175.12L318.89,180.45L319.07,186.7L320.35,251.36L320.54,251.06L320.72,251.81L322,251.66L322.19,251.92L322.92,252.06L323.1,251.96L324.57,252.08L324.75,252.45L325.67,252.3L325.85,252.36L326.95,252.68L327.14,252.78L328.06,252.86L328.24,252.63L329.16,253.15L329.34,252.94L329.52,252.9L333.92,254.05L334.11,253.91L335.02,253.97L335.21,253.89L336.12,253.78L336.31,253.43L337.22,252.32L337.41,251.32L337.77,239.26L337.96,207.89L338.87,24.39L339.06,32.1L339.24,45.3L339.61,57.04L339.79,50.12L339.97,42.73L340.89,31.27L341.07,31.49L341.26,32.28L347.49,56.65L347.68,57.76L356.48,87.98L356.66,88.01L357.39,90.07L357.58,90.87L361.06,100.01L361.25,100.24L363.08,104.63L363.26,105.09L367.11,113L367.3,113.21L373.35,123.82L373.53,124.02L376.1,127.9L376.28,128.39L377.2,129.1L377.38,129.2L377.93,129.51L378.12,129.24L378.3,127.24L378.85,44.1L379.03,24.85L379.4,16.08L379.77,19.6L379.95,21.85L380.87,28.6L381.05,31.77L381.97,37.86L382.15,39.85L383.8,49.25L383.98,49.38L387.28,67.72L387.47,67.6L387.65,68.32L390.77,81.66L390.95,82.63L392.05,86.25L392.24,87.22L399.57,111.16L399.75,111.57L409.29,132.94L409.47,133.22L412.59,139.28L412.77,139.38L425.43,157.38L425.61,157.47L431.29,164.24L431.48,164.45L436.98,170.15L437.16,170L438.45,170.92L438.63,171.4L441.2,172.52L441.38,172.95L441.56,172.57L442.11,173.07L442.3,173.05L444.68,174.15L444.86,173.99L446.88,174.82L447.06,174.74L449.82,175.83L450,175.81L452.93,176.39L453.12,176.54L454.22,176.67L454.4,176.88L458.8,177.96L458.98,177.89L460.45,178.05L460.63,178.11L474.57,181.11L474.75,181.26L478.6,182.2L478.79,182.37L479.52,182.53L479.7,182.68L492.72,187.22L492.91,187.46L494.37,187.76L494.56,187.82L497.68,188.71L497.86,188.68L502.08,189.79L502.26,189.75L504.28,190.23L504.46,190.03L505.74,191.27L505.93,190.9L506.84,191.02L507.03,191.1L519.5,195.08L519.68,195L521.7,195.69L521.88,195.74L523.53,196.25L523.71,196.12L527.2,197.12L527.38,197.05L529.4,197.89L529.58,198L530.87,198.31L531.05,198.48L533.98,199.27L534.17,199.3L535.45,199.63L535.63,199.69L536.92,199.85L537.1,200L541.13,200.63L541.32,200.84L542.24,200.83L542.42,200.98L551.59,203.1L551.77,203L559.29,204.75L559.47,204.64L560.57,205.11L560.76,205.02L562.22,205.46L562.41,205.5L563.32,205.81L563.51,205.59L565.16,206.02L565.34,205.93L566.26,206.28L566.44,206.22L568.09,206.45L568.27,206.58L573.41,207.38L573.59,207.18L574.69,207.64L574.88,207.58L575.98,207.99L576.16,207.86L577.63,208.32L577.81,208.17L578.73,208.67L578.91,208.46L579.09,208.62L582.58,209.17L582.76,209.17L591.38,210.95L591.56,210.87L593.76,211.56L593.95,211.52L596.33,212.06L596.51,211.83L597.25,212.24L597.43,212.09L597.61,212.06L598.53,212.62L598.71,212.48L600,212.41L600.18,212.6L601.28,212.86L601.46,212.77L603.48,213.21L603.67,213.24L605.5,213.54L605.68,213.38L615.77,215.21L615.95,214.96L617.42,215.27L617.6,215.15L619.62,215.64L619.8,215.35L636.67,217.64L636.86,217.41L638.14,217.81L638.32,217.49L639.42,217.88L639.61,217.9L640.71,217.98L640.89,217.94L644.92,218.67L645.11,218.51L646.76,218.84L646.94,218.66L684.9,223.34L685.08,223.48L686,223.66" style="vector-effect: none; fill: none; stroke: rgb(227, 119, 194); stroke-opacity: 1; stroke-width: 2px; opacity: 1;"/></g><g class="points"/><g class="text"/></g><g class="trace scatter trace527234" style="stroke-miterlimit: 2; opacity: 1;"><g class="fills"/><g class="errorbars"/><g class="lines"><path class="js-line" d="M0,232.13L0.55,214.9L0.73,201.18L0.92,206.17L1.1,231.5L1.47,250.03L1.83,247.23L2.02,242.81L2.75,233.03L3.12,234.25L3.3,236.37L4.22,251.66L4.4,250.01L4.58,246.01L4.77,243.27L4.95,228.32L5.68,147.21L6.05,156.03L6.23,163.42L9.17,241.05L9.35,242.22L10.45,244.76L10.64,243.44L11.19,232.71L11.55,234.9L11.74,237.2L13.2,249.47L13.39,249.49L17.05,249L17.24,249.05L18.52,248.95L18.7,248.73L19.25,246.5L19.44,245.15L20.9,225.76L21.27,228.35L21.45,230.59L22.37,225.82L22.55,224.45L23.11,219.06L23.47,221.66L23.66,222.93L24.57,226.37L24.76,225.24L26.41,217.15L26.59,218.22L26.77,219.56L26.96,218.6L27.14,216.51L28.61,241.79L28.79,241.48L28.97,241.04L29.52,239.18L29.71,233.97L30.07,217.62L30.44,224.23L30.62,230.37L31.72,263.04L32.09,262.14L32.27,259.21L32.82,249.71L33.01,251.57L33.19,255.59L33.92,263.76L34.29,263.55L34.47,263.85L43.09,263.8L43.28,263.94L44.56,263.77L44.74,263.86L51.16,263.8L51.34,263.75L52.63,264.08L52.81,263.82L54.28,263.82L54.46,263.76L55.38,263.96L55.56,263.92L58.13,263.85L58.31,263.98L59.23,263.39L59.41,263.63L59.6,263.69L60.33,263.14L60.51,261.76L61.25,246.57L61.43,250.34L61.61,256.47L62.16,263.2L62.53,262.9L62.71,261.59L63.81,219.28L64,220.95L64.18,229.83L65.1,242.05L65.28,242.77L65.46,242.51L65.65,240.8L66.38,229.91L66.56,223.05L66.93,213.17L67.3,220.45L67.48,221.3L69.32,225.3L69.5,224.13L70.78,215.14L70.97,213.3L71.52,222.98L71.7,225.65L72.62,233.31L72.8,232.22L72.98,229.99L73.53,226.44L73.9,227.94L74.08,230.45L75.55,245.62L75.73,245.71L77.38,245.25L77.57,245.16L80.87,244.66L81.05,243.99L81.6,241.13L81.78,238.77L83.43,220.42L83.62,220.5L84.17,219.86L84.35,220.23L84.54,220.86L84.9,221.96L85.09,220.36L85.27,217.32L85.82,211.84L86,213.36L86.19,215.44L87.1,223.69L87.29,222.97L87.47,221.87L87.65,223.17L88.2,222.81L88.39,221.42L89.67,225.39L89.85,224.68L90.22,225.5L90.4,225.04L90.59,224.24L91.87,230.89L92.05,232.83L93.15,242.15L93.34,248.33L93.52,262.17L94.07,257.14L94.25,252.81L94.62,249.56L94.8,252.14L94.99,255.92L95.9,263.15L96.09,262.86L97.37,263.55L97.55,263.37L99.76,263.32L99.94,263.64L101.04,263.25L101.22,263.5L102.14,263.7L102.32,263.38L112.96,263.66L113.14,263.49L113.87,263.87L114.06,263.58L114.24,263.62L116.44,263.57L116.63,263.81L121.94,263.47L122.13,263.55L123.04,262.81L123.23,261.05L123.96,247.21L124.14,250.97L124.33,256.8L124.69,262.99L125.06,262.38L125.24,258.52L126.34,233.3L126.53,233.13L127.26,229.66L127.44,230.21L127.63,231.4L127.81,232.14L127.99,231.77L128.18,229.38L128.73,235.23L129.09,234.3L129.28,234.32L131.48,226.44L131.66,226.95L131.85,227.79L133.13,210.97L133.5,212.7L133.68,215.78L133.86,215.75L134.05,211.42L134.96,198.33L135.15,199.6L135.33,203.07L137.16,232.93L137.35,235.54L138.26,238.72L138.45,238.66L141.75,238.32L141.93,238.22L143.03,236.72L143.21,236.29L143.95,231.95L144.13,229.23L145.6,214.92L145.78,213.68L145.97,212.8L146.33,214.09L146.52,214.51L146.88,213.99L147.07,214.6L147.25,215.96L147.98,206.1L148.17,206.59L148.35,210.73L149.82,225.41L150,226.3L150.37,226.54L150.55,226.89L151.83,231.78L152.02,231.75L152.2,231.87L152.38,231.15L152.57,230.9L152.75,231.05L152.93,230.26L153.12,229.17L153.85,231.39L154.03,232.7L155.32,241.32L155.5,249.01L155.87,256.88L156.23,249.9L156.42,248.1L156.78,251.79L156.97,256.08L158.07,262.85L158.25,262.97L159.53,263.06L159.72,262.91L160.64,263.27L160.82,263.09L164.49,263.42L164.67,263.23L165.59,263.26L165.77,263.36L167.79,263.39L167.97,263.47L169.07,263.39L169.25,263.4L170.72,263.23L170.9,263.45L171.82,263.15L172,263.44L173.65,263.52L173.84,263.7L174.94,263.35L175.12,263.36L183.19,263.42L183.37,263.29L184.47,263.49L184.66,263.34L185.94,262.66L186.12,261.32L186.86,245.67L187.22,250.93L187.41,256.84L187.59,260.13L187.77,254.79L187.96,245.58L188.69,235.33L188.87,235.92L189.06,235.42L189.61,233.78L189.79,234.55L189.97,235.21L190.34,237.42L190.52,238.37L190.71,240.06L191.08,236.81L191.26,238.26L191.44,239.01L192.73,235.75L192.91,234.65L193.09,234.99L193.28,233.86L193.46,233.54L195.66,206.99L195.84,208.07L197.31,230.47L197.49,229.46L197.68,227.45L198.23,223.65L198.59,224.19L198.78,224.21L200.79,208.58L200.98,208.93L201.16,209.44L202.26,217.19L202.44,223.76L204.64,239.89L204.83,241.01L206.11,246.02L206.3,248.06L207.03,255.65L207.21,254.68L207.4,252.02L209.05,230.47L209.23,229.2L209.96,218.78L210.15,204.49L210.7,183.1L211.06,183.78L211.25,182.47L211.61,185.54L211.8,188.66L212.16,190.28L212.35,192.38L213.81,199.71L214,199.57L214.36,199.46L214.55,197.78L215.46,186.69L215.65,184.18L215.83,185.29L216.01,183.73L216.2,181.52L216.56,178.93L216.93,181.32L217.11,184.62L219.31,262.4L219.5,262.72L222.25,263.19L222.43,263.16L223.72,263.27L223.9,263.16L226.47,263.33L226.65,263.44L230.5,263.25L230.68,263.44L231.78,263.39L231.97,263.31L233.07,263.48L233.25,263.27L234.17,263.51L234.35,263.43L236.18,263.46L236.37,263.42L242.05,263.4L242.24,263.21L242.97,263.45L243.15,263.26L243.34,263.23L243.89,263.51L244.07,263.35L244.25,263.36L245.54,263.29L245.72,263.72L247,263.14L247.19,263.15L249.2,262.37L249.39,261.09L250.49,224.44L250.67,215.33L251.77,180.87L251.96,182.41L252.51,180.7L252.87,186.82L253.06,189.27L253.79,201.02L254.16,199.2L254.34,199.04L255.26,190.51L255.44,193.31L256.72,172.73L256.91,166.84L257.09,162.86L257.27,167.78L257.46,175.4L258.74,258.89L258.92,259.75L260.21,262.3L260.39,262.48L261.67,262.59L261.86,262.56L263.14,262.92L263.32,262.93L264.61,262.94L264.79,263.02L266.44,262.94L266.62,262.8L267.36,263.27L267.54,262.88L268.64,263.19L268.83,262.97L269.74,262.82L269.93,262.96L272.31,262.06L272.49,261.52L272.86,252.89L273.04,230L273.96,160.14L274.14,160.62L274.33,161.14L274.69,160.45L274.88,159.53L275.06,159.98L275.24,159.88L275.43,158.44L275.79,158.79L275.98,156.55L276.16,154.06L277.26,146.25L277.44,146.29L277.63,146.64L278.18,147.47L278.36,148.22L278.54,148.02L278.73,148.44L278.91,152.66L280.74,261.39L280.93,261.54L281.66,262.17L281.84,262.04L282.03,261.99L282.95,262.38L283.13,262.29L284.05,262.46L284.23,262.42L311,262.63L311.18,262.29L312.28,261.26L312.47,260.5L312.84,256.86L313.02,247.63L314.49,152.37L314.67,150.19L314.85,151.27L315.04,149.84L315.22,148.63L316.32,160.89L316.5,163.6L317.97,176.39L318.15,175.22L318.34,175.5L318.52,172.65L319.25,170.32L319.44,174.74L320.54,261.29L320.72,261.41L322.19,261.89L322.37,261.84L323.84,262.24L324.02,262.01L324.94,262.26L325.12,262.23L327.32,262.57L327.5,262.35L328.42,262.38L328.61,262.41L329.71,262.56L329.89,262.6L330.99,262.39L331.17,262.5L332.46,262.14L332.64,262.56L333.19,262.28L333.37,262.39L333.56,262.41L335.02,260.68L335.21,255.04L336.12,180.9L336.49,183.76L336.67,185.17L337.22,187.55L337.59,186.77L337.77,186.46L338.69,177.31L338.87,173.83L339.61,164.03L339.79,166.29L339.97,170.27L341.44,204.94L341.62,225.17L342.54,260.19L342.72,260.31L354.28,259.77L354.46,259.88L355.38,259.81L355.56,259.88L356.84,259.62L357.03,259.87L358.5,260.12L358.68,259.84L361.06,260.09L361.25,259.79L362.16,260.06L362.35,259.97L373.16,260.19L373.35,260.12L374.27,260.29L374.45,260.13L375.55,258.66L375.73,253.55L377.02,182.94L377.2,182.04L377.93,169.53L378.3,173.3L378.48,175.97L379.58,191L379.95,190.61L380.13,190.02L380.87,181.09L381.05,178.1L381.23,178.49L381.42,182.91L383.07,258.94L383.25,258.76L384.53,259.07L384.72,259.16L385.63,258.78L385.82,259.02L388.57,258.46L388.75,258.64L390.04,258.42L390.22,258.72L391.14,258.47L391.32,258.45L392.24,258.21L392.42,258.33L394.44,258.09L394.62,258.3L396.45,258.08L396.64,258.1L398.29,257.39L398.47,257.45L399.57,255.81L399.75,254.72L400.12,236.14L400.3,197.09L401.04,20.69L401.4,42.8L401.59,84.35L402.14,157.26L402.5,127.53L402.69,111.24L404.16,52.17L404.34,52.52L404.71,53.36L404.89,51.44L405.62,48.28L405.81,48.5L405.99,48.55L406.72,48.02L406.91,48.88L408.19,52.14L408.37,53.87L408.56,53.57L408.74,54.54L408.92,55.59L409.47,55.99L409.66,56.61L419.01,87.9L419.19,88.42L424.51,104.43L424.69,104.79L428.36,112.46L428.54,112.87L437.9,129.27L438.08,129.45L440.1,131.42L440.28,131.14L440.46,130.98L440.65,128.07L441.75,15.81L441.93,17.09L442.11,20.82L443.21,27.15L443.4,29.7L446.88,47.56L447.06,47.71L453.3,79.74L453.48,80.25L458.43,100.38L458.62,101.05L463.38,114.54L463.57,114.96L467.24,124.12L467.42,124.59L471.09,132.16L471.27,132.59L473.29,136.53L473.47,136.96L480.44,150.03L480.62,150.2L483.74,154.78L483.92,155.08L487.04,158.88L487.22,159.28L498.23,172.09L498.41,172.2L499.33,173.41L499.51,174.14L501.89,175.73L502.08,175.69L504.46,177.29L504.64,178.17L504.83,177.81L505.19,178.01L505.38,178.77L506.11,179.11L506.29,179.46L507.03,179.15L507.21,179.48L507.39,179.69L508.31,179.83L508.49,179.85L509.41,180.11L509.59,180.13L525.55,181.29L525.73,181.7L526.65,181.94L526.83,181.88L528.85,182.16L529.03,182.49L529.77,182.74L529.95,182.88L531.05,183.1L531.23,183.01L531.78,183.4L531.97,183.6L533.07,183.51L533.25,183.67L534.17,184.03L534.35,184.27L535.82,184.11L536,184.2L536.92,184.51L537.1,184.62L538.57,184.99L538.75,185.08L547,187.14L547.19,187.15L550.85,188.48L551.04,188.33L551.95,188.45L552.14,188.51L553.79,189.25L553.97,189.05L555.25,189.36L555.44,189.41L565.89,193.05L566.07,192.84L567.17,193.4L567.36,193.42L579.46,197.26L579.64,197.55L585.33,199.17L585.51,199.36L587.9,200.18L588.08,200.2L589,200.71L589.18,200.7L591.93,201.61L592.11,201.78L593.4,201.75L593.58,202L595.05,202.8L595.23,202.51L596.33,202.85L596.51,202.74L597.8,203.15L597.98,203.23L602.38,204.43L602.57,204.54L603.3,204.64L603.48,204.83L605.32,205.21L605.5,205.28L606.6,205.55L606.78,205.52L607.52,205.79L607.7,206.01L619.8,208.93L619.99,208.82L632.64,211.77L632.82,211.63L633.74,211.91L633.92,211.87L636.12,212.37L636.31,212.37L648.78,214.8L648.96,215.1L650.43,215.04L650.61,215.09L653.91,215.84L654.09,215.97L655.01,215.83L655.19,216.08L657.03,216.19L657.21,216.33L660.33,216.9L660.51,216.95L663.81,217.49L664,217.5L672.43,219.15L672.61,219.25L674.26,219.54L674.45,219.61L678.3,220.32L678.48,220.11L679.95,220.72L680.13,220.63L681.23,220.69L681.42,220.87L683.8,221.28L683.98,221.35L685.08,221.64L685.27,221.76L686,221.83" style="vector-effect: none; fill: none; stroke: rgb(127, 127, 127); stroke-opacity: 1; stroke-width: 2px; opacity: 1;"/></g><g class="points"/><g class="text"/></g><g class="trace scatter trace3101b8" style="stroke-miterlimit: 2; opacity: 1;"><g class="fills"/><g class="errorbars"/><g class="lines"><path class="js-line" d="M0,244.92L0.55,237.54L0.73,237.69L0.92,243.17L1.65,250.64L1.83,249.52L2.02,247.39L2.75,241.64L2.93,242.79L3.12,244.43L4.03,250.36L4.22,248.8L4.4,246.93L4.58,247.42L4.77,246.13L4.95,240.27L5.68,186.49L6.05,192.06L6.23,196.09L7.33,235.99L7.52,238.33L8.99,246.06L9.17,246.34L9.54,246.21L9.72,245.58L10.82,243.45L11,243.74L11.37,244.86L11.55,246.74L12.1,250.88L12.65,250.55L12.84,250.5L13.02,250.27L13.39,250.78L13.57,250.94L15.04,252.12L15.22,252.18L16.14,251.85L16.32,251.99L17.6,251.37L17.79,250.92L19.44,250.77L19.62,250.42L20.35,245.1L20.54,243.33L21.27,239.36L21.64,240.44L21.82,241.85L22.55,244.21L22.74,243.94L22.92,243.27L23.47,237.86L23.66,233.26L24.21,184.14L24.39,155.28L25.12,80.67L25.31,89.66L25.49,103.73L27.51,245.62L27.69,243.89L27.87,240.01L28.79,226.67L29.16,228.85L29.34,231.7L30.26,245.26L30.44,237.46L30.81,213.03L31.17,224.99L31.36,230.87L33.74,262.86L33.92,263.34L35.21,263.87L35.39,263.63L36.67,263.87L36.86,263.78L40.16,263.7L40.34,263.55L41.26,263.77L41.44,263.64L42.54,263.76L42.73,263.9L43.83,263.74L44.01,263.9L47.13,263.6L47.31,263.93L48.23,263.74L48.41,263.71L49.51,263.89L49.69,263.69L55.2,263.87L55.38,263.76L56.85,263.74L57.03,263.71L58.13,264.05L58.31,263.92L60.15,263.39L60.33,262.62L62.9,216.26L63.08,204.68L63.26,203L63.45,225.76L63.81,248.44L64.18,247.15L64.36,244.04L65.1,233.67L65.46,234.74L65.65,236.67L66.56,251.48L66.75,250.09L66.93,246.72L67.3,235.18L67.48,215.41L68.03,168.14L68.4,175.52L68.58,179.95L68.77,183.79L69.32,182.68L69.5,182.36L70.23,202.08L70.42,211.03L71.7,239.52L71.88,240.35L72.8,242.27L72.98,242.05L73.17,239.21L73.72,226.69L74.08,229.44L74.27,233.67L75.73,248.41L75.92,248.42L77.38,248.56L77.57,248.47L78.48,248.42L78.67,248.35L79.77,248.48L79.95,248.24L80.5,248.18L80.68,247.84L81.23,246.52L81.42,245.16L83.07,227.4L83.25,227.64L83.43,228.33L83.8,230.02L83.99,226.97L84.54,221.75L84.72,222.76L84.9,224.15L85.45,218.77L85.82,219.32L86,220.59L86.55,224.98L87.1,223.97L87.29,223.15L88.39,219.22L88.57,218.87L88.75,219.26L88.94,222.29L90.4,244.36L90.59,244.83L91.5,244.33L91.69,243.67L91.87,242.96L92.05,238.4L92.42,225.97L92.97,231.84L93.15,234.67L93.89,262.45L94.07,261.88L94.25,259.08L94.8,244.51L95.17,250.54L95.35,256.01L96.27,263.14L96.45,263.11L97.74,263.49L97.92,263.3L98.84,263.34L99.02,263.23L100.12,263.58L100.31,263.45L101.77,263.55L101.96,263.79L102.87,263.32L103.06,263.57L103.97,263.58L104.16,263.68L106.17,263.32L106.36,263.5L107.27,263.54L107.46,263.51L112.59,263.53L112.77,263.71L113.69,263.78L113.87,263.69L116.63,263.68L116.81,263.65L118.46,263.51L118.64,263.8L119.74,263.32L119.93,263.52L121.39,263.38L121.58,263.42L122.68,262.79L122.86,261.91L123.59,246.13L123.78,249.04L123.96,255.08L124.69,262.9L124.88,262.73L125.06,261.98L126.34,221.76L126.53,227.49L127.44,235.86L127.63,237.23L127.81,237.56L127.99,237L128.18,233.66L129.28,211.86L129.46,214.5L129.65,220.06L130.38,223.6L130.56,223.09L130.75,222.96L131.48,225.13L131.66,225.6L133.5,213.74L133.68,216.26L133.86,219.82L134.78,231.47L135.15,230.43L135.33,229.33L136.25,223.1L136.43,224.56L136.61,228.59L138.08,245.58L138.26,245.82L143.21,244.78L143.4,244.25L143.95,240.6L144.13,237.83L145.23,222.58L145.42,224.07L145.6,226L146.33,231.97L146.52,231.12L146.7,229.01L147.98,210.34L148.17,211.38L148.35,214.26L149.82,222.74L150,221.82L150.73,219.09L150.92,220.4L151.1,220.66L151.83,219.65L152.02,220.47L152.57,218.24L152.75,219.7L152.93,222.04L154.4,233.24L154.58,232.41L154.77,232.3L154.95,232.8L155.13,234.49L156.23,262.32L156.42,261.15L156.6,258.22L157.15,249.03L157.33,251.17L157.52,255.03L158.62,262.87L158.8,263.08L159.72,263.41L159.9,263.09L161.19,263.39L161.37,263.38L164.3,263.45L164.49,263.63L165.4,263.38L165.59,263.42L167.24,263.6L167.42,263.34L168.34,263.52L168.52,263.37L169.44,263.58L169.62,263.33L169.8,263.38L170.72,263.47L170.9,263.45L173.1,263.39L173.29,263.49L174.39,263.73L174.57,263.43L175.3,263.33L175.49,263.34L179.52,263.54L179.71,263.48L182.27,263.57L182.46,263.37L183.56,263.55L183.74,263.44L185.02,263.25L185.21,263.05L185.39,263.02L185.57,261.78L186.31,247.2L186.49,249.57L186.67,255.1L187.22,262.98L187.59,261.83L187.77,255.41L188.69,233.32L188.87,234.14L189.06,233.54L189.61,229.66L189.97,230.37L190.16,230.93L190.34,231.23L190.52,230L191.44,234.03L191.63,233.55L191.81,232.85L192.91,229.17L193.09,230.62L193.28,231.64L194.01,226.79L194.19,225.6L194.38,226.06L194.56,224.58L194.74,221.44L195.66,210.28L196.03,212.74L196.21,215.6L196.39,215.55L196.58,211.23L197.31,196.56L197.68,199.02L197.86,202.93L199.69,233.47L199.88,236.25L200.98,240.43L201.16,240.62L204.46,239.7L204.64,239.62L205.56,237.96L205.74,237.19L206.48,226.01L206.66,220.99L208.31,196.66L208.5,196.12L208.68,196.07L208.86,196.74L209.05,199.37L209.78,212.8L210.15,209.99L210.33,208.73L210.7,210.9L210.88,213.61L212.16,223.8L212.35,225.13L214,231.28L214.18,231.22L214.36,231.41L214.91,230.89L215.1,232.01L215.28,231.97L215.46,231.12L216.01,229.37L216.38,230.12L216.56,230.79L217.11,231.39L217.3,232.66L217.66,237.15L217.85,244.1L218.4,260.12L218.76,253.89L218.95,250.74L219.13,249.4L219.31,251.09L219.5,254.34L220.6,263.22L220.78,263.17L222.07,263.41L222.25,263.35L223.9,263.36L224.08,263.15L225.18,263.58L225.37,263.49L228.12,263.52L228.3,263.47L229.22,263.56L229.4,263.58L232.88,263.71L233.07,263.57L233.98,263.6L234.17,263.69L236,263.71L236.18,263.61L238.02,263.73L238.2,263.45L240.04,263.62L240.22,263.63L242.42,263.6L242.6,263.79L243.34,263.41L243.52,263.66L243.7,263.64L245.72,263.69L245.9,263.49L247.92,263.17L248.1,263.23L248.47,262.16L248.65,258.95L249.2,245.54L249.57,249.45L249.75,255.31L250.12,260.05L250.3,251.28L250.49,242.01L251.4,234.39L251.59,235.27L252.87,239.08L253.06,239.81L253.24,241.3L253.42,239.22L253.61,236.98L253.97,239.74L254.34,238.33L254.52,236.98L255.07,235.04L255.26,232.96L255.44,233.15L255.62,232.07L256.72,225.91L256.91,226.4L257.09,218.37L257.82,208.62L258.01,210.14L258.19,213.25L259.47,230.93L259.66,229.97L259.84,228.58L260.94,223.58L261.12,223.2L261.49,223.87L261.67,224.64L262.04,227.63L262.41,226.23L262.59,225.01L264.61,209.9L264.79,209.65L266.07,210.94L266.26,211.27L267.36,215.67L267.54,216.54L268.83,226.61L269.01,229.87L269.56,236.58L269.74,234.39L269.93,230.42L271.21,215.61L271.39,215.09L272.13,210.6L272.31,207.05L272.68,195.71L273.23,198.49L273.41,200.86L273.96,205.86L274.33,205.06L274.51,205.58L275.43,207.52L275.61,209.34L276.34,212.91L276.71,212.87L276.89,211.41L277.26,207.51L277.44,205.88L279.09,188.6L279.28,191.39L280.01,205.38L280.19,220.38L281.48,259.14L281.66,261.38L282.95,263L283.13,262.82L284.6,262.88L284.78,262.9L285.7,262.9L285.88,263.2L286.98,262.99L287.16,263.08L288.81,263.03L289,263L291.2,263.12L291.38,263.03L294.86,263.04L295.05,262.86L295.96,263.11L296.15,263.04L299.45,262.97L299.63,263.07L309.17,263.01L309.35,262.92L310.27,262.86L310.45,262.73L311,262.79L311.18,262.06L311.55,257.81L311.73,251.74L313.94,179.13L314.12,183.15L314.3,185.9L314.67,178.98L315.04,183.65L315.22,187.33L316.32,199.55L316.5,201.3L317.24,196.92L317.42,194.66L319.25,159.12L319.62,162.16L319.8,168.12L321.27,255.18L321.45,256.16L323.29,262.19L323.47,262.25L324.57,262.39L324.75,262.46L326.04,262.5L326.22,262.76L327.32,262.53L327.5,262.64L328.97,262.85L329.16,262.79L333.74,262.43L333.92,262.47L334.84,260.23L335.02,257.45L335.57,196.96L335.76,168.53L336.67,147.05L336.86,146.98L337.04,144.72L337.59,145.67L337.77,145.78L337.96,145.82L338.14,147.75L338.32,148.01L338.51,145.36L338.69,143.78L339.24,144.41L339.42,145.31L339.61,145.27L339.79,147.14L340.34,152.41L340.52,150.72L340.71,149.75L341.26,144.8L341.44,150.81L343.64,262L343.83,262.02L361.61,262.83L361.8,262.69L364,262.94L364.18,262.9L365.1,262.76L365.28,262.91L369.5,262.7L369.68,262.88L370.78,262.75L370.96,262.59L372.25,262.47L372.43,262.4L374.08,262.03L374.27,261.92L375,259.31L375.18,257.01L375.73,223.93L375.92,200.21L376.83,154.99L377.02,153.51L377.93,156.84L378.12,156.39L378.3,156.37L378.48,159.43L380.32,177.87L380.5,177.85L380.68,177.67L380.87,176.06L381.78,170.51L381.97,179.99L383.07,261.37L383.25,261.42L384.53,261.8L384.72,261.72L393.34,262.25L393.52,262.15L395.54,262.23L395.72,262.07L397.37,261.16L397.55,259.23L398.47,183.76L398.84,187.38L399.02,188.79L399.94,192.42L400.12,192.1L400.3,191.61L400.85,188.19L401.04,185.29L402.14,171.05L402.32,171.6L402.5,173.13L403.6,181.66L403.79,189.06L405.07,260.34L405.26,260.49L406.54,260.82L406.72,260.82L408.37,260.76L408.56,261.03L410.39,260.87L410.57,261.08L427.44,261.4L427.63,261.2L428.91,261.64L429.09,261.38L430.19,261.65L430.38,261.42L437.16,260.94L437.35,260.66L437.71,260.24L437.9,259.35L438.26,229.17L438.45,203.13L439.36,181.22L439.55,179.93L440.28,167.93L440.46,170.66L440.65,173.74L441.2,182.4L441.38,186.11L442.3,189.63L442.48,188.93L443.21,180.1L443.4,176.43L443.58,175.87L443.76,178.88L445.23,259.28L445.41,259.19L445.6,259.45L446.7,259.13L446.88,259.42L447.8,258.97L447.98,259.18L460.27,258.08L460.45,257.61L461.18,255.32L461.37,253.95L462.1,244.16L462.28,221.3L463.38,28.87L463.57,35.3L463.75,65.72L464.48,232.58L464.85,225.95L465.04,217.27L467.05,150.48L467.24,147.14L469.62,122.27L469.8,120.98L471.64,109.83L471.82,109.19L473.65,105.06L473.84,104.65L474.2,104.19L474.57,104.96L474.75,104.25L475.12,103.67L475.67,104.09L475.85,104.11L477.32,105.31L477.5,105.43L478.24,106.16L478.42,106.71L479.15,107.42L479.34,108.09L493.82,134.82L494.01,134.94L497.31,142.25L497.49,142.43L500.06,146.2L500.24,146.32L502.26,149.75L502.44,149.5L502.63,149.25L502.81,148.28L502.99,142.64L503.91,16.7L504.28,20.82L504.46,27.13L504.64,32.62L505.19,28.81L505.38,29.15L507.21,43.7L507.39,45.1L514,74.94L514.18,75.53L515.65,81.15L515.83,81.83L516.38,84.04L516.56,84.75L520.78,100.72L520.96,101.03L533.62,136.01L533.8,136.39L536,140.43L536.18,140.71L539.3,146.48L539.48,146.63L542.79,151.72L542.97,151.73L543.7,152.94L543.89,153.37L547.19,157.57L547.37,157.67L549.39,160.39L549.57,160.63L560.02,171.42L560.21,171.53L567.91,178.66L568.09,178.66L570.29,180.48L570.47,180.65L571.21,181.23L571.39,181.64L573.59,183.22L573.78,183.47L574.69,183.98L574.88,184.16L582.94,189.61L583.13,189.7L588.81,193.87L589,193.77L591.01,194.88L591.2,194.74L592.3,195.52L592.48,195.54L594.13,196.55L594.31,196.7L600.55,199.79L600.73,199.89L606.42,202.3L606.6,202.66L607.52,203.02L607.7,203.16L609.17,203.65L609.35,203.91L614.3,205.64L614.48,205.83L622.19,208.51L622.37,208.58L628.6,210.66L628.79,210.45L629.89,210.94L630.07,210.82L631.54,211.43L631.72,211.27L633.19,212.03L633.37,211.88L634.47,212.19L634.66,212.3L636.49,212.86L636.67,212.82L638.87,213.52L639.06,213.69L640.71,214.2L640.89,214.04L642.17,214.34L642.36,214.46L644.74,215.3L644.92,215.26L651.34,216.61L651.53,216.69L652.63,216.93L652.81,217.09L653.91,217.01L654.09,217.34L656.66,217.58L656.84,217.82L674.81,222.05L675,222.28L676.83,222.41L677.01,222.49L678.67,222.79L678.85,222.73L680.13,223.02L680.32,223.29L684.72,224.02L684.9,224.19L686,224.18" style="vector-effect: none; fill: none; stroke: rgb(188, 189, 34); stroke-opacity: 1; stroke-width: 2px; opacity: 1;"/></g><g class="points"/><g class="text"/></g></g></g></g><g class="zerolinelayer-above"/><path class="xlines-above crisp" d="M58,297.5H745" style="fill: none; stroke-width: 1px; stroke: rgb(36, 36, 36); stroke-opacity: 1;"/><path class="ylines-above crisp" d="M58.5,5V297" style="fill: none; stroke-width: 1px; stroke: rgb(36, 36, 36); stroke-opacity: 1;"/><g class="overlines-above"/><g class="xaxislayer-above"><path class="xtick ticks crisp" d="M0,298v3" transform="translate(104.84,0)" style="stroke: rgb(0, 0, 0); stroke-opacity: 1; stroke-width: 1px;"/><path class="xtick ticks crisp" d="M0,298v3" transform="translate(196.53,0)" style="stroke: rgb(0, 0, 0); stroke-opacity: 1; stroke-width: 1px;"/><path class="xtick ticks crisp" d="M0,298v3" transform="translate(288.22,0)" style="stroke: rgb(0, 0, 0); stroke-opacity: 1; stroke-width: 1px;"/><path class="xtick ticks crisp" d="M0,298v3" transform="translate(379.9,0)" style="stroke: rgb(0, 0, 0); stroke-opacity: 1; stroke-width: 1px;"/><path class="xtick ticks crisp" d="M0,298v3" transform="translate(471.59,0)" style="stroke: rgb(0, 0, 0); stroke-opacity: 1; stroke-width: 1px;"/><path class="xtick ticks crisp" d="M0,298v3" transform="translate(563.28,0)" style="stroke: rgb(0, 0, 0); stroke-opacity: 1; stroke-width: 1px;"/><path class="xtick ticks crisp" d="M0,298v3" transform="translate(654.96,0)" style="stroke: rgb(0, 0, 0); stroke-opacity: 1; stroke-width: 1px;"/><path class="xtick ticks crisp" d="M0,298v5" transform="translate(59,0)" style="stroke: rgb(68, 68, 68); stroke-opacity: 1; stroke-width: 1px;"/><path class="xtick ticks crisp" d="M0,298v5" transform="translate(150.69,0)" style="stroke: rgb(68, 68, 68); stroke-opacity: 1; stroke-width: 1px;"/><path class="xtick ticks crisp" d="M0,298v5" transform="translate(242.37,0)" style="stroke: rgb(68, 68, 68); stroke-opacity: 1; stroke-width: 1px;"/><path class="xtick ticks crisp" d="M0,298v5" transform="translate(334.06,0)" style="stroke: rgb(68, 68, 68); stroke-opacity: 1; stroke-width: 1px;"/><path class="xtick ticks crisp" d="M0,298v5" transform="translate(425.75,0)" style="stroke: rgb(68, 68, 68); stroke-opacity: 1; stroke-width: 1px;"/><path class="xtick ticks crisp" d="M0,298v5" transform="translate(517.4300000000001,0)" style="stroke: rgb(68, 68, 68); stroke-opacity: 1; stroke-width: 1px;"/><path class="xtick ticks crisp" d="M0,298v5" transform="translate(609.12,0)" style="stroke: rgb(68, 68, 68); stroke-opacity: 1; stroke-width: 1px;"/><path class="xtick ticks crisp" d="M0,298v5" transform="translate(700.81,0)" style="stroke: rgb(68, 68, 68); stroke-opacity: 1; stroke-width: 1px;"/><g class="xtick"><text text-anchor="middle" x="0" y="317.4" transform="translate(59,0)" style="font-family: 'FrontPage Pro'; font-size: 12px; fill: rgb(36, 36, 36); fill-opacity: 1; white-space: pre;">0</text></g><g class="xtick"><text text-anchor="middle" x="0" y="317.4" style="font-family: 'FrontPage Pro'; font-size: 12px; fill: rgb(36, 36, 36); fill-opacity: 1; white-space: pre;" transform="translate(150.69,0)">500</text></g><g class="xtick"><text text-anchor="middle" x="0" y="317.4" style="font-family: 'FrontPage Pro'; font-size: 12px; fill: rgb(36, 36, 36); fill-opacity: 1; white-space: pre;" transform="translate(242.37,0)">1000</text></g><g class="xtick"><text text-anchor="middle" x="0" y="317.4" style="font-family: 'FrontPage Pro'; font-size: 12px; fill: rgb(36, 36, 36); fill-opacity: 1; white-space: pre;" transform="translate(334.06,0)">1500</text></g><g class="xtick"><text text-anchor="middle" x="0" y="317.4" style="font-family: 'FrontPage Pro'; font-size: 12px; fill: rgb(36, 36, 36); fill-opacity: 1; white-space: pre;" transform="translate(425.75,0)">2000</text></g><g class="xtick"><text text-anchor="middle" x="0" y="317.4" style="font-family: 'FrontPage Pro'; font-size: 12px; fill: rgb(36, 36, 36); fill-opacity: 1; white-space: pre;" transform="translate(517.4300000000001,0)">2500</text></g><g class="xtick"><text text-anchor="middle" x="0" y="317.4" style="font-family: 'FrontPage Pro'; font-size: 12px; fill: rgb(36, 36, 36); fill-opacity: 1; white-space: pre;" transform="translate(609.12,0)">3000</text></g><g class="xtick"><text text-anchor="middle" x="0" y="317.4" style="font-family: 'FrontPage Pro'; font-size: 12px; fill: rgb(36, 36, 36); fill-opacity: 1; white-space: pre;" transform="translate(700.81,0)">3500</text></g></g><g class="yaxislayer-above"><path class="ytick ticks crisp" d="M58,0h-5" transform="translate(0,297)" style="stroke: rgb(68, 68, 68); stroke-opacity: 1; stroke-width: 1px;"/><path class="ytick ticks crisp" d="M58,0h-5" transform="translate(0,229.86)" style="stroke: rgb(68, 68, 68); stroke-opacity: 1; stroke-width: 1px;"/><path class="ytick ticks crisp" d="M58,0h-5" transform="translate(0,162.72)" style="stroke: rgb(68, 68, 68); stroke-opacity: 1; stroke-width: 1px;"/><path class="ytick ticks crisp" d="M58,0h-5" transform="translate(0,95.58)" style="stroke: rgb(68, 68, 68); stroke-opacity: 1; stroke-width: 1px;"/><path class="ytick ticks crisp" d="M58,0h-5" transform="translate(0,28.44)" style="stroke: rgb(68, 68, 68); stroke-opacity: 1; stroke-width: 1px;"/><g class="ytick"><text text-anchor="end" x="50.6" y="4.199999999999999" transform="translate(0,297)" style="font-family: 'FrontPage Pro'; font-size: 12px; fill: rgb(36, 36, 36); fill-opacity: 1; white-space: pre;">0</text></g><g class="ytick"><text text-anchor="end" x="50.6" y="4.199999999999999" style="font-family: 'FrontPage Pro'; font-size: 12px; fill: rgb(36, 36, 36); fill-opacity: 1; white-space: pre;" transform="translate(0,229.86)">50</text></g><g class="ytick"><text text-anchor="end" x="50.6" y="4.199999999999999" style="font-family: 'FrontPage Pro'; font-size: 12px; fill: rgb(36, 36, 36); fill-opacity: 1; white-space: pre;" transform="translate(0,162.72)">100</text></g><g class="ytick"><text text-anchor="end" x="50.6" y="4.199999999999999" style="font-family: 'FrontPage Pro'; font-size: 12px; fill: rgb(36, 36, 36); fill-opacity: 1; white-space: pre;" transform="translate(0,95.58)">150</text></g><g class="ytick"><text text-anchor="end" x="50.6" y="4.199999999999999" style="font-family: 'FrontPage Pro'; font-size: 12px; fill: rgb(36, 36, 36); fill-opacity: 1; white-space: pre;" transform="translate(0,28.44)">200</text></g></g><g class="overaxes-above"/></g></g><g class="polarlayer"/><g class="smithlayer"/><g class="ternarylayer"/><g class="geolayer"/><g class="funnelarealayer"/><g class="pielayer"/><g class="iciclelayer"/><g class="treemaplayer"/><g class="sunburstlayer"/><g class="glimages"/><defs id="topdefs-15680b"><g class="clips"/><clipPath id="legend15680b"><rect width="85" height="201" x="0" y="0"/></clipPath></defs><g class="layer-above"><g class="imagelayer"/><g class="shapelayer"/></g><g class="infolayer"><g class="legend" pointer-events="all" transform="translate(660,5)"><rect class="bg" shape-rendering="crispEdges" style="stroke: rgb(68, 68, 68); stroke-opacity: 1; fill: rgb(255, 255, 255); fill-opacity: 1; stroke-width: 0px;" width="85" height="201" x="0" y="0"/><g class="scrollbox" transform="" clip-path="url(#legend15680b)"><g class="groups" transform=""><g class="traces" transform="translate(0,14.950000000000001)" style="opacity: 1;"><text class="legendtext" text-anchor="start" x="5" y="5.07" style="font-family: 'FrontPage Pro'; font-size: 13px; fill: rgb(36, 36, 36); fill-opacity: 1; white-space: pre;">Messpunkte</text><g class="layers"><g class="legendfill"/><g class="legendlines"/><g class="legendsymbols"><g class="legendpoints"/></g></g><rect class="legendtoggle" x="0" y="-9.950000000000001" width="79.9189453125" height="19.900000000000002" style="fill: rgb(0, 0, 0); fill-opacity: 0;"/></g><g class="traces" transform="translate(0,34.400000000000006)" style="opacity: 1;"><text class="legendtext" text-anchor="start" x="40" y="4.680000000000001" style="font-family: 'FrontPage Pro'; font-size: 12px; fill: rgb(36, 36, 36); fill-opacity: 1; white-space: pre;">P1</text><g class="layers" style="opacity: 1;"><g class="legendfill"/><g class="legendlines"><path class="js-line" d="M5,0h30" style="fill: none; stroke: rgb(31, 119, 180); stroke-opacity: 1; stroke-width: 2px;"/></g><g class="legendsymbols"><g class="legendpoints"/></g></g><rect class="legendtoggle" x="0" y="-9.5" width="79.9189453125" height="19" style="fill: rgb(0, 0, 0); fill-opacity: 0;"/></g><g class="traces" transform="translate(0,53.400000000000006)" style="opacity: 1;"><text class="legendtext" text-anchor="start" x="40" y="4.680000000000001" style="font-family: 'FrontPage Pro'; font-size: 12px; fill: rgb(36, 36, 36); fill-opacity: 1; white-space: pre;">P2</text><g class="layers" style="opacity: 1;"><g class="legendfill"/><g class="legendlines"><path class="js-line" d="M5,0h30" style="fill: none; stroke: rgb(255, 127, 14); stroke-opacity: 1; stroke-width: 2px;"/></g><g class="legendsymbols"><g class="legendpoints"/></g></g><rect class="legendtoggle" x="0" y="-9.5" width="79.9189453125" height="19" style="fill: rgb(0, 0, 0); fill-opacity: 0;"/></g><g class="traces" transform="translate(0,72.4)" style="opacity: 1;"><text class="legendtext" text-anchor="start" x="40" y="4.680000000000001" style="font-family: 'FrontPage Pro'; font-size: 12px; fill: rgb(36, 36, 36); fill-opacity: 1; white-space: pre;">P3</text><g class="layers" style="opacity: 1;"><g class="legendfill"/><g class="legendlines"><path class="js-line" d="M5,0h30" style="fill: none; stroke: rgb(44, 160, 44); stroke-opacity: 1; stroke-width: 2px;"/></g><g class="legendsymbols"><g class="legendpoints"/></g></g><rect class="legendtoggle" x="0" y="-9.5" width="79.9189453125" height="19" style="fill: rgb(0, 0, 0); fill-opacity: 0;"/></g><g class="traces" transform="translate(0,91.4)" style="opacity: 1;"><text class="legendtext" text-anchor="start" x="40" y="4.680000000000001" style="font-family: 'FrontPage Pro'; font-size: 12px; fill: rgb(36, 36, 36); fill-opacity: 1; white-space: pre;">P4</text><g class="layers" style="opacity: 1;"><g class="legendfill"/><g class="legendlines"><path class="js-line" d="M5,0h30" style="fill: none; stroke: rgb(214, 39, 40); stroke-opacity: 1; stroke-width: 2px;"/></g><g class="legendsymbols"><g class="legendpoints"/></g></g><rect class="legendtoggle" x="0" y="-9.5" width="79.9189453125" height="19" style="fill: rgb(0, 0, 0); fill-opacity: 0;"/></g><g class="traces" transform="translate(0,110.4)" style="opacity: 1;"><text class="legendtext" text-anchor="start" x="40" y="4.680000000000001" style="font-family: 'FrontPage Pro'; font-size: 12px; fill: rgb(36, 36, 36); fill-opacity: 1; white-space: pre;">P5</text><g class="layers" style="opacity: 1;"><g class="legendfill"/><g class="legendlines"><path class="js-line" d="M5,0h30" style="fill: none; stroke: rgb(148, 103, 189); stroke-opacity: 1; stroke-width: 2px;"/></g><g class="legendsymbols"><g class="legendpoints"/></g></g><rect class="legendtoggle" x="0" y="-9.5" width="79.9189453125" height="19" style="fill: rgb(0, 0, 0); fill-opacity: 0;"/></g><g class="traces" transform="translate(0,129.4)" style="opacity: 1;"><text class="legendtext" text-anchor="start" x="40" y="4.680000000000001" style="font-family: 'FrontPage Pro'; font-size: 12px; fill: rgb(36, 36, 36); fill-opacity: 1; white-space: pre;">P6</text><g class="layers" style="opacity: 1;"><g class="legendfill"/><g class="legendlines"><path class="js-line" d="M5,0h30" style="fill: none; stroke: rgb(140, 86, 75); stroke-opacity: 1; stroke-width: 2px;"/></g><g class="legendsymbols"><g class="legendpoints"/></g></g><rect class="legendtoggle" x="0" y="-9.5" width="79.9189453125" height="19" style="fill: rgb(0, 0, 0); fill-opacity: 0;"/></g><g class="traces" transform="translate(0,148.4)" style="opacity: 1;"><text class="legendtext" text-anchor="start" x="40" y="4.680000000000001" style="font-family: 'FrontPage Pro'; font-size: 12px; fill: rgb(36, 36, 36); fill-opacity: 1; white-space: pre;">P7</text><g class="layers" style="opacity: 1;"><g class="legendfill"/><g class="legendlines"><path class="js-line" d="M5,0h30" style="fill: none; stroke: rgb(227, 119, 194); stroke-opacity: 1; stroke-width: 2px;"/></g><g class="legendsymbols"><g class="legendpoints"/></g></g><rect class="legendtoggle" x="0" y="-9.5" width="79.9189453125" height="19" style="fill: rgb(0, 0, 0); fill-opacity: 0;"/></g><g class="traces" transform="translate(0,167.4)" style="opacity: 1;"><text class="legendtext" text-anchor="start" x="40" y="4.680000000000001" style="font-family: 'FrontPage Pro'; font-size: 12px; fill: rgb(36, 36, 36); fill-opacity: 1; white-space: pre;">P8</text><g class="layers" style="opacity: 1;"><g class="legendfill"/><g class="legendlines"><path class="js-line" d="M5,0h30" style="fill: none; stroke: rgb(127, 127, 127); stroke-opacity: 1; stroke-width: 2px;"/></g><g class="legendsymbols"><g class="legendpoints"/></g></g><rect class="legendtoggle" x="0" y="-9.5" width="79.9189453125" height="19" style="fill: rgb(0, 0, 0); fill-opacity: 0;"/></g><g class="traces" transform="translate(0,186.4)" style="opacity: 1;"><text class="legendtext" text-anchor="start" x="40" y="4.680000000000001" style="font-family: 'FrontPage Pro'; font-size: 12px; fill: rgb(36, 36, 36); fill-opacity: 1; white-space: pre;">P9</text><g class="layers" style="opacity: 1;"><g class="legendfill"/><g class="legendlines"><path class="js-line" d="M5,0h30" style="fill: none; stroke: rgb(188, 189, 34); stroke-opacity: 1; stroke-width: 2px;"/></g><g class="legendsymbols"><g class="legendpoints"/></g></g><rect class="legendtoggle" x="0" y="-9.5" width="79.9189453125" height="19" style="fill: rgb(0, 0, 0); fill-opacity: 0;"/></g></g></g><rect class="scrollbar" rx="20" ry="3" width="0" height="0" style="fill: rgb(128, 139, 164); fill-opacity: 1;" x="0" y="0"/></g><g class="g-gtitle"/><g class="g-xtitle"><text class="xtitle" x="402" y="344.700390625" text-anchor="middle" style="opacity: 1; font-family: 'FrontPage Pro'; font-size: 14px; fill: rgb(36, 36, 36); fill-opacity: 1; white-space: pre;">Bild #</text></g><g class="g-ytitle" transform="translate(2.14453125,0)"><text class="ytitle" transform="rotate(-90,10.855859375000001,151)" x="10.855859375000001" y="151" text-anchor="middle" style="opacity: 1; font-family: 'FrontPage Pro'; font-size: 14px; fill: rgb(36, 36, 36); fill-opacity: 1; white-space: pre;">Gemessene Temperatur T in °C</text></g></g></svg>